<svg id="Calque_1" data-name="Calque 1" xmlns="http://www.w3.org/2000/svg" viewBox="0 0 50 50"><defs><style>.cls-4{fill:none;stroke-miterlimit:10}.cls-2{fill:#06df86}.cls-4{stroke-width:3px;stroke:#06df86}</style></defs><path d="M23.29 23.21h9.21m-9.21 6h9.21m-9.21 6h9.21" stroke-miterlimit="10" stroke="#191b28" stroke-linecap="round" stroke-width="2.5" fill="none"/><circle class="cls-2" cx="17.69" cy="29.21" r="1.78"/><circle class="cls-2" cx="17.69" cy="23.21" r="1.78"/><circle class="cls-2" cx="17.69" cy="35.21" r="1.78"/><path d="M39.5 18v22.5a3 3 0 01-3 3h-23a3 3 0 01-3-3v-30a3 3 0 013-3H30" stroke-width="3" stroke-miterlimit="10" stroke="#191b28" fill="none"/><path class="cls-4" d="M30 7.5h1.26a3 3 0 012.12.88l2.12 2.12 3 2.82a3 3 0 011 2.2V18"/><path class="cls-4" d="M30.5 6v8.12a2.37 2.37 0 002.38 2.38H40"/><path fill="none" d="M31 7v7.9l2 1.1 5.64.5.49-2.41"/></svg>