<svg width="21" height="21" fill="none" xmlns="http://www.w3.org/2000/svg"><path d="M13.85 9.32a1.25 1.25 0 100-2.5 1.25 1.25 0 000 2.5zm-6 0a1.25 1.25 0 100-2.5 1.25 1.25 0 000 2.5z" fill="#06DF86"/><path d="M10.85 20.07a10 10 0 110-20 10 10 0 010 20zm0-18a8 8 0 100 16 8 8 0 000-16z" fill="#191B28"/><path d="M7.7 14.49a.78.78 0 01-.46-.16.75.75 0 01-.13-1.06 5.22 5.22 0 013.48-1.85 5 5 0 013.94 1.79.75.75 0 01-1.06 1.06 3.849 3.849 0 00-2.8-1.35 3.75 3.75 0 00-2.38 1.29.75.75 0 01-.59.28z" fill="#191B28"/></svg>