<svg xmlns="http://www.w3.org/2000/svg" viewBox="0 0 50 50"><path d="M38.3 8.9c-.2-.2-.4-.3-.6-.4-1-.5-2-.9-3-1.1-1-.3-2-.4-3.1-.4h-1.2c-.5 0-1 0-1.5.1-1.2.1-2.3.3-3.4.7-1.2.4-2.4 1-3.5 1.7-1.2.8-2.3 1.6-3.2 2.7-.8.8-1.4 1.8-1.9 2.8-.3.6-.6 1.2-.8 1.9-.4.9-.6 1.8-.8 2.8 0 .2 0 .2-.2.2-.4 0-.9 0-1.4.1v.1c0 .2 0 .4-.1.6.1.1.2.1.2.2.2.2.3.4.4.6.1.2.2.5.2.8v1h.5c.2 0 .2 0 .2.1V26c0 .2 0 .2-.2.2h-.8c0 1-.1 2-.1 2.9v.4h1.3c.2 0 .2 0 .2.2.2 1.1.5 2.2.9 3.3.4 1.2 1 2.4 1.7 3.5.7.9 1.4 1.7 2.2 2.5.5.5 1 .9 1.5 1.2.6.4 1.3.8 2 1.1.8.3 1.6.6 2.5.8l1.8.3c.5 0 1.1.1 1.6.1H32c.1 0 .3 0 .3.1.4 0 .9 0 1.4-.1 1.3-.2 2.5-.6 3.7-1.1.1 0 .2-.1.2-.3v-4.5c0-.1 0-.2-.1-.1-.9.7-1.8 1.2-2.9 1.6-1.2.4-2.4.6-3.6.6-.6 0-1.1 0-1.7-.1-1.4-.2-2.8-.6-4-1.3-1-.6-1.9-1.2-2.6-2.1-.7-.8-1.2-1.6-1.6-2.5-.4-.9-.7-2-.9-3 0-.2 0-.2.2-.2h.4v-.1c0-1.1 1-2 2-2 3.9 0 7.8 0 11.6.7.1-.5.2-1 .3-1.6.1-.3.2-.3-.2-.3H19.8c-.1 0-.1 0-.1-.1v-2.6c0-.2-.1-.2.2-.2h.1v-.1c0-1.1 1-2 2-2 2.2 0 4.5-.2 6.7-.2 1 0 2.1 0 3.1.1.6.1 1.3.2 1.9.3.2 0 .3.1.5.1h.4c.4 0 .8.1 1.1.3.1-.8.3-1.7.1-1.7H20.1c-.1 0-.1 0-.1-.2.2-1.2.6-2.4 1.2-3.4.6-1.1 1.5-2.2 2.5-3.1.8-.8 1.9-1.4 3-1.8 1.3-.4 2.7-.6 4-.6.4-.1.7 0 1.1 0 .6 0 1.2.1 1.8.3 1.1.3 2.1.8 3 1.4.3.2.5.3.7.5.1 0 .2 0 .2-.1.1-.5.3-1.1.4-1.7.2-.7.4-1.5.5-2.3V9l-.1-.1z"/><path d="M30.8 42.5h.3-.3z" fill="#1a1a1a"/><path d="M30.2 42.5h.2-.2z" fill="#bababa"/><path d="M30.4 42.5h.2-.2z" fill="#858585"/><path d="M31.5 42.5h.2-.2z" fill="#363636"/><path d="M30.7 42.5h.1-.1z" fill="#3d3d3d"/><path d="M12.2 19.8l-.4 3.4 23.8.3.6-3.7zm0 6.2l-.4 3.5 22.5.2.6-3.7z" fill="#06df86"/></svg>