<svg xmlns="http://www.w3.org/2000/svg" viewBox="0 0 50 50"><path d="M17.8 18.6c.7-2.3 1.9-4.3 3.7-5.9 3.5-3.1 8.8-3.1 12.3 0 1.3 1.2 2.3 2.7 2.9 4.4.5 1.6 2.1 2.5 3.7 2.1 1.7-.2 2.9-1.8 2.7-3.6-.1-.4-.2-.7-.3-1C41.6 12.2 40 10 38 8.3c-6.1-5.2-15-5.2-21.1 0-3 2.7-5 6.3-5.8 10.3h6.7z" fill="#06df86"/><path d="M40.1 31.7c-1.5-.3-2.9.5-3.5 1.9-.7 1.7-1.7 3.2-3 4.4-3.5 3-8.6 3-12.1 0-1.8-1.6-3.1-3.6-3.8-5.9h10.9c1.3 0 2.3-1 2.3-2.3 0-1.2-1-2.3-2.3-2.3h-12V23h12c1.3 0 2.4-1.1 2.4-2.4s-1.1-2.4-2.4-2.4H6.3c-1.3 0-2.4 1.1-2.4 2.4S5 23 6.3 23h3.8v4.7H6.3c-1.2 0-2.3 1-2.3 2.2 0 1.3 1 2.3 2.3 2.3h4.5c.8 4 2.9 7.6 5.9 10.4 6.1 5.1 15 5.1 21 0 2-1.7 3.7-3.9 4.7-6.4.8-1.5.2-3.5-1.3-4.3-.3-.2-.6-.2-1-.2z" fill="#191b28"/></svg>