<svg xmlns="http://www.w3.org/2000/svg" viewBox="0 0 32 39"><defs><style>.cls-1{fill:#191b28}.cls-2{fill:#06df86}</style></defs><g id="Calque_2" data-name="Calque 2"><g id="Calque_1-2" data-name="Calque 1"><path class="cls-1" d="M23.5 18.46h-9.21a1.25 1.25 0 010-2.5h9.21a1.25 1.25 0 010 2.5zm0 6h-9.21a1.25 1.25 0 010-2.5h9.21a1.25 1.25 0 010 2.5zm0 6h-9.21a1.25 1.25 0 010-2.5h9.21a1.25 1.25 0 010 2.5z"/><circle class="cls-2" cx="8.69" cy="23.21" r="1.78"/><circle class="cls-2" cx="8.69" cy="17.21" r="1.78"/><circle class="cls-2" cx="8.69" cy="29.21" r="1.78"/><path class="cls-1" d="M27.5 39h-23A4.51 4.51 0 010 34.5v-30A4.51 4.51 0 014.5 0H21v3H4.5A1.5 1.5 0 003 4.5v30A1.5 1.5 0 004.5 36h23a1.5 1.5 0 001.5-1.5V12h3v22.5a4.51 4.51 0 01-4.5 4.5z"/><path class="cls-2" d="M32 12h-3V9.52a1.51 1.51 0 00-.48-1.1l-3-2.82-2.2-2.16A1.52 1.52 0 0022.26 3H21V0h1.26a4.53 4.53 0 013.18 1.32l2.12 2.12 3 2.79A4.49 4.49 0 0132 9.52z"/><path class="cls-2" d="M31 12h-7.12A3.88 3.88 0 0120 8.12V0h3v8.12a.87.87 0 00.88.88H31z"/></g></g></svg>