<svg version="1.1" id="Calque_1" xmlns="http://www.w3.org/2000/svg" x="0" y="0" viewBox="0 0 275.1 218.9" xml:space="preserve"><style>.st1{fill:#858da1}.st2{fill:#474745}.st7{fill:none;stroke:#535352;stroke-width:.75;stroke-miterlimit:10}.st9{fill:#fff}.st11{fill:#e6e6e6}.st13{fill:#191b28}.st14{fill:#06df86}</style><g id="Calque_2_1_"><path d="M45.5 13.5C43.2 15 33.1 20.6 25.4 29c-11 11.9-11 15.8-16.3 26.9-4.5 9.6-7.2 19.9-8 30.5-.7 10.8.5 21.7 3.7 32.1 4.6 16.3 9.5 21.1 15.5 32.1 7.8 14.3 14.9 18.8 28.5 37.1 3.6 4.9 7 10.4 12.5 14.9 5 4 32.3 20.1 69.1 15.5 26.1-3.3 48.4-6.1 76.2-18.6 19.1-8.6 35.9-16.4 50.3-34.4 5.7-7.2 16.3-20.8 18.6-41.2 2.3-20.1-4.7-35.4-8.2-43.2-3.3-7.3-10.3-22.1-26.5-33.9-5.1-3.7-14.5-10.5-28.1-12.7-13.2-2.2-16.7 2.3-29.7-1.1-4.8-1.2-10.8-4.4-22.6-10.6-15.8-8.3-15.2-8.8-21.4-11.8-6.7-3.2-25.7-12-49.5-10.3-9.7.6-36.9 8.6-44 13.2z" opacity=".7" fill="#06df86" id="Calque_1-2"/></g><path class="st1" d="M127.7 102.9c-.5.2-1 .6-1.4.9-2.5 2.2-2.5 2.1-3.5 2.9-1.5 1.3-1.8 1.8-3.5 3.2-3.7 3.2-4.6 3.7-7.6 6.8-1.8 1.9-3.5 2.9-4.9 4.4-.4.7-.4 1.5 0 2.2.5.4-.1.5.5.7 2 .9 5.8.3 6.5 0l18.7-21.4c-.8-.1-2.6.2-4.6.2-.2.1-.1.1-.2.1z"/><path class="st2" d="M221.5 121.6l11.8-.2-13.4-19.5h-10z"/><path class="st1" d="M209.9 101.9h-30.2l2.7 20.4 39.5-.7z"/><path class="st2" d="M179.7 102.2l3 20.9h-9.3l1.6-20.7z"/><path class="st1" d="M121.9 124.1l51.5-1.3 1.9-20.9-37.9.8z"/><linearGradient id="SVGID_1_" gradientUnits="userSpaceOnUse" x1="465.766" y1="-510.898" x2="465.766" y2="-523.818" gradientTransform="rotate(180 309.565 -193.5)"><stop offset="0" stop-color="#1b5dc5"/><stop offset=".29" stop-color="#2163cb"/><stop offset=".68" stop-color="#3274dc"/><stop offset="1" stop-color="#4487ef"/></linearGradient><path d="M59.2 163.1l4.9-.1c0-3.1.6-6.1 1.6-9 1-2.7 2.4-5.2 4.4-7.3 1.4-1.5 2.4-3.4 6.7-5.1 4.7-1.8 8.1-2 9.9-1.7 3.6.4 7.1 1.9 9.9 4.1 3.8 3.1 7.6 8.6 7.2 12.6-.1 1.1 0 2.1.2 3.2.3 1.4 1.2 2.6 2.3 3.4.3.2.6.4.9.5l94.3-.5c.8-.6 1.5-1.5 1.9-2.4.9-1.7 1.9-2.9 2.1-4.1.6-3.6 1.3-6.4 2.8-8.3 1.7-2.7 4.2-4.9 7.2-6.3 1.5-.7 4-2.5 8.1-2.4 3.1.1 6.1.9 8.8 2.4 1.9 1 7.8 3.9 9.9 10.2.1.3.2.6.2.7h5.1c.1-1.1.5-10.5-3.5-12.2-.5-.1-.9-.2-1.4-.2.2-.4.3-.8.5-1.2 1.1-6.6-.8-15-6-17.5-.3-.1-.5-.8-1.1-.9l-128 3.2h-.2l-.7-.2-.5-.7.2-1.9c-4.5.3-23.4 1.6-35.8 7.1-3.5 1.4-6.6 3.6-9 6.6-1.2 1.7-2.2 3.6-3 5.5" fill="url(#SVGID_1_)"/><path d="M250.1 151.3h-4c-.5-.1-1-.4-1.4-.7-.4-.4-.7-.9-.9-1.5-.7-1.4-1.6-2.6-2.5-3.9-1.4-1.8-3.2-3.3-5.3-4.4-5.9-3.7-13.3-3.9-19.4-.7-3.4 1.7-6.3 4.3-8.3 7.5-1 1.6-3.1 4.9-3.2 8 0 .9-.2 1.8-.5 2.7-.3 1.1-1 2.1-1.9 2.9-.2.2-.4.3-.7.5l-91.3.3c-.5 0-.9-.1-1.4-.2-1.8-.5-2.9-2.3-2.5-4.1.1-1.7-.4-3-1.4-5.6-.8-2.2-2-4.2-3.5-6.1-1.6-1.9-3.4-3.4-5.6-4.6-2.3-1.4-4.9-2.4-7.6-2.9-3.3-.6-6.7-.3-9.9.7-3.1 1.1-5.8 3-8.1 5.4-3.9 4.2-6.2 9.6-6.5 15.3v1.2H60v2c0 .6.2 1.2.5 1.7.6 1 1.5 1.5 3.2 2.4l.5.2H71c-.7-2-1-4.2-.9-6.3.1-1.7.4-3.5.9-5.1.9-3.4 2.8-6.5 5.5-8.8 2.7-2.4 6.2-3.6 9.7-3.4 3 .2 5.9 1.2 8.3 2.9 2.4 1.5 4.3 3.6 5.6 6.1 1.1 2.2 1.4 5.3 1.6 8.3.2 2.1-.5 3.2-.9 5.6-.3.4.2 1 0 1.2h110.4l-.5-1.2c-.4-.9-.3-2.5-.7-4.1-.4-2-.3-4.1.2-6.1.3-1.9 1.1-3.8 2.3-5.3 1.2-1.8 2.7-3.5 4.4-4.9 1.4-1.3 3.1-2.2 4.9-2.9 2.7-.9 5 .2 6.5.5 2.3.3 4.6 1.1 6.5 2.4 2 1.3 3.6 3.2 4.6 5.4 1.7 3.6 2.6 7.6 2.5 11.7v1.7c1.6-.4 3.1-1.2 4.4-2.2 1.9-1.3 3.2-3.2 3.9-5.3" fill="#535352"/><path class="st2" d="M89.4 144c3.2.7 6.1 2.3 8.3 4.6 2.2 2.5 3.5 5.7 3.9 9 .6 3.4.3 6.8-.9 10-1.7 4-5 7.3-9 9-7 3.4-15.4 1-19.4-5.6-2-3.3-2.9-7.2-2.5-11 .2-4.3 1.8-8.4 4.6-11.7 2.1-2.5 4.9-4.2 8.1-4.9 2.3-.3 4.7-.1 6.9.6zm139.9-.5c3.2.6 6.1 2.3 8.3 4.6 2.2 2.5 3.5 5.7 3.9 9 .6 3.4.3 6.8-.9 10-1.7 4-5 7.3-9 9-6.9 3.4-15.3 1-19.4-5.6-2-3.3-2.9-7.1-2.5-10.9.2-4.3 1.8-8.4 4.6-11.7 2.1-2.5 4.9-4.2 8.1-4.9 2.3-.4 4.7-.2 6.9.5z"/><path d="M82.7 148.6c.8-.1 1.6-.2 2.4-.2 6.5-.2 12 4.9 12.2 11.5.1 2.8-.8 5.5-2.6 7.7-1.2 2.1-3.1 3.7-5.3 4.6-2.4.8-5 .7-7.4-.2-2.5-.8-4.6-2.5-6-4.6-1.3-2.1-2-4.6-1.9-7.1 0-2.7.9-5.3 2.6-7.5 1.5-2.1 3.6-3.5 6-4.2zm148.3.9c4.2 2 6.7 6.5 6.2 11.2-.2 2.3-1.1 4.5-2.5 6.4-1.2 2.1-3.1 3.7-5.3 4.6-2.4.8-5 .8-7.4-.2-2.5-.8-4.6-2.4-6-4.6-1.3-2.1-2-4.6-1.9-7.1 0-2.7.9-5.3 2.5-7.5 1.5-2 3.6-3.5 6-4.2 2.9-.6 5.9-.1 8.4 1.4z" fill="#eee"/><path d="M238.3 124.4h-1.6l-.9.2-.5.7-.2.7v1.5l.7 6.3c0 .7 0 1.3.2 1.9.3 1 1 1.9 1.9 2.4.5.4 1.2.5 1.9.5.8 0 1.5-.5 1.9-1.2.1-.3.1-.6 0-.9-.4-1.6.2-1.5-.9-9-.1-.5-.2-1-.5-1.5-.7-.8-1.8-1.8-2-1.6" fill="#9f000d"/><path class="st7" d="M171.3 162.5c4.4-10.2 6.7-26.7 6.7-40.1m-65.3 40.2c-1.3-10.8 1.3-26.7 5.2-39"/><path class="st2" d="M113.8 124.1l8.3-.3 16.4-21.4h-5.8z"/><path d="M184.7 98.5c-12.8.3-25.2.7-37.2 1.5-7.1.3-12.3.7-14.6.7-1.1 0-2.2.3-3.2.7-.8.4-1.5.9-2.1 1.4l94.3-1 3.7-3.2" fill="#1b5dc5"/><path class="st7" d="M106.9 123.1c-11.8 1.4-27.8 8.5-40 16.3"/><path class="st9" d="M59.3 143.1c-.1-.5-.2-1.6.7-3.9.8-1.9 1.9-3.6 3.2-5.1 1.4-1.5 2.1-2.2 3.2-2.4 1.2-.2 2.5.2 3.2 1.2.7 1.1.1 2.5-.5 4.1-1.1 2.9-3.1 5.3-5.8 7-1.8 1.2-2.6 1.2-3 .9-.5-.4-.9-1.1-1-1.8"/><path d="M48.4 23.4l69.1.3-.2 9.5c-.1 4 3.1 68.2 3.1 88 0 3.1-2.5 5.6-5.6 5.6l-63.3-.2c-2.8 0-5-2.2-5-5v-.3L44.8 27c.2-2.1 1.7-3.6 3.6-3.6z" fill="#b3b3b3"/><path class="st11" d="M51.5 25l70.7.4c-.9 3.1-1.5 6.2-1.8 9.4-.1 4 3 68.3 3.1 88.1 0 3.1-2.5 5.6-5.6 5.6h-.1l-63.3-.2c-2.8 0-5-2.2-5-5v-.3L48 28.5c.1-1.9 1.6-3.5 3.5-3.5z"/><path d="M110.4 28.4l-73.9-.5s4.8 5.8 4.8 9.4c0 4 2.9 65 1 84.7-.3 3.1 1.9 5.8 5 6.1l63 5.9c2.8.2 5.2-1.8 5.4-4.5v-.3l-2-97.3c.1-1.9-1.4-3.5-3.3-3.5z" fill="#f2f2f2"/><path class="st13" d="M66.5 50.8l42 .3c.3 0 .6.3.6.6s-.3.6-.6.6l-42-.3c-.3 0-.6-.3-.6-.6 0-.4.3-.6.6-.6z"/><path class="st9" d="M66.5 53.4l20.4.1c.3 0 .6.3.6.6s-.3.6-.6.6l-20.4-.1c-.3 0-.6-.3-.6-.6s.3-.6.6-.6zm-12.7-7.2c-3.7 0-6.7 3-6.7 6.6s3 6.7 6.6 6.7c3.7 0 6.7-2.9 6.7-6.6.1-3.6-2.9-6.6-6.6-6.7z"/><path class="st13" d="M58.4 49.7c-.3-.3-.7-.3-1 0l-5.1 5.1.9 1 5.1-5c.3-.3.4-.8.1-1.1z"/><path class="st14" d="M52.3 54.8l-.1-.1-2-2.1c-.1-.1-.3-.2-.5-.2-.4 0-.7.3-.7.6 0 .2.1.3.2.5l2.6 2.7c.3.3.7.3.9 0l.5-.5-.9-.9z"/><path class="st13" d="M66.4 66.5l42 .3c.3 0 .6.3.6.6s-.3.6-.6.6l-42-.3c-.3 0-.6-.3-.6-.6s.3-.6.6-.6z"/><path class="st9" d="M66.4 69.2l20.4.1c.3 0 .6.3.6.6s-.3.6-.6.6l-20.4-.1c-.3 0-.6-.3-.6-.6 0-.4.2-.6.6-.6zM53.7 62C50 62 47 64.9 47 68.6s2.9 6.7 6.6 6.7c3.7 0 6.7-2.9 6.7-6.6.1-3.7-2.9-6.7-6.6-6.7z"/><path class="st13" d="M58.3 65.4c-.3-.3-.7-.3-1 0l-5.1 5.1 1 1 5.1-5.1c.3-.2.3-.6 0-1 0 .1 0 .1 0 0z"/><path class="st14" d="M52.2 70.5l-.2-.1-2-2.1c-.1-.1-.3-.2-.5-.2s-.3.1-.5.2c-.1.1-.2.3-.2.5s.1.3.2.5l2.6 2.7c.3.3.7.3.9 0l.5-.5-.8-1z"/><path class="st13" d="M66.6 35l42 .3c.3 0 .6.3.6.6s-.3.6-.6.6l-42-.3c-.3 0-.6-.3-.6-.6s.3-.6.6-.6z"/><path class="st9" d="M66.6 37.7l20.4.1c.3 0 .6.3.6.6s-.3.6-.6.6l-20.4-.1c-.3 0-.6-.3-.6-.6 0-.4.3-.6.6-.6zm-12.7-7.2c-3.7 0-6.7 2.9-6.7 6.6 0 3.7 2.9 6.7 6.6 6.7 3.7 0 6.7-2.9 6.7-6.6.1-3.7-2.9-6.7-6.6-6.7z"/><path class="st13" d="M58.5 33.9c-.3-.3-.7-.3-1 0L52.4 39l1 .9 5.1-5c.3-.2.3-.6 0-1 0 .1 0 0 0 0z"/><path class="st14" d="M52.4 39l-.1-.1-2-2.1c-.1-.1-.3-.2-.5-.2s-.4.1-.5.2c-.1.1-.2.3-.2.5s.1.3.2.5l2.6 2.7c.3.3.7.3.9 0l.5-.5-.9-1z"/><path class="st13" d="M66.5 99.1l42 .3c.3 0 .6.3.6.6s-.3.6-.6.6l-42-.3c-.3 0-.6-.3-.6-.6s.3-.6.6-.6z"/><path class="st9" d="M66.5 101.8l20.4.1c.3 0 .6.3.6.6s-.3.6-.6.6l-20.4-.1c-.3 0-.6-.3-.6-.6 0-.4.2-.6.6-.6zm-12.7-7.2c-3.7 0-6.7 3-6.7 6.6 0 3.7 3 6.7 6.6 6.7 3.7 0 6.7-3 6.7-6.6.1-3.7-2.9-6.7-6.6-6.7z"/><path class="st13" d="M58.4 98c-.3-.3-.7-.3-1 0l-5.1 5.1.9.9 5.1-5c.3-.2.4-.6.1-1 0 .1 0 .1 0 0z"/><path class="st14" d="M52.3 103.1l-.1-.1-2-2.1c-.1-.1-.3-.2-.5-.2s-.4.1-.5.2c-.1.1-.2.3-.2.5s.1.3.2.5l2.6 2.7c.3.3.7.3.9 0l.5-.5-.9-1z"/><path class="st13" d="M66.4 114.9l42 .3c.3 0 .6.3.6.6s-.3.6-.6.6l-42-.3c-.3 0-.6-.3-.6-.6 0-.4.3-.6.6-.6z"/><path class="st9" d="M66.4 117.5l20.4.1c.3 0 .6.3.6.6s-.3.6-.6.6l-20.4-.1c-.3 0-.6-.3-.6-.6s.2-.6.6-.6zm-12.7-7.2c-3.7 0-6.7 2.9-6.7 6.6 0 3.7 2.9 6.7 6.6 6.7 3.7 0 6.7-2.9 6.7-6.6.1-3.6-2.9-6.6-6.6-6.7z"/><path class="st13" d="M58.3 113.8c-.3-.3-.7-.3-1 0l-5.1 5.1 1 1 5.1-5.1c.3-.3.3-.7 0-1z"/><path class="st14" d="M52.2 118.8l-.1-.1-2-2.1c-.1-.1-.3-.2-.5-.2s-.3.1-.5.2c-.1.1-.2.3-.2.5s.1.3.2.5l2.6 2.7c.3.3.7.3.9 0l.5-.5-.9-1z"/><path class="st13" d="M66.6 83.4l42 .3c.3 0 .6.3.6.6s-.3.6-.6.6l-42-.3c-.3 0-.6-.3-.6-.6 0-.4.3-.6.6-.6z"/><path class="st9" d="M66.6 86l20.4.2c.3 0 .6.3.6.6s-.3.6-.6.6l-20.4-.1c-.3 0-.6-.3-.6-.6 0-.4.3-.7.6-.7zm-12.7-7.2c-3.7 0-6.7 2.9-6.7 6.6 0 3.7 2.9 6.7 6.6 6.7 3.7 0 6.7-2.9 6.7-6.6.1-3.6-2.9-6.6-6.6-6.7z"/><path class="st13" d="M58.5 82.3c-.3-.3-.7-.3-1 0l-5.1 5.1 1 .9 5.1-5c.3-.3.3-.7 0-1z"/><path class="st14" d="M52.4 87.3l-.1-.1-2-2.1c-.1-.1-.3-.2-.5-.2-.4 0-.7.3-.7.6 0 .2.1.3.2.5l2.6 2.7c.3.3.7.3.9 0l.5-.5-.9-.9z"/><path class="st11" d="M74.1 90.1l39.4.3c-.5 1.4-.8 2.8-1 4.3 0 1.8 1.9 31.3 1.9 40.4-.2 1.6-1.5 2.7-3.1 2.6l-35.3-.3c-1.4.1-2.6-.9-2.8-2.3v-.1l-1.1-43.3c.2-1 1-1.7 2-1.6z"/><circle class="st14" cx="96.9" cy="119" r="5.5"/><circle class="st14" cx="83.6" cy="102.1" r="2.8"/><path d="M99.1 132.9c-.7.2-1.5-.2-1.7-.9l-.7-2.6c0-.1-.1-.3-.1-.4-.5 0-1-.1-1.4-.1 0 .2-.1.4-.2.5l-1.3 2.3c-.4.6-1.2.9-1.8.5l-3-1.7c-.6-.4-.9-1.2-.5-1.8l1.3-2.3c.1-.1.1-.2.2-.3-.5-.5-.9-1-1.3-1.6-.1.1-.2.1-.3.2l-2.6.7c-.7.2-1.5-.2-1.7-.9l-.9-3.3c-.2-.7.2-1.5.9-1.7l2.6-.7h.4c0-.7.1-1.4.3-2.1-.1 0-.2-.1-.4-.1l-2.4-1.3c-.6-.3-.9-1.2-.5-1.8l1.7-3c.4-.6 1.2-.9 1.8-.5l2.4 1.3c.2.1.3.2.4.4.4-.3.7-.6 1.1-.8-.1-.1-.1-.2-.2-.4l-.7-2.6c-.2-.7.2-1.5.9-1.7l3.3-.9c.7-.2 1.5.2 1.7.9l.7 2.6c0 .1.1.3.1.4.4 0 .9.1 1.3.1 0-.2.1-.4.2-.5l1.3-2.3c.4-.6 1.2-.9 1.8-.5l3 1.7c.6.4.9 1.2.5 1.8l-1.3 2.3c0 .1-.1.2-.2.2.5.5 1 1 1.4 1.6.1-.1.2-.1.3-.1l2.6-.7c.7-.2 1.5.2 1.7.9l.9 3.3c.2.7-.2 1.5-.9 1.7l-2.6.7c-.1 0-.2 0-.3.1 0 .7-.1 1.4-.3 2.1.1 0 .2.1.3.1l2.4 1.3c.6.4.9 1.2.5 1.8l-1.7 3c-.4.7-1.2.9-1.8.5l-2.4-1.3c-.2-.1-.3-.2-.4-.3-.3.3-.7.6-1.1.8.1.1.1.3.2.4l.7 2.6c.2.7-.2 1.4-.9 1.7l-3.3.7zm-.8-9.1c-2.7.8-5.4-.8-6.2-3.4-.8-2.7.8-5.4 3.4-6.2 2.7-.8 5.4.8 6.2 3.4.8 2.7-.8 5.4-3.4 6.2zm-16.4-13.9c-.4 0-.7-.4-.7-.8l.1-1.5c0-.1 0-.2.1-.2-.2-.1-.5-.2-.7-.4 0 .1-.1.2-.2.3l-1.2 1c-.3.3-.8.2-1.1-.1l-1.2-1.5c-.3-.3-.2-.8.1-1.1l1.2-1 .2-.1c-.2-.4-.3-.7-.4-1.1h-.2l-1.5-.2c-.4 0-.7-.4-.7-.8l.2-1.9c0-.4.4-.7.8-.7l1.5.1h.2c.2-.4.3-.7.6-1-.1 0-.1-.1-.2-.2l-1-1.2c-.3-.3-.2-.8.1-1.1l1.5-1.2c.3-.3.8-.2 1.1.1l1 1.2c.1.1.1.2.1.3.3-.1.5-.2.8-.2v-.2l.1-1.5c0-.4.4-.7.8-.7l1.9.2c.4 0 .7.4.7.8l-.1 1.5c0 .1 0 .2-.1.2.2.1.4.2.7.3.1-.1.1-.2.2-.2l1.2-1c.3-.3.8-.2 1.1.1l1.2 1.5c.3.3.2.8-.1 1.1l-1.2 1-.1.1c.1.4.3.7.3 1.1h.2l1.5.1c.4 0 .7.4.7.8l-.2 1.9c0 .4-.4.7-.8.7l-1.5-.2h-.2c-.2.4-.3.7-.6 1l.1.1 1 1.2c.3.3.2.8-.1 1.1l-1.5 1.2c-.3.3-.8.2-1.1-.1l-1-1.2c-.1-.1-.1-.2-.1-.3-.2.1-.5.2-.7.2v.2l-.1 1.5c0 .4-.4.7-.8.7l-1.9.1zm1.5-5c-1.5-.2-2.7-1.5-2.5-3.1.2-1.5 1.5-2.7 3.1-2.5 1.5.2 2.7 1.5 2.5 3.1-.2 1.5-1.6 2.7-3.1 2.5z" fill-rule="evenodd" clip-rule="evenodd" fill="#191b28"/></svg>