<svg version="1.1" id="Calque_1" xmlns="http://www.w3.org/2000/svg" x="0" y="0" viewBox="0 0 105 105" xml:space="preserve"><style>.st0{fill:#fefefe}.st36{fill:#6f6e6c}.st43{fill:#c4c2c3}</style><path class="st0" d="M64.5 82.3H13.6c1-2.4.9-4.9.9-7.3 0-1.2.9-1.6 1.7-1.7.9-.2 1.7-.2 2.6-.2h21.6c3.7 0 7.3.2 10.8 0 3.7-.2 7.3.5 10.8.2 1 .2 1.6.9 1.6 1.9 0 .7.3 1.4.3 2.1v3.3c.1.4.9 1 .6 1.7zm11.3 0h-1.6c-.3-.9.7-1.6.5-2.4v-3.3c.2-1.6-.2-3.1.3-4.5.5-.9 1-1.6 1.4-2.4.3-.9 0-1.6-.7-2.1-.3-.3-.7-.5-.9-1-.2-2.1-.2-4.2 0-6.3 0-.7.2-1.6 0-2.3-.2-1.7-.2-3.5-1-5.1-.2-.3-.2-.5 0-.9.3-.5 1-.3 1.6-.5 2.4-.5 5.1-.7 7.3-1.7 1.4-.7 2.6-1.9 4.2-2.1 1.6 1 2.4 2.4 3 4 .3 1.6-.2 3.1-.3 4.7-.5 1.6-2.1 2.4-3.3 3.5-1 .9-2.1 1.6-3.1 2.4-1.4 1.2-2.1 2.6-2.3 4.4-.3 3.7-1 7.1-1 10.8 0 .9 0 1.6.3 2.3-.5 1-1.6 1.4-2.4 1.6-.6.2-1.5.2-2 .9z"/><path class="st0" d="M96 82.3H84.1c.2-.9 0-1.9 0-2.8.7-2.8.7-5.8.7-8.7 0-5.2.3-4.5 4.7-6.4h.3c.7.2.9.9.9 1.4.3 2.4 1.6 4.5 3.1 6.4 1 1.2 1.9 2.6 3 3.8.7.9 1 1.7 2.4 1.7.7 0 .7.9.5 1.4-.5 1.2-1.4 2.1-2.8 2.4-.2 0-.3.2-.5.2 0 .2-.2.4-.4.6z"/><path d="M75.6 71.8c-.9 1.6-.2 3.3-.3 4.9-.2 1.2-.2 2.4 0 3.7.2.9-.7 1.4-.9 2.1h-9.8c-.2-.5-.9-.9-.9-1.6.2-1.2.2-2.4 0-3.7-.2-.7-.3-1.6-.3-2.3 0-.9-.3-1-1-1.4 1.4-.5 1.6-.2 1.4 1.6.3-.9.9-1.4 1.6-1.4.9-.2 1.7.2 2.3-.7 2.1-.2 4.2-.3 6.1.2.7.2.7 0 .9-.5-.1-.7.1-1.2.9-.9zm-59.4 1.7c-1.2.2-1.4 1-1.4 2.1v3.5c0 1.2-.3 2.3-1.2 3.1H4.2c-.2-.1-.2-.3-.4-.5-1-2.4-.3-5.1-.5-7.5 0-.7.7-1 1.2-1 3-.3 5.9-.2 8.7-.2.9 0 .9.9.9 1.4.2-1.2.7-1.4 2.1-.9z" fill="#343434"/><path d="M84.7 79.6c-.2.9 1 1.9-.3 2.8h-.5c-1.2-.2-2.4-.2-3.7 0H76c-.2-.7.2-1 .9-1 1.4 0 2.4-.7 3.7-1.4 1.1-1.4 2.5-1.1 4.1-.4z" fill="#6f5b4e"/><path d="M96 82.3c.2-.3-.2-.7.3-.9 1 .5 2.4-.2 3.5.3l.2.2v.3c-1.2.1-2.6.1-4 .1z" fill="#888887"/><path class="st0" d="M80 82.3c1.2-.5 2.4-.5 3.7 0H80z"/><path d="M2.6 66.6c-.2-3.8-.3-7.7.2-11.7.3-2.3 1.6-3.8 3-5.4.3-.3.7-.5.9-1.2-.9-.3-1.7-.5-2.6-.9-1.2-.3-1.6-1.2-1.6-2.4.2-1.2.9-1.7 2.1-1.7h2.8c1.2.2 1.6-.3 1.9-1.4 1-3.1 1.9-6.3 3.1-9.2 1-2.8 3.1-4.2 6.1-4.2h20.4c1.6 1.7 3.7 1.2 5.8 1.4 1 0 2.1-.3 3.1.3 0 .2 0 .3-.2.5-.6.3-1.1.3-1.6.3-9.2-.2-18.3 0-27.5 0-2.1.2-2.6.3-3.1 2.4-1 3.1-1.7 6.4-2.8 9.6-.5 1.4-.3 1.6 1.2 1.7h3.3c4.2-.3 8.5-.3 12.7-.7h6.3c1 0 2.1-.2 3.1.2.5.3.7.9.7 1.6 0 2.1.2 4.4 0 6.4 0 .9-.2 1.7-1 2.3-1.2.3-2.4.2-3.7.2-3.1 0-6.3-.2-9.6.2-1 .9-1.6 4.9-.5 5.8.9.9 2.3 1.2 3.5 1.4.3.2.9 0 1.2.2.9.2 1.9.5 2.8.5 1.7.3 3.7.5 5.4.7.9.2 1.7.5 1.7 1.7 0 .9-.3 1.6-1.4 1.7-.3 0-.7.2-1 .2-2.3-.2-4.4-.2-6.6-.2-3.1 0-6.3.2-9.4.2-5.6 0-11.2-.2-16.7-.2-.9.2-1.5.2-2-.3z" fill="#66d98e"/><path d="M16.2 73.5c-1.6 0-1.6 0-1.7 1.6-.2-2.1-1.6-1.6-2.8-1.6-2.3 0-4.5-.2-6.8.2-.9.2-1.2.5-1.2 1.4.2 1.7.2 3.5 0 5.2 0 .5 1 .9.2 1.4-.8-.5-.9-1.2-.9-2.1v-3c0-1.9.3-3.8-1.7-5.1-1-.7-1.7-2.1-.7-3.5.7-.7 1.6-.7 2.4-.7h27.7c4.7.2 9.4.2 14.3 0 4.4-.3 8.7-.3 13.1-.2 5.6.2 11 .2 16.6.2 1.7 0 2.4.7 2.4 2.3-.2.9-.5 1.6-1.2 2.1-1 .3-.5 1.4-.9 2.3-2.4-1.2-4.9-.5-7.5-.7-.5.5-1.4.2-1.7.5-1.2.7-1.2.7-1.7 1.6-.2-.9.3-2.1-1.4-1.7-2.8.3-5.4.2-8.2 0H26.6c-3.6-.2-7.1-.2-10.4-.2z" fill="#2d2d2d"/><path d="M38.5 54.4c.3-.3.5-.7.5-1.2v-8c0-.2-.2-.5-.3-.7.9-.9 1.9-.7 3-.7.9 0 1.7.2 2.4 0H51c3 .3 5.9.5 8.7.5.5 0 .9 0 1.4.2 1.2.3 2.3.2 3.5.2h.3c2.1 0 2.1 0 1.6-2.1-.7-3-1.4-5.8-2.3-8.7-.2-.7-.2-1.2-.7-1.7-.9-.9-2.1-1-3.3-1-3.8-.5-7.8-.2-11.9-.3-.5 0-1 0-1.4-.3h-6.6c-.9 0-1.7 0-1.7-1.2 0-.2-.3-.3-.5-.5h22.5c3.1 0 5.4 2.1 6.3 5.2.7 2.8 1.4 5.6 2.3 8.4.2.5 0 1.2.9 1.4.9 1.4 1 3 1.6 4.5 0 .5.2 1 .5 1.6.2.3.5.7.3 1.2-.5.5-.9 1-1.7 1.2-6.4-.5-11.3 2.1-14.6 7.7-.3.5-.5 1-1 1.2h-.5c-.9-.9-.9-1.9-.7-3.1s-.2-2.1-1.2-2.6c-1.2-.3-2.3-.2-3.5-.2-3.7-.2-7.1.2-10.8-.2.2-.5 0-.7 0-.8z" fill="#51c379"/><path d="M84.7 79.6c-1.4.2-3-.2-4.4.3-.2-.3-1-.2-.9-1 .5-2.3.2-4.7.5-7.1.2-1.9.9-3.8.9-5.8 0-1.7 1-3 2.4-4 1.7-1.4 3.3-2.6 5.1-4 .5-.3.9-.9 1-1.4.2 0 .2.7.7.2 2.3-.7 4.7-1.2 7.1-1.7.7-.2 1.4-.2 1.7.7.7 2.4.7 5.1-3.3 6.6-1.6 1-3.1 2.1-5.2 2.1-1 .7-2.1 1-3.3 1.6-.9.3-1.4.9-1.4 1.9 0 2.1 0 4.2-.2 6.4 0 1.6 0 3.5-.7 5.2z" fill="#957962"/><path d="M98.8 55.6s0 .2 0 0c-1.7-1-3.3.2-5.1.3-1.4.2-2.8.5-4 .9-.3-1.2.2-2.4.2-3.7 0-.5.2-1.2-.2-1.7-.7-1.4-1.6-2.6-2.8-3.7-.2-.7.5-.9.9-1.2.7-.3 1.4-.9 2.1-1.4.9-.5 1.2-1.4.7-2.3-.5-.9-1.4-1-2.4-.2-1.4 1-2.6 2.3-4 3.1-.5.3-.9.9-1.6.5.7-2.1 1.4-4.2 2.3-6.3 1.4 1 2.1 0 3.1-.7 5.4.3 10.8 5.8 10.8 10.6-.2.9 0 1.7 0 2.8 0 .2.3 0 .2 0v-.2c0-.3-.2-.7.2-.9-.2 1.7-.4 2.9-.4 4.1z" fill="#6f5c4d"/><path d="M90.3 64.5c1.7-.7 3.5-1.4 5.2-2.1.2 1.6.3 3.3.7 4.9.2 1 1 1.7 1.9 2.4 1.9 1.7 3.5 4 5.4 5.8.2.2.7.3 0 .9-.7.3.2.5.3.7 1.6 1.4 1.6 1.6-.3 2.4-1.2.7-2.3 1.6-3.3 2.4v-.2c-1-.3-2.1.3-3-.5 1.6-.5 2.6-1.7 2.8-3.5-1.2.9-1.7 0-2.4-.9-1.2-1.7-2.3-3.5-3.7-4.9-2.2-1.8-2.9-4.6-3.6-7.4z" fill="#705b4e"/><path d="M82.4 46.5c2.1-1.2 3.8-2.8 5.6-4.2 1.2-.9 2.3-.7 3 .5.5 1 .5 1.9-.7 2.6-.9.5-1.7 1-2.6 1.6-.3.2-.5.3-.7.7-1.4.3-2.4 1.6-3.8 2.1-1.4.7-2.3 0-3.1-.9-1.4-1.6-3-2.8-4.4-4.4-.2-.3-.5-.7-.7-1v-.3c.5-.7.7-1.6 1.6-1.7 1.4 1.4 2.8 2.8 4.4 4 .4.5.7 1 1.4 1z" fill="#927965"/><path d="M81.4 33.3c.3-.2.5-.3.9-.5 1.6-1.6 4.9-1.9 7-.5.7 1 .5 2.3.9 3.5-.2.2-.3.3-.7.5-.5.7-.7 1.7-1.4 2.4-.5.7-1.7.3-2.1 1.4-.3.3-.7.3-.9 0-.2-.3-.7-.5-1-.9-1-.5-1.6-1.4-1.7-2.4-.2-.5-.3-.9-.7-1.2-.1-.7.6-1.6-.3-2.3z" fill="#dca05b"/><path d="M30.5 67.8h-27c-1 0-1.9 0-3 .3.2-1.2 1.4-1 2.1-1.6 11.5.3 23.2-.2 34.7.2.5 0 .9-.3 1.2.2 0 1-.7.7-1.2.7-2.3.2-4.5-.2-6.8.2z" fill="#6e7171"/><path d="M75.1 43.6c.2.3.7.3.7.9.7 1.6.3 2.8-1.2 3.3-.9.3-1.9 1-3 .3-.3-1.6-1.2-3.1-1.2-4.7.7-.2 1.6.2 2.1-.3.9-.1 1.9-.4 2.6.5z" fill="#4ac2c0"/><path d="M76.7 41.5c-.5.5-1 1.2-1.4 1.7-.9-.2-1.7-.2-2.4-.9 0-2.4.2-2.8 2.1-3.3.2-.2.3-.2.3 0 .9.6 1 1.6 1.4 2.5z" fill="#e0b168"/><path d="M89.1 32.8c-2.3-1.6-4.7-.9-7 0-1.4-.3-.3-.9 0-1.2 1.6-.3 3.1-1.2 4.9-1 .5-.5-.7-.7-.2-1.2.2-.2.3 0 .5 0 1.2 0 2.1.5 1.9 1.7 0 .7 1.2.9.5 1.6-.1.2-.3.2-.6.1z" fill="#6c5241"/><path d="M87.3 29.3c-.2.2-.5.2-.3.3.3.2.9.2.7.9-.2.7-.7.3-1.2.3-1.4 0-2.6.3-3.8.9-.5.2-.5-.2-.7-.2-.2-1 .3-1.6 1.2-1.9 1.5-.5 2.9-.8 4.1-.3z" fill="#7f6d51"/><path d="M84 39.4c.9-.3.9 1 1.7.7.5-.5 1-.9 1.9-.3-.2.3-.3.7-.5.9-.9 1-1.7 1-2.6-.2.2-.6-.3-.8-.5-1.1z" fill="#dab77f"/><path d="M89.1 32.8h.7c.7 1 .9 1.9.2 3-1.1-.9-.8-2-.9-3z" fill="#ab8d55"/><path d="M81.4 33.3c.3.2 1-.2 1 .3-.2.7.2 1.7-.7 2.1-.7-.7-1-1.5-.3-2.4z" fill="#af8e5b"/><path d="M72.8 42.3c.9.2 1.7.5 2.4.9v.3c-.9-.3-1.9 0-2.6-.7.1.1.1-.3.2-.5z" fill="#f8f5eb"/><path d="M87.7 39.6c-.7-.2-1.2.2-1.9.3-.3-.5.2-.7.5-.7.5-.2 1-.3 1.6-.5.2-.2.3-.2.3 0-.2.3-.4.7-.5.9z" fill="#b98d4e"/><path d="M88.2 38.7h-.3c.5-.7.7-1.7 1.4-2.4-.2.8-.2 1.9-1.1 2.4z" fill="#ae8d5e"/><path d="M75.1 39h-.3c.3-.9.9-1.6 1.6-2.6-.1 1.2-.9 1.8-1.3 2.6z" fill="#858482"/><path d="M98.6 51.9c0 .3-.2.7-.2 1-.2-.9-.3-1.7 0-2.6.1.6.1 1.1.2 1.6z" fill="#483d35"/><path d="M63.6 77.2c.5 1.2.5 2.4 0 3.7-.2-1.3-.2-2.5 0-3.7z" fill="#0d0d0d"/><path d="M38.5 66.9c-.3 0-.9 0-1.2-.2.3-.5 1.2 0 1.6-.7.5-1 .2-1.7-1.2-2.3.2-.3.5-.3.9-.3 4.9.2 9.8-.7 14.5-1.9.7-.2 1.4-1 2.3-.7h.2c.9 1.7 2.3 2.1 4 1.9 2.3-.2 4.4 0 6.6 0 1.7.7 3.1-.3 4.7-.5 1.2-.7 2.1-1.9 2.6-3.3 0-.2.2-.2.2-.3 0-.2.2-.2.2-.3.5-.7.9-1.4 1.7-.5v9.1c-.5.7-1.2.5-1.9.5-4 0-8-.2-11.9-.2-7-.2-13.8.2-20.7.2-1.2-.1-1.9 0-2.6-.5z" fill="#51c278"/><path d="M38.5 66.9h5.6c5.8 0 11.7-.3 17.4-.2 4.5.2 9.1.2 13.6.2 1.2.5 2.1 1.4 1.6 2.8-.2-1.4-.9-1.9-2.3-1.9h-6.3c-7 0-13.8-.7-20.7-.2-5.6.3-11.3.2-16.9.2 2.1-.5 4.4-.2 6.6-.3.5-.1 1.2.3 1.4-.6z" fill="#505253"/><path d="M80 48.6c.9.7 1.9 1.4 3.1 1.2-.2.5-.7.5-1 .7-2.3.3-4.4.9-6.6 1.2-1.2-.2-1.4-1-1.2-2.1 1.7-.6 3.6-1.3 5.7-1z" fill="#6d5b4d"/><path d="M75.3 57.9c-1-.7-1.2.3-1.6.9-.9-1.2-.2-2.8-.5-4.2-.2-.7-.3-1.2-.9-1.7-.3-.3-1-.5-1-1.2.5-.3 1-.7 1.4-1 .7.3 1.4.7 1.2 1.6.9 1.6 1.6 3.5 1.4 5.6z" fill="#4e958b"/><path d="M74.1 52.1c-.3-.5-.9-1-1.2-1.6-.2-.3-.3-.5-.5-.9.9-.5 1.6-.3 2.1.3.3.7.3 1.6 1.2 1.9-.8.5-1.3.1-1.6.3z" fill="#d3b073"/><path d="M89.7 51.6c.7.3.5.9.5 1.4-.2 1.4-.3 2.6-.3 4-.5.2-.2-.3-.3-.3-.2-1.8.3-3.5.1-5.1z" fill="#615346"/><path d="M75.1 80.2c-.3-1.2-.3-2.4 0-3.7v3.7z" fill="#171717"/><path d="M97.1 81.4c.9.7 2.1 0 3 .5-1 0-1.9 0-3 .2-.3 0-.7-.2-.7-.5.1-.2.3-.2.7-.2z" fill="#55493f"/><path d="M65.5 73.9c-.3-.3-.2-.5.2-.5h1.6c-.2 1.2-1.1.5-1.8.5z" fill="#4c4c4c"/><path d="M14.3 79.3v-2.6h.2c0 .9 0 1.7-.2 2.6z" fill="#131313"/><path class="st0" d="M5 53c1.2-1.9 3.3-1.7 5.1-1.4 5.6.7 9.4 3.8 12 8.7.9 1.6 0 3-1.9 3h-7.7c-1-.2-1.9-1-2.6-1.7-1.9-2.1-3.7-4.2-4.4-7.1.2-.6-.1-1.2-.5-1.5z"/><path class="st36" d="M29.3 44.4c-4.4.2-8.7.3-13.1.7-.9-1.4-.3-2.8.3-4 1.4-2.1 3.1-3.1 5.8-3 2.4.2 5.1 0 7.5 0 1.9 0 3.5.5 4.5 2.1.2.5 0 .9-.3 1-1.6 1.1-2.8 2.5-4.7 3.2z"/><path d="M38.5 63.8h-.9c-1.7-.2-3.7-.3-5.4-.7-.9-.5-1.9-.3-2.8-.5-1.7.3-3-.9-4.4-1-.7-.2-.9-1-1-1.7 0-1.2.3-2.4 0-3.7-.2-.5.2-1 .9-1.4 4-.2 8.2-.2 12.2-.2.5 0 1-.2 1.6.2.9.9.2 1.2-.5 1.4-1 .2-2.1 0-3.1 0h-7.9v.2h10.1c.9 0 1.9 0 1.4 1.4-.7.3-1.4.2-2.3.2h-8.7 9.2c.5 0 1-.2 1.6.2.2.3.2.7 0 1-.5.3-1 .3-1.6.3H28h8.9c.5 0 1-.2 1.6.3.5 1.2.7 2.6 0 4z" fill="#747473"/><path d="M16.9 41.1c-.7 1.2-.7 2.6-.7 3.8h-4c-1 0-1.4-.3-1-1.4.7-2.4 1.4-4.7 2.1-7.1.3-1.2.7-2.4 1-3.7.5-1.6 1.2-2.3 3.1-2.3.5.3 1.2.2 1.9.2h14.8c.5.2.3.5.2.9-.5.9-1.4 1-2.3 1H21.7c-3 0-4.7 1.2-5.6 4-.2.3-.2.7-.3 1.2-.9 1.7-.9 1.9.9 2.8.4.5.4.5.2.6z" fill="#b9bbba"/><path d="M5 53c.9-.2.9.3 1 1 .9 4 3.5 6.8 6.6 9.2-1.4 0-2.8.2-4.2-.2-2.4-.7-4.4-3-4.2-5.4 0-1.7-.5-3.4.8-4.6z" fill="#f6e0aa"/><path d="M44.3 44.1c-1.7.5-3.7-.2-5.4.3h-3c-.7-1-1-2.3-1-3.5 1.7-.5 3.5-.5 5.2-.3 2.1.2 4.4 0 6.4.2.5.9-.2 1.6-.5 2.3-.7.5-1.4.6-1.7 1z" fill="#fbfcfc"/><path d="M34.5 31.2H19c-.5 0-1.2.3-1.6-.5H47s0 .2.2.2c-.3 1-1.2 1.4-2.3 1.2-2.6-.7-5.4-.2-8-.3-.7-.3-1.5.1-2.4-.6z" fill="#cab8c3"/><path d="M34.8 40.8c.5 1.2.9 2.3 1 3.7h-6.4c1.4-1.6 3.3-2.6 4.9-3.8 0-.2.2-.2.3 0 .1-.1.2-.1.2.1z" fill="#8c8c8a"/><path class="st43" d="M47.4 30.3c4.5 0 9.1-.2 13.6.2-.2 1.4-1.2 1.6-2.1 2.1-.9 0-1.7.3-2.4-.3 0-.5.3-.7.5-1.2h-7.3c-.7 0-1.6.2-2.1-.3-.4-.3-.4-.5-.2-.5z"/><path d="M38.5 54.7H28c-.7 0-1.2-.2-1.9.3-.5.5-.9-.5-1.4-.3.5-.5 1-.3 1.6-.3 4 0 8 0 12.2-.2v.5z" fill="#547171"/><path d="M29.3 62.6c.9 0 1.9-.3 2.8.5-.9.2-2 0-2.8-.5z" fill="#478171"/><path class="st0" d="M71.3 51.6c.3.3 1 .5 1.2 1-.9 4.4-3.3 7.7-6.4 10.5-2.8 0-5.6 0-8.4.2-1.7 0-2.3-.5-2.6-2.4 1.6-2.6 3.3-5.2 5.9-6.8 3.1-2.2 6.4-3 10.3-2.5z"/><path d="M38.5 57.5c.2-1-.5-.9-1.2-.9H26.7c-.3 0-1.2.5-1-.5.5.3 1 .2 1.6.2h24.2-24.2c-.5 0-1 .2-1.6-.2.5-.5 1-.3 1.6-.3h10.3c.7 0 1.2 0 .9-.9 3-.3 6.1-.2 9.1-.2 1.9 0 4-.2 5.9.2 1 .7 1.4 1.6 1 2.6-.3 1.2 0 2.3.3 3.3-2.1 1.7-4.9 1.7-7.3 2.3-3.1.5-6.1 1-9.2.7v-4.2c.5-.5 1.2-.3 1.7-.3h10.5-10.6c-.5 0-1 .2-1.6-.3v-.9c.5-.5 1.2-.3 1.7-.3h11-11.2c-.2.1-.9.2-1.3-.3z" fill="#595858"/><path d="M64 31.7c.5.2.5.9.7 1.2.9 3.5 1.7 7 2.6 10.5.3 1.4 0 1.9-1.4 1.6h-1c-.7-1.6-.7-3.3-1.6-4.7-.3-2.1-1-4.2-2.3-6.1.7-1.3 1.6-2 3-2.5z" fill="#bbbabb"/><path d="M63.6 40.3c.9 1.4 1.4 3.1 1.2 4.9-1.2 0-2.4.3-3.7-.2-1-2.6-3.3-4-5.8-4.9 0-1 .7-1.4 1.4-1.7 1.2-.2 2.6-.3 3.8 0 1.5-.1 2.6.6 3.1 1.9z" fill="#6f6e6e"/><path d="M59.9 44.8c-3.1 0-6.1-.2-9.1-.5.2-1.2 1.2-1.6 1.9-2.3-1 .5-1.7 1.4-2.4 2.3h-.9c0-2.4 3-4.7 5.8-4.4.2.7.7.9 1.4 1 1.6.3 3 1 3.7 2.6 0 .4.3.9-.4 1.3z" fill="#706e6c"/><path d="M55.2 39.9c-2.8.2-4.7 1.6-5.8 4.2h-2.6c-.2-.7.5-.9.9-1.2 1.6-1.4 3-3 4.4-4.4-.7.3-1.2.3-1.7-.2.3-1 .9-1.9 1.2-3 .3-.9 1.2-1.4 2.3-1 .7.9-.2 1.2-.7 1.7-.7.7-.7 1.2.2 1.7 1 .7 2.1 0 3.1.5.2 0 .2.2.3.3-.3.5-.9 1-1.2 1.4-.2.2-.4.2-.4 0z" fill="#8e8d8c"/><path d="M74.2 50c-.7-.3-1.4-.5-2.1-.3-.2-.5-.7-.9-.7-1.6 1 0 1.9-.3 3-.7 1.4-.5 1.6-1.6 1.4-3 1.6 1.2 3 2.6 4.2 4.2-1.9.5-3.8.9-5.8 1.4z" fill="#fcfdfc"/><path d="M50.2 38.3h1.9c-1.7 1.9-3.7 3.8-5.4 5.8h-1.2c-.3-.3-.3-.9 0-1.2.3-.7.7-1.4 1-2.1.5-1.6 2.1-2.5 3.7-2.5z" fill="#716f6e"/><path d="M64 31.7c-.9.9-1.9 1.6-2.8 2.4H61c-.9-.3-1.4-1-2.3-1.6 0-.2 0-.2.2-.3.7-.7 1.6-1 2.1-1.9 1.2.2 2.3.5 3 1.4z" fill="#fafbfa"/><path d="M55.2 39.9h.3c3.5.5 5.4 2.3 5.8 4.9h-1.2c0-1.7-1.7-3.3-4-3.7-.7 0-1.9.2-.9-1.2z" fill="#5b5b59"/><path d="M53.7 54.7H38.5v-.2h14.3c.3 0 .7-.1.9.2z" fill="#395450"/><path d="M50.4 44.3c.5-1.6 1.9-2.3 3.3-3-.5 1.4-1.9 1.7-2.8 3h-.5z" fill="#8f8d8c"/><path d="M45.5 43v1.2h-1.2c0-.8.7-1 1.2-1.2z" fill="#c2c3c9"/><path d="M66 63.1c0-.7.3-1 .9-1.6 2.6-2.3 4.5-4.9 4.9-8.5 0-.5.5-.2.7-.5.5.3.9.7.9 1.4.2 1.6.2 3.1 0 4.7-.5 1.4-1.7 2.4-2.4 3.8-.9.2-1.6.3-2.4.9-1 .5-1.7.1-2.6-.2z" fill="#f5e1a6"/><path d="M70.9 62.4c-.2-.2-.5-.3-.3-.3 1.4-.9 1.7-2.3 2.8-3.3-.2 1.7-1.4 2.5-2.5 3.6zm2.5-3.7V54c.7 1.6.2 3.1.3 4.7h-.3z" fill="#e4efce"/><path d="M34.5 40.6h-.2c-.9-1.4-2.3-2.1-3.8-2.1h-7.8c-2.4-.2-4.2.9-5.6 2.8l-.2-.2c-1.9-.2-2.3-1-1.2-2.8.7-1.2.7-2.6 1.6-3.7 1.2-1.4 2.6-2.1 4.4-2.1h11c.7 0 1.4.2 1.7-.7.7 1.2 1.9 1.4 3.3 1.4 1.7 0 3.5-.2 5.2.2.9.5.3 1 0 1.2-2.8 2.2-5.4 4.4-8.4 6z" fill="#9d9d9d"/><path d="M38.5 58.9h14.3v.7H26v-.7h12.5z" fill="#2c2c2c"/><path d="M38.5 57.5c4.7 0 9.6 0 14.3.2v.5h-27v-.7h12.7z" fill="#2d302f"/><path d="M43 33.6h-7c-1.2 0-2.1-.3-1.9-1.7.2-.2.3-.3.3-.5h9.2c.7 0 1.2.2 1.6.7.2.2.3.5.2.7-.4 1.2-1 1.4-2.4.8z" fill="#6f716e"/><path d="M43 33.6c.9-.2 2.1.2 2.4-1.2.3-.3.9-.3 1.2-.3 3 0 5.9-.2 8.9.2.9.3.5.9.2 1.4-.3.5-.9.7-1.2 1.2-.2.2-.5.2-.7 0-1.4-.2-2.3.3-2.4 1.9 0 .9-.9 1.2-1.2 1.9-1.6.3-2.8 1.4-3.8 2.4-3.8.5-7.7 0-11.5 0l-.3-.3c1.7-1.7 4-3 5.9-4.5.8-1.1 1.8-1.6 2.5-2.7z" fill="#c6c6c6"/><path d="M56.1 32.4c-3.5 0-7 0-10.6-.2v-.5c.9 0 1.2-.7 1.7-1.2H58c-.7.7-1.4 1-1.7 1.7 0 .2-.2.4-.2.2z" fill="#f9fbfb"/><path d="M56.1 32.4h.3c.9-.3 1.6.2 2.4 0v.3c-.3.9-1 1.6-1.9 2.1-.2 0-.5.2-.7.2-.5 0-1.2.2-1.6-.3.1-1.2 1.3-1.4 1.5-2.3z" fill="#9d9e9c"/><path d="M25.8 55.9h27c-.7.5-1.2.3-1.7.3H27.2c-.5.1-1.1.3-1.4-.3z" fill="#251e1e"/><path d="M63.6 40.3c-1.9-2.1-4.4-2.1-7-1.7v-.2c0-.5.5-.5.9-.7.2 0 .2-.2.3-.2.9-.2 1.4-.7 1.4-1.6 0-.2 0-.3.2-.3.7-.5 1-1 1.9-1.4 1.6 1.7 2 3.8 2.3 6.1z" fill="#9e9e9e"/><path d="M54.5 34.5h1.7c.5.7-.2 1-.5 1.4-.7.7-1.6 1.4-2.3 2.1-.2.2-.3.2-.7 0-1.6-.7-1.6-.9-.3-2.1.3-.3.9-.7 1.2-1.2.6-.2.8-.2.9-.2z" fill="#6c6c6c"/><path d="M53.1 37.8c.2 0 .3 0 .5-.2 1.4-.5 2.6-.7 4 .2-.3.2-.5.3-.9.5h-2.8c-.4 0-.9 0-.8-.5z" fill="#d7d7d7"/><path class="st43" d="M61.2 34.2c-.5.7-.9 1.4-1.7 1.6-.7-.5-1.7-.7-2.4-1.2.5-.7 1-1.4 1.9-1.7.9-.1 1.5.7 2.2 1.3z"/><path class="st36" d="M26.1 37.8h-2.3c-.7-.2-1.4-.3-1.6-1.4-.2-1 .3-1.6 1.2-1.7 1.7-.3 3.7-.3 5.4 0 .7.2 1.2.7 1.2 1.6 0 .9-.5 1.4-1.4 1.6-.5-.1-1.4-.1-2.5-.1z"/><path d="M57 34.5c1 0 2.1 0 2.4 1.2v.3c-.2 1-1 1.4-1.7 1.7v.3c-1.4 0-2.6-.2-4-.2.2-.9 1.2-1 1.7-1.7.3-.5 1-.7 1-1.4.2-.2.4-.2.6-.2z" fill="#8c8c8c"/><path d="M57.7 37.8l1.7-1.7c0 1.2-.3 1.7-1.7 1.7z" fill="#6d6d6d"/></svg>