<svg version="1.1" id="Calque_1" xmlns="http://www.w3.org/2000/svg" x="0" y="0" viewBox="0 0 275.1 218.9" xml:space="preserve"><style>.st1{fill:#858da1}.st2{fill:#474745}.st7{fill:none;stroke:#535352;stroke-width:.75;stroke-miterlimit:10}.st9{fill:#fff}.st12{fill:#e6e6e6}.st14{fill:#1f2532}.st15{fill:#191b28}.st16{fill:#06df86}.st17{fill:#1f2532;stroke:#1f2532;stroke-width:.5;stroke-miterlimit:10}</style><g id="Calque_2_1_"><g id="Calque_1-2"><path d="M45.4 13.7c-2.3 1.5-12.3 7.1-19.9 15.4C14.6 40.9 14.6 44.7 9.3 55.7c-4.5 9.5-7.1 19.7-7.9 30.1-.7 10.8.5 21.5 3.6 31.8 4.5 16.1 11.8 27 18.9 37.6 9 13.3 11.2 12.8 24.6 30.9 14.2 19.3 32.1 36.1 80.7 30 25.8-3.2 47.8-6 75.4-18.4 18.9-8.5 35.5-16.2 49.7-34 5.7-7.1 16.1-20.6 18.4-40.7 2.3-19.9-4.6-35-8.1-42.7-3.3-7.2-10.2-21.9-26.2-33.5-5-3.7-14.3-10.4-27.7-12.6-13.1-2.1-16.5 2.2-29.4-1.1-4.7-1.2-10.6-4.3-22.4-10.5-15.7-8.2-15-8.7-21.2-11.7C131.1 7.7 112.3-1 88.8.7c-9.6.7-36.5 8.6-43.4 13z" opacity=".7" fill="#ffce33"/><path class="st1" d="M125.7 99.3c-.5.2-1 .5-1.4.9-2.5 2.1-2.5 2.1-3.4 2.9-1.4 1.3-1.8 1.7-3.4 3.1-3.6 3.1-4.6 3.6-7.5 6.7-1.8 1.8-3.4 2.9-4.8 4.3-.4.7-.4 1.5 0 2.2.5.4 0 .5.5.7 2 .9 5.7.3 6.4 0L130.5 99c-.8-.1-2.6.2-4.6.2-.2.1-.1.1-.2.1z"/><path class="st2" d="M218.4 117.8l11.7-.2-13.3-19.3H207z"/><path class="st1" d="M207 98.3h-29.9l2.7 20.2 39.1-.7z"/><path class="st2" d="M177.1 98.6l2.9 20.6h-9.1l1.6-20.4z"/><path class="st1" d="M120 120.2l50.9-1.2 1.8-20.7-37.4.8z"/><linearGradient id="SVGID_1_" gradientUnits="userSpaceOnUse" x1="232.034" y1="553.18" x2="232.034" y2="565.956" gradientTransform="matrix(-1 0 0 1 383.12 -433.11)"><stop offset="0" stop-color="#1b5dc5"/><stop offset=".29" stop-color="#2163cb"/><stop offset=".68" stop-color="#3274dc"/><stop offset="1" stop-color="#4487ef"/></linearGradient><path d="M58 158.8l4.8-.1c0-3 .6-6 1.6-8.9.9-2.7 2.4-5.1 4.3-7.2 1.4-1.5 2.3-3.4 6.6-5 4.7-1.8 8-2 9.8-1.7 3.6.4 7 1.8 9.8 4.1 3.8 3.1 7.5 8.5 7.1 12.5-.1 1-.1 2.1.2 3.1.3 1.4 1.1 2.6 2.3 3.4.3.2.6.4.9.5l93.3-.5c.8-.6 1.5-1.4 1.8-2.4.9-1.7 1.8-2.8 2.1-4.1.6-3.5 1.2-6.3 2.7-8.2 1.7-2.7 4.2-4.9 7.1-6.2 1.5-.7 4-2.5 8-2.4 3 .1 6 .9 8.7 2.4 1.9 1 7.7 3.9 9.8 10.1.1.3.2.6.2.7h5c.1-1.1.5-10.4-3.4-12.1-.4-.1-.9-.2-1.4-.2.2-.4.3-.8.5-1.2 1.1-6.5-.8-14.8-5.9-17.3-.3-.1-.5-.8-1.1-.9l-126.6 3.2h-.2l-.7-.2-.5-.7.2-1.9c-4.5.3-23.1 1.6-35.4 7-3.5 1.3-6.6 3.6-8.9 6.5-1.2 1.7-2.2 3.5-3 5.4" fill="url(#SVGID_1_)"/><path d="M246.8 147.2h-4c-.5-.1-1-.4-1.4-.7-.4-.4-.7-.9-.9-1.5-.7-1.3-1.6-2.6-2.5-3.8-1.4-1.8-3.2-3.3-5.2-4.3-5.8-3.6-13.1-3.9-19.2-.7-3.4 1.7-6.2 4.3-8.2 7.4-1 1.6-3.1 4.8-3.2 7.9 0 .9-.2 1.8-.5 2.7-.3 1.1-1 2.1-1.8 2.9-.2.2-.4.3-.7.5l-90.3.3c-.5 0-.9-.1-1.4-.2-1.8-.5-2.9-2.3-2.5-4.1.1-1.7-.4-3-1.4-5.6-.8-2.2-2-4.2-3.4-6-1.5-1.8-3.4-3.4-5.5-4.6-2.3-1.4-4.9-2.4-7.5-2.9-3.3-.6-6.7-.3-9.8.7-3 1.1-5.8 2.9-8 5.3-3.8 4.1-6.1 9.5-6.4 15.1v1.2h-4.1v1.9c0 .6.2 1.2.5 1.7.6 1 1.5 1.5 3.2 2.4l.4.2h6.6c-.7-2-1-4.1-.9-6.3.1-1.7.4-3.4.9-5.1.9-3.4 2.8-6.4 5.5-8.7 2.6-2.3 6.1-3.6 9.6-3.4 3 .2 5.8 1.2 8.2 2.9 2.4 1.5 4.3 3.5 5.5 6 1.1 2.2 1.3 5.2 1.6 8.2.2 2.1-.5 3.2-.9 5.6-.3.4.2 1 0 1.2h109.2l-.5-1.2c-.3-.9-.3-2.5-.7-4.1-.4-2-.3-4.1.2-6 .3-1.9 1.1-3.7 2.3-5.3 1.2-1.8 2.6-3.5 4.3-4.8 1.4-1.2 3-2.2 4.8-2.9 2.7-.9 4.9.2 6.4.5 2.3.3 4.5 1.1 6.4 2.4 2 1.3 3.6 3.1 4.6 5.3 1.7 3.6 2.6 7.6 2.5 11.5v1.7c1.6-.4 3.1-1.2 4.3-2.2 1.8-1.3 3.2-3.1 3.9-5.3" fill="#535352"/><path class="st2" d="M87.9 139.9c3.1.6 6 2.2 8.2 4.6 2.1 2.5 3.5 5.6 3.9 8.9.6 3.3.3 6.7-.9 9.9-1.7 4-4.9 7.2-8.9 8.9-6.9 3.4-15.2 1-19.2-5.5-2-3.3-2.9-7.1-2.5-10.9.2-4.3 1.8-8.3 4.6-11.6 2.1-2.4 4.9-4.1 8-4.8 2.2-.4 4.6-.2 6.8.5zm138.3-.5c3.1.6 6 2.2 8.2 4.6 2.1 2.5 3.5 5.6 3.9 8.9.6 3.3.3 6.7-.9 9.9-1.7 4-4.9 7.2-8.9 8.9-6.9 3.4-15.2 1-19.2-5.5-2-3.2-2.9-7-2.5-10.8.2-4.3 1.8-8.3 4.6-11.5 3.5-4.5 9.4-6.2 14.8-4.5z"/><path d="M81.2 144.5c6.3-1.5 12.7 2.5 14.1 8.8.8 3.5 0 7.1-2.2 9.9-1.2 2-3.1 3.6-5.3 4.6-2.4.8-5 .7-7.3-.2-2.4-.8-4.5-2.4-5.9-4.6-1.3-2.1-1.9-4.5-1.8-7 0-2.7.9-5.3 2.5-7.4 1.4-2 3.5-3.4 5.9-4.1zm146.6.9c4.2 2 6.7 6.4 6.2 11.1-.2 2.3-1.1 4.5-2.5 6.3-1.2 2-3.1 3.6-5.3 4.6-2.4.8-5 .7-7.3-.2-2.4-.8-4.5-2.4-5.9-4.6-1.3-2.1-1.9-4.5-1.8-7 0-2.7.9-5.3 2.5-7.4 1.5-2 3.5-3.5 5.9-4.1 2.8-.7 5.8-.2 8.2 1.3z" fill="#eee"/><path d="M235.1 120.5h-1.6l-.9.2-.5.7-.2.7v1.4l.7 6.2c-.1.7 0 1.3.2 1.9.3 1 1 1.8 1.8 2.4.5.4 1.2.5 1.8.5.8 0 1.5-.5 1.8-1.2.1-.3.1-.6 0-.9-.4-1.6.2-1.5-.9-8.9-.1-.5-.2-1-.5-1.4-.4-.8-1.6-1.7-1.7-1.6" fill="#9f000d"/><path class="st7" d="M168.9 158.2c4.3-10.1 6.6-26.4 6.6-39.7m-64.6 39.8c-1.3-10.7 1.3-26.4 5.1-38.6"/><path class="st2" d="M112 120.2l8.2-.2 16.2-21.2h-5.7z"/><path d="M182 95c-12.7.3-25 .7-36.8 1.5-7 .3-12.1.6-14.4.7-1.1 0-2.2.3-3.2.7-.8.4-1.5.8-2.1 1.4l93.3-1 3.7-3.1" fill="#1b5dc5"/><path class="st7" d="M105.1 119.3c-11.7 1.4-27.5 8.4-39.6 16.1"/><path class="st9" d="M58 139c-.1-.5-.2-1.5.7-3.8.7-1.9 1.8-3.6 3.2-5.1 1.4-1.5 2-2.2 3.2-2.4 1.2-.2 2.4.2 3.2 1.2.7 1.1.1 2.5-.5 4.1-1.1 2.9-3.1 5.3-5.7 6.9-1.8 1.2-2.5 1.1-3 .9-.6-.4-1-1.1-1.1-1.8"/><path d="M-81.4 272.4c-.2.5-.1 1 .1 1.4.3-.5.2-1-.1-1.4z" fill="#5d7673"/><path d="M47.3 20.7l68.4.3-.2 9.3c-.1 4 3.1 67.5 3.1 87 0 3-2.5 5.5-5.5 5.5l-62.6-.2c-2.7 0-4.9-2.2-4.9-4.9v-.3L44 24.1c-.1-1.9 1.5-3.4 3.3-3.4z" fill="#b3b3b3"/><path class="st12" d="M50.4 22.3l69.9.4c-.9 3-1.5 6.2-1.8 9.3-.1 4 3 67.6 3 87.1 0 3-2.5 5.5-5.5 5.5l-62.6-.2c-2.7 0-4.9-2.2-4.9-4.9v-.3L47 25.7c0-1.9 1.5-3.4 3.4-3.4z"/><path d="M108.6 25.6l-73-.4s4.7 5.7 4.8 9.3c0 4 2.9 64.3 1 83.7-.3 3 1.9 5.7 4.9 6l62.3 5.8c2.7.2 5.1-1.8 5.4-4.5v-.3L112 29c0-1.8-1.5-3.3-3.4-3.4z" fill="#f2f2f2"/><path class="st14" d="M65.2 47.8l41.5.3c.3 0 .6.3.6.6s-.3.6-.6.6L65.2 49c-.3 0-.6-.3-.6-.6 0-.4.3-.6.6-.6z"/><path class="st9" d="M65.2 50.4l20.2.1c.3 0 .6.3.6.6s-.3.6-.6.6l-20.2-.1c-.3 0-.6-.3-.6-.6 0-.4.2-.6.6-.6z"/><path class="st15" d="M57.2 46.7c-.3-.3-.7-.3-1 0l-5.1 5 1 .9 5.1-4.9c.3-.2.3-.6.1-.9l-.1-.1z"/><path class="st16" d="M51.2 51.7l-.2-.1-2-2c-.1-.1-.3-.2-.5-.2-.4 0-.7.3-.7.6 0 .2.1.3.2.5l2.6 2.7c.3.2.7.2.9 0l.5-.5-.8-1z"/><path class="st14" d="M65.1 63.3l41.5.3c.3 0 .6.3.6.6s-.3.6-.6.6l-41.5-.3c-.3 0-.6-.3-.6-.6s.3-.6.6-.6z"/><path class="st9" d="M65.1 66l20.2.1c.3 0 .6.3.6.6s-.3.6-.6.6l-20.2-.1c-.3 0-.6-.3-.6-.6 0-.4.2-.6.6-.6zm-11.3-7.1c-3.6 0-6.6 2.9-6.7 6.6 0 3.6 2.9 6.6 6.6 6.7 3.6 0 6.6-2.9 6.7-6.6-.1-3.7-3-6.7-6.6-6.7z"/><path class="st14" d="M65.3 32.2l41.5.3c.3 0 .6.3.6.6s-.3.6-.6.6l-41.5-.3c-.3 0-.6-.3-.6-.6s.3-.6.6-.6z"/><path class="st9" d="M65.3 34.8l20.2.2c.3 0 .6.3.6.6s-.3.6-.6.6L65.3 36c-.3 0-.6-.3-.6-.6s.2-.6.6-.6z"/><path class="st15" d="M57.3 31.1c-.3-.3-.7-.3-1 0l-5.1 5 1 .9 5-4.9c.3-.3.4-.7.1-1z"/><path class="st16" d="M51.3 36.1l-.2-.1-2-2c-.1-.1-.3-.2-.5-.2s-.4.1-.5.2c-.1.1-.2.3-.2.5s.1.3.2.5l2.6 2.7c.3.2.7.2.9 0l.5-.5-.8-1.1z"/><path class="st14" d="M65.2 95.6l41.5.3c.3 0 .6.3.6.6s-.3.6-.6.6l-41.5-.3c-.3 0-.6-.3-.6-.6 0-.4.3-.6.6-.6z"/><path class="st9" d="M65.2 98.2l20.2.1c.3 0 .6.3.6.6s-.3.6-.6.6l-20.2-.1c-.3 0-.6-.3-.6-.6 0-.4.2-.6.6-.6z"/><path class="st15" d="M57.2 94.5c-.3-.3-.7-.3-1 0l-5.1 5 1 1 5.1-4.9c.3-.2.3-.6.1-.9l-.1-.2z"/><path class="st16" d="M51.2 99.5l-.2-.1-2-2c-.1-.1-.3-.2-.5-.2s-.4.1-.5.2c-.1.1-.2.3-.2.5s.1.3.2.5l2.6 2.7c.3.2.7.2.9 0l.5-.5-.8-1.1z"/><path class="st14" d="M65.1 111.2l41.5.3c.3 0 .6.3.6.6s-.3.6-.6.6l-41.5-.3c-.3 0-.6-.3-.6-.6 0-.4.2-.6.6-.6z"/><path class="st9" d="M65.1 113.7l20.2.1c.3 0 .6.3.6.6s-.3.6-.6.6l-20.2-.1c-.3 0-.6-.3-.6-.6s.2-.6.6-.6z"/><path class="st15" d="M57.1 110.1c-.3-.3-.7-.3-1 0l-5.1 5 1 1 5.1-4.9c.2-.4.2-.8 0-1.1 0 0-.1 0 0 0z"/><path class="st16" d="M51 115.1l-.1-.1-2-2c-.1-.1-.3-.2-.5-.2s-.3.1-.5.2c-.1.1-.2.3-.2.5s.1.3.2.5l2.6 2.7c.3.3.7.3.9 0l.6-.7-1-.9z"/><path class="st14" d="M65.3 80l41.5.3c.3 0 .6.3.6.6s-.3.6-.6.6l-41.5-.3c-.3 0-.6-.3-.6-.6s.3-.6.6-.6z"/><path class="st9" d="M65.3 82.6l20.2.1c.3 0 .6.3.6.6s-.3.6-.6.6l-20.2-.1c-.3 0-.6-.3-.6-.6s.2-.6.6-.6z"/><path class="st15" d="M57.3 78.9c-.3-.3-.7-.3-1 0l-5.1 5 1 .9 5.1-4.9c.2-.2.3-.6 0-1z"/><path class="st16" d="M51.3 83.9l-.1-.1-2-2c-.1-.1-.3-.2-.5-.2-.4 0-.7.3-.7.6 0 .2.1.3.2.5l2.6 2.7c.3.2.7.2.9 0l.5-.5-.9-1z"/><path class="st12" d="M72.7 86.6l38.9.3c-.5 1.4-.8 2.8-1 4.3 0 1.8 1.8 31 1.9 40-.2 1.5-1.5 2.7-3.1 2.5l-34.8-.3c-1.4.1-2.6-.9-2.7-2.3v-.1l-1.1-42.8c.1-1 .9-1.6 1.9-1.6z"/><path class="st17" d="M53.1 69.4h-.5c-.9-1.2-1.6-2.2-2.3-3.5l.5-.3c.6 1.1 1.3 2.2 2.1 3.2 1.4-2.5 2.6-4.6 3.8-7.2l.5.3c-1.4 2.7-2.6 4.9-4.1 7.5z"/><path class="st9" d="M53.6 43.3c-3.6 0-6.6 2.9-6.7 6.6 0 3.6 2.9 6.6 6.6 6.7 3.6 0 6.6-2.9 6.7-6.6 0-3.7-2.9-6.7-6.6-6.7z"/><path class="st17" d="M53 53.8h-.5c-.9-1.2-1.6-2.2-2.3-3.5l.5-.3c.6 1.1 1.3 2.2 2.1 3.2 1.4-2.5 2.6-4.6 3.8-7.2l.5.3c-1.4 2.7-2.6 4.9-4.1 7.5z"/><path class="st9" d="M53.8 27.7c-3.6 0-6.6 2.9-6.7 6.6 0 3.6 2.9 6.6 6.6 6.7 3.6 0 6.6-2.9 6.7-6.6-.1-3.7-3-6.6-6.6-6.7z"/><path class="st17" d="M53.1 38.3h-.5c-.9-1.2-1.6-2.2-2.3-3.5l.5-.3c.6 1.1 1.3 2.2 2.1 3.2 1.4-2.5 2.6-4.6 3.8-7.2l.5.3c-1.4 2.7-2.6 4.9-4.1 7.5z"/><path class="st9" d="M54.4 75.5c-3.6 0-6.6 2.9-6.7 6.6 0 3.6 2.9 6.6 6.6 6.7 3.6 0 6.6-2.9 6.7-6.6 0-3.7-2.9-6.6-6.6-6.7z"/><path class="st17" d="M53.8 86.1h-.5c-.9-1.2-1.6-2.2-2.3-3.5l.5-.3c.7 1.2 1.3 2.2 2.1 3.2 1.4-2.5 2.6-4.6 3.8-7.2l.5.3c-1.4 2.7-2.6 4.9-4.1 7.5z"/><path class="st9" d="M54.3 91.1c-3.6 0-6.6 2.9-6.6 6.6 0 3.6 2.9 6.6 6.6 6.6 3.6 0 6.6-2.9 6.6-6.6 0-3.6-2.9-6.6-6.6-6.6z"/><path class="st17" d="M53.6 101.6h-.5c-.9-1.2-1.6-2.2-2.3-3.5l.5-.3c.7 1.2 1.3 2.2 2.1 3.2 1.4-2.5 2.6-4.6 3.8-7.2l.5.3c-1.4 2.7-2.5 4.9-4.1 7.5z"/><path class="st9" d="M53.6 106.7c-3.6 0-6.6 2.9-6.7 6.6 0 3.6 2.9 6.6 6.6 6.7 3.6 0 6.6-2.9 6.7-6.6 0-3.7-2.9-6.7-6.6-6.7z"/><path class="st17" d="M53 117.2h-.5c-.9-1.2-1.6-2.2-2.3-3.5l.5-.3c.6 1.1 1.3 2.2 2.1 3.2 1.4-2.5 2.6-4.6 3.8-7.2l.5.3c-1.4 2.7-2.6 4.9-4.1 7.5zm23.7-22.8l-.2-.4c.9-.7 1.8-1.4 2.7-2l.3.3c.4.3.8.6 1.2.8.9.4 1.6 0 2.5-1.1l.3-.4c1.1.4 2 .8 3.1 1.3l-.1.5c-.2 1.4.1 2.2 1 2.5.4.2.9.3 1.4.3h.4c.3 1.1.4 2.2.5 3.4l-.4.1c-1.3.2-2.1 1.4-1.9 2.7.1.3.2.7.4 1l.2.4c-.8.7-1.8 1.4-2.7 2l-.3-.3c-.4-.3-.7-.6-1.2-.8-.9-.4-1.6 0-2.5 1.1l-.3.4c-1.1-.4-2-.8-3.1-1.3l.1-.5c.2-1.4-.1-2.2-1-2.5-.4-.2-.9-.3-1.4-.3h-.4c-.3-1.1-.4-2.2-.5-3.4l.4-.1c1.3-.2 2.1-1.4 1.9-2.7-.1-.4-.2-.7-.4-1zm-1.1 4.3c0 .7.1 1.5.3 2.2.5.1 1 .2 1.4.4 1.2.5 1.6 1.5 1.4 3.2l2.1.9c1.1-1.3 2.1-1.7 3.3-1.2.5.2.9.4 1.3.7.6-.4 1.2-.8 1.8-1.3-.8-1.5-.3-3.3 1.2-4.2.2-.1.4-.2.7-.3 0-.7-.1-1.5-.3-2.2-.5-.1-1-.2-1.4-.4-1.2-.5-1.6-1.5-1.4-3.2l-2.1-.9c-1.1 1.3-2.1 1.7-3.3 1.2-.5-.2-.9-.4-1.2-.7-.6.4-1.2.8-1.8 1.3.8 1.5.3 3.3-1.2 4.2-.4.1-.6.2-.8.3zm4-.9c.4-1.4 1.9-2.2 3.3-1.7.2 0 .3.1.5.2 1.5.6 2.1 2.3 1.5 3.7-.6 1.5-2.3 2.1-3.7 1.5-1.5-.6-2.2-2.3-1.6-3.7z"/><path class="st14" d="M90.1 103.3v-.7c2-.4 3.9-.7 5.9-.7l.2.7c.3.8.7 1.5 1.1 2.2 1 1.3 2.4 1.4 4.7.5l.8-.3c1.3 1.6 2.4 3 3.6 4.6l-.5.7c-1.5 2-1.7 3.4-.7 4.7.5.6 1.1 1.2 1.8 1.7l.6.4c-.6 1.9-1.3 3.8-2.2 5.6l-.7-.1c-2.1-.8-4.5.3-5.3 2.5-.2.6-.3 1.2-.2 1.8v.7c-2 .4-3.9.7-5.9.7l-.2-.7c-.3-.8-.7-1.5-1.1-2.2-1-1.3-2.4-1.4-4.7-.5l-.7.3c-1.3-1.6-2.4-3-3.6-4.6l.5-.7c1.5-2 1.7-3.4.7-4.7-.5-.6-1.1-1.2-1.8-1.7l-.6-.4c.6-1.9 1.3-3.8 2.2-5.6l.7.1c1.3.4 2.8.2 4-.6.9-.9 1.5-2.3 1.4-3.7zm-5.5 5.6c-.6 1.2-1 2.4-1.4 3.6.7.5 1.3 1.1 1.8 1.8 1.4 1.7 1.2 3.6-.6 6.1.7 1.1 1.6 2.1 2.4 3.1 2.8-1.1 4.7-.8 6 .9.5.7 1 1.4 1.3 2.2 1.3 0 2.6-.2 3.9-.4 0-3 2.4-5.4 5.4-5.4.4 0 .9.1 1.3.2.6-1.2 1-2.4 1.4-3.6-.7-.5-1.3-1.1-1.8-1.8-1.4-1.7-1.2-3.6.6-6.1-.7-1.1-1.6-2.1-2.4-3.1-2.8 1.1-4.7.8-6-.9-.5-.7-1-1.4-1.3-2.2-1.3 0-2.6.2-3.9.4 0 3-2.4 5.4-5.4 5.4-.4 0-.9-.1-1.3-.2zm7 2.1c2.2-1.7 5.3-1.3 7 .9 1.7 2.2 1.3 5.3-.9 7a4.96 4.96 0 01-7-.9c-1.7-1.9-1.6-4.8.2-6.5.3-.2.5-.4.7-.5z"/><path d="M82.2 95.5c-1.9 0-3.4 1.5-3.4 3.4s1.5 3.4 3.4 3.4 3.4-1.5 3.4-3.4-1.5-3.4-3.4-3.4zm12.6 13.9c-3 0-5.5 2.4-5.6 5.5 0 3 2.4 5.5 5.5 5.6 3 0 5.5-2.4 5.6-5.5 0-3.1-2.5-5.5-5.5-5.6z" fill="#ffce33"/></g></g></svg>