<svg version="1.1" id="Calque_1" xmlns="http://www.w3.org/2000/svg" x="0" y="0" viewBox="0 0 105 105" xml:space="preserve"><style>.st15{fill:#d7ab82}</style><path d="M59.7 50.4c0 .8.2 1.5.3 2.3.1 1.7-.7 3-1.7 4.3-1 1.4-2 2.7-2.8 4.3-.1.2-.2.4-.4.4-1.1 1.7-1.9 3.7-2.8 5.5-1.3 2.7-1.9 5.6-3 8.3-1 2.5-2 5-3.8 7.1-.3.4-.3.8-.3 1.3-.3.2-.7-.3-.9 0-.1.3.3.3.4.6-.7.1 0 1.1-.7 1.2-.3.2-.7.2-1 0-1.1-.6-2.1-1.2-3.1-1.9-.3-.2-.6-.2-.8-.5.2-.2 0-.4 0-.7.1-.5-.3-1.1.5-1.4.3-.1.1-.7.1-1 0-.6 0-1 .8-1 .3 0 .5-.2.6-.5 1.1-2.6 2.1-5.2 3.2-7.8.6-1.5.8-3.2 1.5-4.6 1.3-2.8 2.4-5.7 3.2-8.7.6-2.1 1.1-4.2 1.3-6.3 0-.2 0-.4-.1-.6.1-.5.5-.5.9-.5h7.5c.4 0 .8-.1 1.1.2z" fill="#595959"/><path d="M49.8 49.5c-.2-.2 0-.5-.4-.6-.8-.1-1-.8-.9-1.5.1-.9.1-1.8.1-2.7-.2-.3-.1-.6 0-.9.1-.5.3-.9.3-1.4.1-.3.2-.5.4-.7 2.2-2.5 4.1-5.2 5.9-7.9 1.1-1.7 1-3.4.1-5.2-.4-.7-.9-1-1.7-1-.7 0-1.4.2-2.1.4-.2 0-.4.2-.6.1-.2-.3 0-.5.1-.7.4-.8 1-1.6 1.3-2.5.1-.2.3-.3.5-.4.6-.1 1 .1 1.5.4 2.5 1.5 3.3 4 4.5 6.4.1.1.1.2.1.3 1.2 1.9 1 4 .7 6.1-.3 2.2-.7 4.3-.9 6.5-.1.7.1 1.3.6 1.8 1 1 1 1.1.4 2.4-2.7.4-5.5.7-8.3.8-.4 0-1-.1-1.6.3z" fill="#1f3b51"/><path d="M55 61.7c.9-1.9 2.2-3.6 3.4-5.3.8-1 1.3-2.1 1.4-3.5 0-.1.1-.2.1-.2.5 1.3.2 2.5-.1 3.7-.3 1-.2 1.8.1 2.7 1.1 3.1 2.7 6 4.2 8.9.6 1.1 1.3 2 2.1 3 1.6 1.9 2.9 4 3.6 6.4.1.5.5.6.8.7.6.1.8.3.3.9-.4.4-.1.6.3.6.3 0 .7 0 .5.6.1.3-.1.5-.3.7-1 1.2-2.2 2-3.6 2.6-.2.1-.5.2-.6-.2 0-.2-.2-.4-.2-.6-.1-.6-.8-.9-.8-1.3-.1-2.2-1.5-3.7-2.8-5.3-1.2-1.5-2.5-2.9-3.9-4.2-.6-.6-.9-1.4-1.2-2.2-1.1-2.8-2.2-5.4-3.3-8z" fill="#474747"/><path d="M51 28.1c.7-.4 1.4-.5 2.2-.6 1.4-.2 2 .2 2.6 1.5.7 1.7.8 3.4-.3 4.9-2 2.9-3.9 5.8-6.4 8.4-.3.4-.6.6-1 .1.1-.1.2-.3 0-.3-.5 0-.9-.1-1.4.1-.4.2-.8 0-1.3-.1-1-.1-1.9-.2-2.8.1-.6.2-1.2.2-1.7-.3-.4-.5-.8-.8-1.5-.6s-.9 0-.9-.7c0-.9.3-1.2 1.2-1.2h.5-.9c-.3 0-.6 0-.7.4-.1.3-.3.4-.6.4-.3-.1-.4-.4-.4-.6-.1-.4.1-.9.3-1.2l.3-.9c.2-.2.4-.2.6-.2 1.9.2 3.8.3 5.7.1h.9c.6.1 1.2.1 1.9.2.4 0 .6-.2.5-.6v-.9c.2-.4.3-.8.4-1.2.1-.9.8-1.5 1-2.3.3-1.2.5-2.4.9-3.5.3-.5.4-1 .9-1z" fill="#d2effe"/><path d="M47.6 25.9c-.5.2-.5.7-.7 1-.4.7-1 .9-1.5.3s-1.3-.9-1.9-1.4c-.5-.3-.9-.2-1.3 0-.5.3-.8.1-.7-.5s0-1.2-.3-1.8c-.1-.1-.1-.3-.2-.4-.8-.4-.7-1.4-1.1-2 .4-1.1 1.1-1.9 2.2-2.3.4-.1.5-.5.6-.8.3-.8.5-.8 1-.2.2.2.3.4.5 0 .3-.5.6-.3.8.1.4.6.7 1.2 1.1 1.8-.1-.4-.2-.9.2-1.2.4-.3.9-.2 1.3.1.4.3.7.7.8 1.2l.3 1.8c-.5 1.3-.6 2.8-1.1 4.3z" fill="#f1b68a"/><path d="M48.4 21.4c-.1-.6-.3-1.1-.3-1.7 0-.4-.2-.8-.6-1-.3-.2-.7-.5-1.1-.2-.4.2-.3.6-.3 1 0 .1.2.3 0 .4s-.3-.1-.4-.2c-.2-.6-.7-1.2-1-1.8-.2-.3-.3-.3-.5 0-.1.2 0 .5-.3.5-.2 0-.3-.3-.4-.4-.1-.2-.2-.4-.3-.5-.3 0-.2.2-.3.4-.3.5-.1 1.3-1.1 1.1-.5.6-1.2 1-1.6 1.6-.1.2-.3.4-.4.6-.3.2-.6.3-.6-.3 0-.4-.2-.5-.6-.5-.3 0-.7-.1-1.1-.1.3-.4.7-.8.5-1.2-.2-.3-.7-.3-.9-.8.6-.2 1.3-.4 1.8-.9.4-.4.4-.4 0-.8.7-.1 1.4 0 1.9-.6-.1-.2-.4-.2-.6-.3.1 0 .1-.1.2-.1.7-.2 1.4-.3 1.8-1 .4-.5 1.3-.5 2.1-.1.5.3.9.6 1.5.3.3-.1.5.1.7.3.4.5.9 1 1.2 1.6.4.9 1 1.7 1.7 2.4.2.1.6.3 0 .6-.3.2-.4.7-.2 1.1.2.5.4 1 .4 1.5-.3.4-.6.2-.8-.1-.3-.2-.3-.5-.4-.8zm-9.2 61.9c.9 0 1.5.7 2.2 1.1.9.5 1.7 1.2 2.8 1.3-.1.5-.2.9-.6 1.3-.2.4-.6.4-1 .4-.7 0-1.4-.1-2.2-.1-1.8.3-3.6.7-5.4.1-.8-.3-1.5-.7-2.2-1.1-.4-.2-.2-.5-.1-.7.1-.3.1-.7.5-.6 2.2 0 4.1-.7 6-1.7zm28.1-.2c.2.2.4.2.6.1 1.5-.7 3-1.6 3.9-3.1.9.2 1.2.9 1.3 1.7.1.3-.1.5-.3.7-.4.4-.9.8-1.1 1.5 0 .2-.2.1-.4.1-.7.5-1 1.3-1.5 2-1.1 1.6-2.7 2.3-4.5 2.8-.4.1-.5-.1-.6-.4-.1-.2-.5-.5-.1-.8.1-.1.1-.2.2-.2 1.3-1.2 2.1-2.7 2.5-4.4z" fill="#936038"/><path d="M40.9 41.6c.6.5 1.2.5 1.8.3.9-.3 1.9-.3 2.8 0 .1.6.1 1.3 0 1.9-.2.3-.6.2-.9.2-2.8 0-5.7.1-8.5.3-1 .1-1 0-1-.9 0-.8-.1-1.6-.2-2.4-.1-.2-.1-.5.1-.4.8.4 1.6 0 2.4.2.6.4 1.3.5 2 .4.6-.1 1.1.1 1.5.4z" fill="#d9b481"/><path d="M45.5 37.4c-.8 0-1.6 0-2.4.1-1.4.1-2.8-.1-4.1-.2-.2 0-.6-.2-.6.3-.1 0-.1.1-.2.1-.5 0-.7-.4-.9-.7-.4-.5-.5-1.1-1-1.5-.2.3-.1.6-.1.8 0 .4-.1.8-.5.9-.4.1-.8.1-.8-.5-.2-.6.2-1.3-.3-1.9 0-.2.1-.2.2-.3 3.2.2 6.4 0 9.6.1h.9c.5 0 .8.3.7.8-.3.7 0 1.4-.5 2z" fill="#d9b581"/><path d="M49.8 49.5c.4 0 .1-.2.1-.3 0-.2 0-.3.3-.3 1 .1 1.9.1 2.9 0 1.4-.1 2.8-.3 4.2-.4.5-.1 1.1-.1 1.6-.2.3-.1.7-.1 1 .1.2.7.4 1.4-.2 2h-8.8c-.3 0-.5 0-.6.3-.5-.3-.4-.7-.5-1.2z" fill="#182f43"/><path d="M34.8 36.7c.1.4.5.5.8.4s.4-.4.4-.8v-.1c0-.3-.2-.8.2-1 .4-.1.5.4.7.7.4.6.6 1.5 1.4 1.7.1.3-.2.5-.3.8-.1.5-.3 1-.2 1.5 0 .3.1.7-.2 1-.8 0-1.6.5-2.3-.1 0 0-.1.2-.1.3-.4 0-.6-.2-.7-.5-.2-.9-1-1.6-.9-2.6.1-.7.3-.9.9-.9.1-.1.2-.1.3-.4z" fill="#f0b78b"/><path d="M36.1 30.2c.1 0 .1-.1 0 0 .3-.4-.3-.9.2-1.1.3-.2.8-.1 1.1-.2 1.6-.3 3.2-.6 4.9-.8.3 0 .5 0 .7.2.1.3.2.7.2 1-.2.5 0 1 0 1.6v.9c-.3.6-.9.4-1.3.3-.3-.5-.3-1.1-.3-1.7 0-.7-.1-.7-.8-.6-.8.1-1.6.4-2.4.5-.4.1-.5.3-.5.7.1.4.3.8 0 1.2-.5.2-1 .2-1.5 0-.4-.3-.2-.8-.3-1.2v-.8z" fill="#6b3a10"/><path d="M48.4 21.4c.2.2.3.5.5.7s.4.4.7.2c.5.3.8.8 1.3 1.2.3.3.3.7 0 1L49.7 26c-.1.2-.2.3-.4.4-.1.1-.2.1-.3.2-.3.5-.5.4-.8 0-.2-.3-.4-.6-.6-.8-.1-.8.3-1.6.4-2.3 0-.7.2-1.4.4-2.1z" fill="#ebae7b"/><path d="M49.3 26.4c.1-.2.2-.3.4-.4.1 0 .2.1.2.1.7-.7 1.6-1.2 1.6-2.3 0-.2 0-.4.2-.4.2-.1.4.1.5.3.2.3.2.6.6.7-.6.7-.7 1.7-1.3 2.4-.3.4-.6.7-.6 1.2-.3.2-.4.5-.6.8-.2.3-.3.5-.7.4-.5-.3-.8-.9-1.2-1.4-.1-.4.1-.6.4-.8.4 0 .8-.1.5-.6z" fill="#d1f0fa"/><path d="M48.6 27.9c.7.2.7.9 1.2 1.3.2.7-.2 1.3-.2 2 0 .4-.1.9-.1 1.3-.2.8-.9 1.4-1.1 2.3-.1.1-.2.1-.3 0-.2-.3-.1-.5 0-.8.4-.6.3-1.2.3-1.9 0-.2 0-.3.1-.5.2-.4-.1-.9.3-1.3.2-.3 0-.5-.2-.7-.3-.6-.4-1.1 0-1.7z" fill="#dc0e1a"/><path d="M43.2 29.2c-.3-.3-.3-.6-.1-.9.8-.2 1.6-.1 2.3-.1.4 0 .3.2.3.4 0 .5-.3 1 0 1.5l.1.1v.1c-.6.2-.9.7-1 1.3 0 .2 0 .4-.2.5-.2.1-.3 0-.4-.1-.3-.4 0-.8 0-1.3-.1-1.1-.1-1.1-1-1.5z" fill="#900839"/><path class="st15" d="M47 30.2h1.3c.3.3.1.7 0 1-.3.7-.6 1.4-.6 2.2 0 .2-.1.3-.2.4-.3.1-.7.1-.8-.3-.2-1.1.1-2.2.3-3.3z"/><path d="M32.4 33.1l-1.5-1.2c-.3-.2-.4-.6.1-.7.9-.2 1.8-.2 2.7-.2 0 .1 0 .2-.1.3-.2.1-.3.4-.4.6-.1.2-.3.3-.4.5-.1.2-.1.5-.4.7z" fill="#caa481"/><path d="M39.4 87.2c.1-.2.2-.2.4-.2.9.1 1.9.3 2.8-.1 0 1.1-.1 1.2-1.2 1.2h-.5c-.7-.1-1.3-.3-1.5-.9z" fill="#784f2e"/><path d="M71.4 84c.4-.2.3-.6.5-.9.4-.5 1-.7 1.2-1.3.7.3.7.7.2 1.3-.2.3-.5.5-.7.8-.4.4-.8.5-1.2.1z" fill="#774f2e"/><path d="M45.6 43.8c-.3-.6-.2-1.3 0-1.9.4.1.8.2 1.2.2.2.1.4 0 .5.2s-.2.3-.3.4c-.5.4-1 .7-1.4 1.1z" fill="#b89d77"/><path d="M32.4 33.1c0-.3.1-.5.3-.7.4 0 .5.3.6.6.1.6.4 1 .9 1.2.3.1.5.2.4.6l-.1.1c-.3-.1-.6-.1-.9-.2-.8-.4-1.1-.9-1.2-1.6z" fill="#831424"/><path d="M48.1 42.3c.4.2.7 0 1-.1.2.6-.2 1.2-.3 1.8 0 .3-.1.5-.2.8h-.2c-.1-.8-.4-1.6-.3-2.5z" fill="#dc0c19"/><path d="M47 30.2c.3.8-.1 1.6-.2 2.5 0 .3-.1.6-.1 1 .1.4 0 .7-.5.5-.2-.3-.1-.6 0-1 .1-.5.2-1.1.2-1.6s-.1-1 .3-1.3c0-.1.2-.1.3-.1z" fill="#db5641"/><path d="M46.7 30.3c-.2.4-.1.9-.1 1.3-.1.1-.1.2-.3.2-.2.1-.2.3-.4.5-.1.2-.3.2-.4 0-.1-.7.1-1.4.1-2.2v-.2c.6-.4.7.3 1.1.4z" fill="#c0a155"/><path d="M33.6 31.2c0-.1.1-.1.1-.2.8-.3 1.5-.8 2.4-.9.3.1 0 .3.2.4v.2c-.7.5-1.5.6-2.3.7-.2.1-.4.1-.4-.2z" fill="#610d16"/><path d="M47.5 33.5c-.3-.6.2-1.2.3-1.7s.5-1 .4-1.6c.1 0 .2.1.3.1.2.2 0 .4 0 .6-.2 1-.4 1.9-1 2.6z" fill="#af8971"/><path class="st15" d="M48.4 31c0-.2.1-.4.1-.6h.2c0 .4.1.9-.1 1.3-.3-.3 0-.5-.2-.7z"/><path d="M46.3 34.2c.2-.1.4-.3.4-.6.2 0 .5.1.7.1.2.2.2.4.2.6v2.6c0 .2-.1.5-.2.7-.6-.1-1.2-.2-1.9-.2.1-.7-.1-1.4.1-2.1.1-.5-.3-.5-.6-.5h-9.2c-.4 0-.8-.1-1.2-.2-.9-.5-1.4-1.4-1.8-2.3 0-.3.3-.3.5-.4 1.1-.3 2.2-.4 3.3 0h1.6c1.3-.2 2.5 0 3.8 0 .4-.1 1 .3 1.3-.3.3 0 .7.1 1 .3h.5c.2-.2.4-.1.6.1.2.4.2.8.6 1.1.2.4.1.8.1 1.1 0 .1 0 .2-.1.2.1 0 .1-.1.2-.1-.1 0 0-.1.1-.1z" fill="#bc9b70"/><path d="M37.4 40.9c.1-1.1 0-2.3.8-3.3h.1c.1.5-.4.8-.5 1.3 0 .2-.2.4-.1.6.1.2 0 .5.3.5.2 0 .5-.1.4-.5 0-.1-.1-.3.1-.3.7.1 1.5-.2 2.4.1-.6.3-1 .1-1.4.2-.2.1-.5-.2-.6.1-.2.5-.3 1-.2 1.4 0 .2.5.1.8 0 .5-.2 1.2.1 1.4.6-.9-.4-1.9-.3-2.8-.3-.4 0-.7 0-.7-.4z" fill="#f5f9f9"/><path d="M47.4 37.7v-3.9c0-.1.1-.2.1-.3.3-.9.6-1.7.9-2.6.2.2 0 .5.1.7v.4c-.1.6-.1 1.3-.4 1.9v.8c.1.4 0 .8-.1 1.2v1c.1.5-.1.8-.6.8z" fill="#fcfcfa"/><path d="M49.4 32.6c-.1-1.1-.2-2.3.3-3.4.3.1.4-.3.6-.3-.2 1.2-.5 2.4-.9 3.7z" fill="#2e3b4d"/><path d="M48 35.9c0-.4-.1-.8.1-1.2.1 0 .2 0 .3.1-.1.4 0 .9-.4 1.1z" fill="#828089"/><path d="M47.5 20c-.2-.2 0-.6-.4-.6-.2 0-.4.2-.4-.2 0-.1 0-.3.2-.3.2.1.6-.1.7.2 0 .3-.1.6-.1.9z" fill="#cd986a"/><path d="M41.8 31.9c-.2.1-.4.2-.6.2-1.1-.1-2.1.1-3.2-.2-.1-.6-.5-1.3-.3-1.7.2-.4 1.1-.3 1.6-.4.6-.2 1.2-.2 1.8-.4.4-.1.7 0 .6.5 0 .6.3 1.3.1 2z" fill="#c88b3e"/><path d="M44.1 31.9c-.3 0-.7.1-1-.3-.1-.6-.1-1.2-.2-1.8 0-.2-.1-.5.3-.6 1.1 0 1 0 1.1 1.1 0 .5-.2 1.1-.2 1.6z" fill="#efaf4b"/><path d="M36.4 31.9h-3.3c-.1-.4 0-.6.4-.7.8.4 1.4-.2 2.1-.3.2 0 .4-.2.6-.3.4.4.2.9.2 1.3z" fill="#aa0516"/><path d="M48.2 34c.1-.7.1-1.3.4-1.9-.1.6.1 1.3-.4 1.9z" fill="#72403c"/><path d="M45.1 32.1c-.2-.1-.4-.1-.6-.1-.3-.7.2-1.2.5-1.7.1-.3.4.1.6 0 .4.8-.1 1.5 0 2.3v.2c-.5 0-.3-.5-.5-.7z" fill="#42a4c8"/><path d="M46.3 34.2c-.1.1-.2.6-.5.2-.1-.9.1-1.7.3-2.5 0-.1.1-.1.2-.1s.2-.1.3-.1c.1.8-.4 1.6-.3 2.5z" fill="#e8ce59"/><path d="M46.3 31.8c-.1.9-.3 1.7-.4 2.6-.3-.4-.1-.9-.2-1.3-.1-.1-.1-.3 0-.4v-.1c.3-.3-.1-.9.6-.8z" fill="#e8b723"/><path d="M45.7 32.6v.4c-.7 0-.5-.6-.6-1 .2.2.1.7.6.6z" fill="#879d8e"/></svg>