<svg version="1.1" id="Calque_1" xmlns="http://www.w3.org/2000/svg" x="0" y="0" viewBox="0 0 105 105" xml:space="preserve"><style>.st0{fill:#aeaeae}.st2{fill:#afafaf}.st3{fill:#616161}.st4{fill:#c7c7c7}.st5{fill:#5a5a5a}.st6{fill:#6e6e6e}.st7{fill:#c8c8c8}.st10{fill:#333}.st11{fill:#949494}.st13{fill:#fefefe}.st15{fill:#c5c5c5}.st18{fill:#484848}.st19{fill:#939393}.st20{fill:#929292}.st22{fill:#ababab}.st24{fill:#595959}.st27{fill:#b5b5b5}.st31{fill:#b7b7b7}.st32{fill:#cecece}.st33{fill:#a3a3a3}.st37{fill:#aaa}.st39{fill:#7f7f7f}.st40{fill:#b3b3b3}.st47{fill:#4f4f4f}.st48{fill:#a4a4a4}.st50{fill:#444}.st52{fill:#a2a2a2}.st56{fill:#a6a6a6}.st60{fill:#3a3a3a}.st62{fill:#5d5d5d}.st63{fill:#b4b4b4}.st64{fill:#bfbfbf}.st67{fill:#767676}.st72{fill:#bebebe}.st73{fill:#434343}.st76{fill:#c3c3c3}.st84{fill:#c6c6c6}</style><path class="st0" d="M14.2 77.3c-.2-.4-.4-.7-.4-1.1 0-5.6-.1-11.2 0-16.8.1-2 .7-3.8 1.8-5.4.3-.4.5-.9.8-1.4.2-.4.4-.8.9-.6s1.1.4 1.6.3c.4-.1.8.2 1.1.6 0 .5-.4.8-.5 1.2-.4 1-.9 2-1.3 3-.1.2-.2.5-.3.8.1.2.4.1.5.1h4.8c.5.1 1.1.1 1.6.1.6 0 1.3 0 2 .1s1.3.5 1.7 1.1l.3.3c.1.1 0 .4.2.4.5.8 1.1 1.5 1.7 2.1.2.2.4.4.6.7.1.3.4.6.6.8.1.1.2.1.3.3.1.4.4.6.6.8.3.3.4.5.6.6.1.1.4.1.5.1h26.8c.2 0 .2-.1.3-.1.6-.4.9-1.1 1.3-1.6 0-.1.1-.1.1-.1.4-.3.7-.6.8-1.1 0-.1.1-.1.1-.1.2-.1.4-.4.4-.6.1-.1.1-.3.3-.4.1-.1.3-.3.4-.5.5-.4.7-1 1.2-1.3.3.1.6 0 .8-.1.1-.1.2-.1.3 0 0 0 0 .1.1.1.1.4 0 .8-.1 1.3-.1.1-.1.4-.2.5-.5.7-1.1 1.4-1.6 2.1l-.4.4c.2.3.4.3.5.3.4 0 .9-.1 1.3.1.1.3.2.6.1 1-.1 1.1-.4 2.1-.6 3.2-.1.6 0 .6.5.8.4.1.4.4.2.7H64c-.6-.1-1.1 0-1.6.1-1.6 0-3.3.2-4.9.1-1.1-.1-2.3 0-3.4.1-.3.1-.5.1-.8.1H40.8c-.3 0-.5 0-.8-.1-.8-.1-1.7-.1-2.5-.1-1.8.1-3.5-.1-5.3-.1-.6-.1-1.3-.1-1.9-.1-1.1.1-2.3-.1-3.5-.1-.8.1-1.1.2-1.1 1.1.1 1.5.4 2.9 1 4.2.1.3.4.5.6.6.4.1.6.1 1 .1.5.1.9.1 1.4.1 2.5.1 5 .1 7.6.3h18.6c.4 0 .8 0 1.3-.1 1.1-.1 2.3.1 3.5 0 1.6-.1 3.3-.1 4.9-.3.2-.1.4-.1.6 0 .5.3.5.8.4 1.3-.1.6-.2 1.1-.2 1.8 0 .3-.1.5-.4.6-1 .1-1.9.1-2.9.1-1.1 0-2.2-.1-3.3.2-.1.1-.3.1-.5.1H39.2c-.9 0-1.9.1-2.8 0-.9-.1-1.8-.1-2.7-.2h-3.8c-1.1-.2-2.2-.2-3.3-.2-.5.1-1.1 0-1.6-.1h-.2c-.6-.1-1.1-.1-1.6-.1-1.7 0-3.5-.1-5.2-.3-.6 0-1.1-.1-1.7-.1-.8-.1-1.6-.6-2.1-1.1.1-.4.1-.4 0-.6z"/><path d="M16.9 51.7l-.5-.5c-1.6-1.6-2.1-4-1.1-6 .1-.4.1-.5-.2-.6-1.8-.8-3.1-2.5-3.5-4.4-.4-2 .7-3 2.6-3.5.5-.1 1.1-.1 1.6 0-.5-1.4-.7-2.9-.6-4.3.1-2.4 1.3-4.5 3.2-5.9 1.2-.9 2.6-1.4 4.1-1.6.6 0 1.1.1 1.7.2.2.1.4 0 .6-.1.1.4-.2.4-.4.6-.8.2-1.3 1.1-1.3 1.9-.1 1.6-.4 3.3-.6 4.8-.1 1.4-.4 2.8-.4 4.2-.1 1.5-.2 3-.4 4.5-.1 1.1-.7 2-1.1 3.1s-.8 2.3-1.3 3.5c-.2.6-.5 1.1-.8 1.6-.7.8-.9 1.8-1.6 2.5z" fill="#eaeaea"/><path class="st0" d="M24.5 25.4c.1-.1.4-.1.4-.4.7-.4 1.5-.6 2.3-.6.4 0 .8-.1 1.1-.2 1.4-.4 3-.6 4.5-.5 1.7.1 3.3-.3 4.9-.4.5-.1 1.1-.1 1.6-.1 4.1-.2 8.1-.2 12.2-.1 2.3.1 4.6.2 6.9.5.6.1 1.2.1 1.8.1.1.1.4-.1.5.2 0 .1-.1.3-.2.3-.2.1-.5.1-.7.1-2.2-.3-4.5-.4-6.7-.6-.7-.1-1.3-.1-2-.1h-1.3c-.5-.1-1.1-.1-1.6-.1-.9-.1-1.9 0-2.8.1-.9.1-1.8 0-2.8 0-.2 0-.5 0-.7.1-1.6.1-3.2.2-4.8.4-.8.1-1.5.1-2.3.3-.2 0-.6 0-.6.3-.1.4.1.8.4 1 .1.1.2.1.4.2s.4.1.5.1c4.2-.1 8.4.1 12.7.1h5c.2 0 .4 0 .6-.1 2-.1 3.9 0 5.9 0 .3 0 .5 0 .8-.1.2-.1.4-.2.6-.4.1-.1.1-.3.4-.3.3 0 .4.2.4.4.1.3.1.6.1.8 0 .5 0 1 .1 1.5.1.3.1.6-.1.9-.4.2-.8.3-1.3.2H34.2c-.3 0-.6 0-.9-.1-.4-.1-.8-.3-.9-.7-.2-.4-.4-.8-.6-1.1-.2-.4-.6-.7-1.1-.7-1.1.1-2.2.2-3.3.5-.4.1-.7 0-1.1-.2-.6-.6-1.3-.8-1.8-1.3z"/><path class="st2" d="M55 79.7h1.6c2 .1 3.9-.2 5.8-.3.5.1 1 .1 1.4.1.4 0 .8-.1 1.3-.2.2-.1.5.1.8.1h.1c.3.3.4.7.2 1.1-.1.8-.2 1.8-.2 2.7 0 .1 0 .3-.1.4 0 .1-.1.1-.1.1-.1-1.2-.4-1.5-1.6-1.5-1.2 0-2.3-.1-3.5-.2-.8 0-1.6 0-2.5.1H29.1c-1.3-.1-2.7.3-3.9.9-.1.1-.3.1-.4.2-.1-.6 0-1.2 0-1.8v-.7c.1-.5-.1-1 .1-1.4l1.6.1c.2.1.4.1.6.1.9 0 1.8 0 2.7.1h1.7c.2.1.4.1.6.1 1.3 0 2.6 0 4 .1.1 0 .2 0 .3.1h2.8c.4.1.9.1 1.3.1h13.7c.4-.1.6-.1.8-.3z"/><path class="st3" d="M69.3 25.4c.8-.4 1.4-1 2.3-1.1 1.4-.1 2.8-.3 4.1.4 1.5.7 2.5 2.2 2.5 3.9v.8c.1.1.1.3.1.4v10.9c0 .2-.1.2-.3.1-.1 0-.1-.1-.1-.1-.5-.6-1-1.1-1.3-1.8v-.2c.1-.1.2-.4.2-.5V32c0-.1 0-.1-.1-.2 0-.2-.1-.4-.1-.6 0-.5-.4-.9-1-.9-.1 0-.2 0-.4.1-.1.1-.2.1-.4.1-.4.1-.5 0-.6-.3s0-.6 0-.8c0-.3-.1-.6-.3-.7-.2.2-.1.5-.1.7 0 .6-.1.7-.8.7h-5.8c-.7 0-.8-.1-.8-.8v-1.4c0-.6.2-1.1.6-1.5l.1-.1c.7.1 1.4-.2 1.7-.9h.5z"/><path class="st0" d="M78.1 53c.4.6.8 1.1 1.2 1.7.6.6.9 1.4 1.1 2.3.1 1 .2 1.9.1 2.9v13.5c.4.4.3.9.2 1.4-.1.9-.1 1.8-.4 2.7-.1.1-.1.2-.2.3-.4.5-1.1.8-1.7 1-.1.1-.4.1-.5 0-.2-.1-.3-.4-.3-.6.1-.8-.1-1.6-.1-2.3-.1-.6-.1-1.3-.1-2 .4-.6.4-1.4.6-2.1.1-.4.1-.8.1-1.1.1-.8-.1-1.1-.8-1.2-.1 0-.1-.1-.2-.1-.1-.2-.1-.4-.1-.7 0-.2-.1-.4 0-.7.2-.2.5-.3.8-.3.4-.1.4-.2.4-.6-.2-.8-.2-1.7-.4-2.5-.1-.3-.1-.5.1-.8 1.1-.4 1-.4 1.1-1.6 0-.6-.1-1.2-.1-1.8-.1-.7-.1-.8-.8-.8h-.6c-.1 0-.3-.1-.3-.3-.1-.6-.3-1.1-.1-1.8.1-.6-.1-1.1-.2-1.6-.1-.4-.3-.8-.1-1.3.6-.4 1.1-.8 1.3-1.6-.2 0 0 0 0 0z"/><path class="st0" d="M80.2 77.7c.1-.7.3-1.5.4-2.3.1-.6.1-1.3-.1-2 .1.1.3.1.4.1.8.1 1.6.6 1.8 1.4.7 1.7 1.3 3.4 2 5.2.3.7.5 1.4.8 2.1.6 1.3 0 2.5-1.4 3-1.6.6-3.3 1.3-4.9 1.7-.1 0-.3.1-.4.1-.2-.5-.2-1-.4-1.5 0-.6-.3-1.2-.1-1.8.3-.1.7 0 .9-.4.5-.6.8-1.3.8-2.1v-2.9c0-.1 0-.4.2-.6z"/><path class="st4" d="M78.1 53c-.2.1-.1.3-.1.5-.1.6-.6 1-1.1 1.2-.6.2-1.2.1-1.6-.4-.5-.5-.6-1.2-.4-1.8.2-.4.6-.8.9-1.1.3-.2.5-.4.7-.6 1-.8 1.9-1.6 2.8-2.4.6-.6.6-1.3.1-1.9-.4-.6-.9-1.1-1.3-1.6-.5-.8-1.1-1.4-1.6-2.1-.6-.7-1.1-1.3-1.6-2-.4-.5-.4-1.2.1-1.6.4-.4 1.1-.6 1.6-.2l1.6 1.9c.1-.1.1-.3.1-.4v-11c.1.2.1.4.1.6v10.4c0 .5.2 1 .6 1.4 1.1 1.3 2.1 2.6 3 4 .9 1.5.3 3.6-1 4.5-.9.7-1.8 1.6-2.7 2.4-.2 0-.2.1-.2.2zM61.5 28.6c.2-.6-.2-1.1-.2-1.8 0-.5 0-.9-.1-1.4-.1-.4-.2-.4-.5-.4-.1-.4-.4-.6-.4-1.1.3-.4-.2-.3-.4-.4.2.1.4-.1.5-.4.2-.6.8-1.1 1.6-1.1.7.1 1.2.6 1.3 1.3.1.2.1.4.1.6.1.1 0 .3.1.4.1.5-.1 1.1.1 1.6.2 2.8.4 5.5 1.4 8.1.6 1.3 1.2 2.6 2.5 3.5l1.2.6c.1 0 .3.1.4.2-.4.7-.6 1.4-.8 2.2-.3.1-.6-.1-.8-.1-2.2-.8-3.5-2.5-4.5-4.5-.9-2.1-1.6-4.4-1.8-6.6.2-.3.2-.5.3-.7z"/><path class="st5" d="M25 80.7c0 .8.1 1.7-.1 2.5-.5.5-1.2.7-1.9.6h-6.9c-1.2 0-1.8-.6-1.8-1.8v-4.7c.1.1.2.2.2.3.1.4.1.8.1 1.3 0 .9.6 1.7 1.6 1.8.7.1 1.5.1 2.2.2 1.6.1 3.1.3 4.7.4.7 0 1.3.1 1.8-.4-.1-.2 0-.2.1-.2z"/><path class="st0" d="M74.3 87.2h-5.9c-.1-.1-.1-.2-.1-.4.1-.5-.1-1.1-.4-1.5-.1-.6.1-1.1.1-1.8.3-1.2.4-2.4.3-3.6 0-.2 0-.4.1-.6.6-.4.7-.4 1.1 0 .1.1.1.1.1.3.1.8-.1 1.6-.1 2.5 0 1.1.4 1.6 1.6 1.6h4.1c.3-.1.5 0 .8.1.2.5.4 1 .1 1.6-.2.1-.4.1-.6.1-.6.1-.9.4-.9 1-.1.2-.1.4-.3.7zM63.6 26c-.1-.6 0-1.1 0-1.6.5-.2 1-.1 1.5 0l3.4.7c.3 0 .5.1.7.3-.1.2-.3.5-.4.7-.4.6-.9.5-1.4.4-.3.1-.6.1-.8 0-.8-.1-1.8-.4-2.6-.4-.1 0-.3 0-.4-.1z"/><path class="st6" d="M68 85.4c.6.5.4 1.1.4 1.8h-4.2c-.3 0-.4-.1-.4-.4-.1-1.2.2-1.6 1.4-1.6h.4c.9-.1 1.7-.2 2.4.2zm6.3 1.8v-.3c0-1.3.1-1.6 1.5-1.6h.2c.7-.2 1.4-.2 2.1-.1.1 0 .3.1.4.3.3.4.4.9.3 1.5 0 .2-.2.2-.4.2h-4.1z"/><path class="st7" d="M68 85.4c-.8-.2-1.6 0-2.3-.1.1-.6.1-1.1.1-1.6h.2c.7-.3 1.5-.3 2.2 0 0 .5-.1 1.1-.2 1.7z"/><path d="M65.2 24.4h-1.5c-.1-.1 0-.2 0-.4l1.5.4z" fill="#cfcfcf"/><path d="M16.9 51.7c.3.1.6 0 .6.4-.5-.3-.6.4-.9.4 0-.3.3-.5.3-.8z" fill="#cacaca"/><path class="st10" d="M32.1 69.9l5.3.1c.6.1 1.3.1 2 .1.2 0 .4 0 .6.1h14.1c.9-.1 1.8 0 2.8-.1.2 0 .4 0 .6-.1l4.9-.1c.6-.1 1.1.1 1.6-.1l2.3-.1c.2-.1.5-.1.8 0 .1.3.2.6.1 1-.1 1.5-.3 3-.4 4.4 0 .3-.1.6-.1.8-.1.2-.4.3-.6.1h-.6c-.1 0-.1.1-.2 0-2.5-.1-5 .1-7.5.1-.2 0-.5-.1-.7.1-.2 0-.4.1-.7.1H38.7c-3 0-6-.1-9-.3-.5-.1-1 0-1.4-.1-.3 0-.6-.1-.9-.1-.4-.1-.7-.4-.8-.8-.6-1.4-.9-2.9-.9-4.4 0-.8.3-1.1 1.1-1.1 1.1 0 2.3.1 3.5.1.5.4 1.2.2 1.8.3z"/><path class="st11" d="M17.4 52.1c0-.2-.1-.2-.3-.2-.1 0-.2-.1-.3-.2.7-1.2 1.3-2.3 2-3.5.5-.8.7-1.8 1.1-2.7.4-1 .7-2 1.1-3 .3-.7.5-1.6.6-2.3.2-2.8.4-5.5.7-8.2.2-1.6.4-3.1.6-4.7.1-1.2.5-1.6 1.4-1.9.6.1.9.6 1.4.8.2.1.4.1.4.4-.7 1.6-.4 3.3-.8 4.9-.4 1.8-.2 3.7-.6 5.6-.4 1.8-.3 3.6-.5 5.4v.3c0 .6.1.6.6.6.8-.1 1.8-.1 2.6-.4 1.6-.4 3.1-.4 4.7-.6 2.1-.4 4.2-.4 6.4-.6 1.3-.1 2.6-.1 4-.1.4 0 .7.1 1.1.3.2.5.1 1.1-.1 1.6-.2.4-.5.8-.7 1.2l-.2.2c-.2.2-.5.3-.8.2-.4-.1-.8 0-1.3.1-1.8.2-3.6.3-5.4.3-1.8 0-3.7.1-5.5.5-.7.1-1.5.1-2.2.2-1.5.1-2.9.8-4.3 1.3 1.1.1 2.1-.1 3.2-.1s2-.1 3.1-.2c2.5-.1 4.9-.2 7.4-.3 1.5 0 3-.1 4.5-.1.4.1.9 0 1.3.1.1 0 .1.1.1.1 0 .4.1.7.3 1 0 .1-.1.1-.1.1s-.1.1-.3.1c-1.9-.1-3.7-.1-5.7.1-2.8.1-5.5.4-8.3.2-1.7.4-3.4 0-5.1.4-.4.1-.8.1-1.1 0-.6.1-1.1-.2-1.3-.8-.2-.8.1-1.6.4-2.4.2-.4.3-.8.4-1.3 0-.1 0-.1.1-.3.5-.6.3-1.3.4-2-.1.1-.2.3-.2.4-.1.7-.3 1.4-.6 2.1-.5 1-.5 2.1-.8 3.1-.4 1.1-.5 2.4-1.1 3.5 0 .5-.3 1-.7 1.3-.5-.1-1.1-.2-1.6-.5z"/><path d="M65.8 59.6c-.4.4-.6 1-1.1 1.3 0-.4-.2-.4-.5-.4-.6.1-1.3.1-2-.1-.1-.1-.2-.3-.2-.5v-1.1c0-.2-.2-.4-.4-.4-.8-.1-1.5 0-1.9.7-.2.3-.6.5-.9.4h-6.9c-.2 0-.4-.1-.6-.1-.1 0-.1 0-.1-.1-.4-.6-.3-1.1.6-1.7-.6-.4-1-1.1-1.1-1.8s.1-1.3.5-1.9c.1 0 .1-.1.1-.1.9-.1 1.8-.1 2.8-.1h3.7c.6 0 .7-.1.6-.7s-.4-1-.6-1.6c-.2-.4-.4-.4-.7-.4s-.7.1-.8-.4c-.1-.4.4-.4.7-.4.1 0 .1-.1.1-.1 0-.3.3-.3.4-.2.6.1.8-.2.8-.6.1-.1.1-.4.2-.5.1-.3.4-.5.6-.6.1-.1.2-.1.3-.1 1.3.2 2.8.1 4.2.2.4.2.6.5.8.8.6 1.1.8 2.3.6 3.5-.1.4-.1.5.4.6 1.3.1 1.9 1.1 1.4 2.4-.1.1-.1.3-.2.4-.1.1-.1.4 0 .5.1 0 .1.1.1.1.3.1.5.3.7.6 0 .6-.1 1.1-.3 1.7 0 .1-.1.1-.1.1-.4-.1-.8.2-1.2.6z" fill="#acacac"/><path class="st13" d="M26.6 59.7c.4.1.6.4.8.6.8 1.1 1.8 2.2 2.5 3.3.1.1.3.2.2.4h-.2l-13.5-.1c-.8 0-1-.2-.9-1s.1-1.8.1-2.6c-.1-.4.1-.6.5-.8.7-.1 1.5-.1 2.2 0h3.3c.5.1 1 .1 1.4 0 1.1 0 2 .1 3.1.1.2-.1.4 0 .5.1z"/><path class="st10" d="M17.8 75.5c-.4-.2-.6-.5-.8-.9-.5-1.4-.8-2.9-.9-4.5-.1-.4.2-.8.6-.8h.1c.4-.1.8-.1 1.3 0l3.5.1c.4.1.8.1 1.3.1.1 0 .4-.1.5.1.4.2.7.6.8 1.1.2 1.6.4 3.2.7 4.7.1.4-.1.5-.4.6-.7.2-1.5.1-2.3.1-.4-.1-.8-.1-1.3-.1-.4 0-.7-.1-1.1-.1h-.6c-.6-.3-1.1-.1-1.4-.4z"/><path d="M21.4 47.9c.2.4.6.8 1.1.8 1.8-.1 3.7-.1 5.4-.3 1.6-.1 3.2-.1 4.7-.1 1.5-.1 3-.2 4.5-.2 0 .3-.2.2-.4.3-.3.1-.6.3-.7.6-.1.4-.5.6-.8.6l-.1.1c.1.2.4.4.1.6-.3.2-.4-.1-.6-.2-.3-.2-.6-.4-1-.4-2 0-4.1.1-6.1.3-.3 0-.5.1-.7.2.4.1.8-.2 1 .2-.1.3-.1.6-.4.8-.6.1-1.1.1-1.7.1h-2.6c-.6-.1-1.1.4-1.2.9v.7c0 .1 0 .3-.1.4-.2.1-.4.2-.7.1-.3-.1-.5-.1-.7-.4-.1-.1-.2-.1-.3-.2-.2-.4-.6-.6-1.1-.5 0-.1.1-.2.1-.3.3-.2.4-.6.4-.9.1-.1.2-.2.4-.1.3.4.4.1.4-.1.2-.6.3-1.3.6-1.9l.3-.9c0-.1 0-.2.2-.2z" fill="#b0b0b0"/><path class="st15" d="M62.3 60.4h2.6c0 .2-.3.4-.2.6-.1.1-.2.4-.4.4-.3.1-.6.2-.9.1H31.3c-.3 0-.6 0-.9-.1-.4-.3-.8-.6-.8-1.1.1-.1.3-.1.4-.1h31.1c.4 0 .9-.2 1.2.2z"/><path d="M18.2 57.1c.4-1.1.8-2.1 1.3-3 .1-.1.2-.1.4-.2s.4-.1.6 0c.3.8.7 1.1 1.6.8.6-.1.6-.5.7-.8l.1-.1c1.1-.1 2.1-.1 3.1 0 .1.1.2.2.2.4 0 .5.4.6.8.6.7.1 1.3 0 1.4-.8 0-.1.1-.1.1-.1.1-.1.4-.1.5-.1h.3c.3 0 .6.1.7.4v.4l-.9 1.8c-.2.4-.6.6-1 .8-.3.1-.5.1-.8.1h-8.7c-.1 0-.3-.1-.4-.2z" fill="#5e5e5e"/><path class="st10" d="M25 80.7c-.8 1-2 .6-3 .6-1.1 0-2.3-.2-3.4-.3-.9-.1-1.8-.1-2.8-.2-.8-.1-1.6-.9-1.6-1.8 0-.5-.1-1 .1-1.4.6.6 1.5 1.1 2.3 1.1 1.3.1 2.6.2 4 .3.8.1 1.8.1 2.6.1.6.1 1.1-.1 1.8.1h.1c-.1.5-.1 1-.1 1.5z"/><path d="M30.3 61.3h.9c.6.4 1.1.9 1.6 1.6.4.5.9 1 1.4 1.5.1.1.4.3.6.3h.2c6.2.1 12.4.1 18.6.1 2 0 4.1-.1 6.1-.1.4 0 .8-.2 1.1-.5.6-.6 1.2-1.3 1.8-2.1.2-.4.6-.6.9-.8h.8c0 .1-.1.3-.2.4-.1.2-.4.5-.5.6-.3.4-.6.8-.9 1.3-.3.4-.6.7-.9 1.1-.4.6-.9.7-1.6.7H33.8c-.1 0-.2-.1-.3-.1-.1-.3-.3-.4-.4-.6-.1-.4-.5-.6-.6-.8l-.2-.2c-.2-.3-.5-.6-.6-.8l-.6-.6c-.5-.4-.8-.6-.8-1z" fill="#7a7a7a"/><path class="st18" d="M18.2 57.1c.2-.1.4-.1.6-.1h8.5c.3 0 .6 0 .8-.1.1.4.2.7.1 1.1l-.2.2c-.6.1-1.3.1-1.9 0h-2.5c-.3-.1-.6-.1-.8-.1h-4.1c-.2 0-.5 0-.7-.1-.1 0-.2 0-.2-.1l.4-.8z"/><path class="st19" d="M67.1 69.6c-.2.1-.5.1-.7 0 0-.3 0-.5-.4-.5s-.6-.4-.5-.8c.1-.8.3-1.6.4-2.3.1-.6.2-1.3.2-2l.1-.1c.2-.1.4-.1.6 0 .3.6 0 1.3-.1 1.9-.1.4-.1.7-.1 1.1-.1.6-.1.6.6.8.1 0 .2.1.3.1.1.1.1.4.1.5-.1.3-.1.5-.1.8-.2.2-.2.5-.4.5z"/><path class="st20" d="M28.2 58.1l.1-.1c.6-.6.8-1.3 1.2-2 .1-.1.1-.5.4-.2.1.8.1 1.6.1 2.5 0 .3 0 .6.2.8-.3.4-.2.9-.4 1.4h-.4c-.2-.1-.3-.3-.5-.4-.3.1-.2-.1-.1-.3-.3-.2-.5-.5-.6-.8-.2-.4-.2-.7 0-.9z"/><path class="st0" d="M55 79.7c-.1.3-.3.2-.4.2H40.3c-.4 0-.8-.1-1.1-.2H55z"/><path d="M33.5 65.3h26.7c.5 0 1 0 1.2-.6.1-.1.2-.2.4-.3 0 .4-.4.6-.6.8l-.2.2c-.2.1-.4.1-.6.1H34c-.2 0-.4.1-.5-.2z" fill="#7b7b7b"/><path class="st22" d="M33.5 65.3c.2.2.4.1.6.1H61c-.1.1-.4.1-.6.1H33.8c-.2 0-.5.1-.6-.2h.3z"/><path d="M66.1 64h-1.6c-.1-.4.4-.6.4-.8l1.6-2.1c.2 0 .2.1.2.3-.1.8-.2 1.6-.4 2.4 0 .1-.1.2-.2.2z" fill="#fafafa"/><path class="st20" d="M66.1 64c.3-.9.4-1.8.5-2.8 0-.1-.1-.1-.1-.1 0-.1.1-.3.2-.4.2-.1.2-.3.3-.4.1-.1.3-.4.4 0 .1.3.1.6 0 .9-.1.7-.2 1.5-.4 2.2 0 .3 0 .6-.2.6h-.7z"/><path class="st24" d="M57.1 76.3c0-.3.1-.4.4-.4h8c0 .1-.2.1-.2.1-2.7.1-5.5.4-8.2.3z"/><path class="st0" d="M28.2 58.1c-.2.7.4 1.1.6 1.6-.3 0-.4-.2-.5-.4-.4-.4-.8-.7-1.3-.8-.4-.1-.6-.1-.9-.1-.9 0-1.8.1-2.8-.1h-2.8c0-.1 0-.1.1-.1 1 0 2.1-.1 3 .1h4.6v-.2z"/><path d="M67.3 60.2c-.2.2-.4.4-.5.6-.1.1-.1 0-.1-.1.1-.4.2-.9.2-1.3-.1-.3-.1-.6.1-.7.2-.1.4-.1.6 0 .2.5.1 1-.3 1.5z" fill="#757575"/><path class="st0" d="M36.4 79.7H32c-.1 0-.4.1-.4-.2 1.5-.1 3 0 4.5.1.1 0 .3.1.3.1z"/><path class="st4" d="M67 58.6l-.1.7h-.1c-.2.5-.6.3-.8.2.1-.4.5-.8 1-.9z"/><path class="st0" d="M26.6 59.7l-4.5-.1c-.2 0-.4.1-.6-.1h4.6c.2-.1.4-.1.5.2zm3.3 19.8H27c-.1 0-.4.1-.4-.2 1-.1 2 0 3 .1.2 0 .3 0 .3.1z"/><path d="M66.1 76c.1 0 .4 0 .5-.1l.1.1c0 1.1-.1 2.1-.3 3.2 0 .2-.1.4-.4.3.1-.1.2-.2.2-.4 0-.7.1-1.5.2-2.2 0-.3-.1-.7-.3-.9z" fill="#838383"/><path class="st27" d="M29 59.9c.2.1.4.3.5.4.2.3.5.6.7.9.1.3.5.5.6.8-.4-.1-.6-.6-.8-.8-.4-.3-.7-.8-1-1.3z"/><path d="M23.4 58.2h3.3c.1 0 .4-.1.4.2-1.1-.1-2.1-.1-3.2-.1-.3 0-.4 0-.5-.1z" fill="#d2d2d2"/><path d="M61.2 65.3c.1-.4.4-.5.6-.8.3-.3.4-.7.8-.8-.3.6-.8 1.2-1.4 1.6z" fill="#adadad"/><path d="M57.5 70c-.6.1-1.1.1-1.7.1h-1.7c.3-.2.6-.1 1-.1h2.4z" fill="#696969"/><path class="st20" d="M19.9 54l-.4.1c0-.4.4-.8.6-1.1.1 0 .2 0 .4.1l-.6.9z"/><path class="st31" d="M62.6 63.6c.2-.5.6-.9.9-1.3-.1.6-.3 1.1-.9 1.3z"/><path class="st32" d="M20.5 58.1c-.8.1-1.5.1-2.3.1-.1 0-.6.1-.4-.3l.1.1c.6.1 1.3.1 1.8.1.3-.1.6-.1.8 0z"/><path class="st33" d="M19.6 75.8c.8.1 1.6 0 2.5.2h-1.8c-.3 0-.5-.1-.7-.2z"/><path d="M40 70.1c-.8 0-1.7.1-2.5-.1.8 0 1.6 0 2.5.1z" fill="#6c6c6c"/><path class="st7" d="M18.2 59.4H16c.7-.2 1.5-.2 2.2 0z"/><path d="M32.1 69.9c-.6.1-1.3 0-2-.1.7 0 1.4 0 2 .1z" fill="#797979"/><path d="M64.9 63.2c0 .4-.4.5-.4.8-.4 0-.3-.1-.1-.4.1-.1.3-.3.5-.4z" fill="#e0e0e0"/><path class="st37" d="M24.9 79.2c-.6.1-1.2 0-1.8-.1.7.1 1.2-.1 1.8.1z"/><path d="M23.2 69.5c-.6-.1-1.2.1-1.8-.1.7 0 1.2-.2 1.8.1z" fill="#6f6f6f"/><path class="st39" d="M64.1 69.8c-.6.1-1.1.1-1.6.1.5-.1 1.1-.1 1.6-.1z"/><path class="st40" d="M17.8 75.5l1.3.2h-.8c-.3.1-.5.1-.5-.2z"/><path d="M32.2 63.8c.3.2.5.5.6.8-.2-.1-.5-.3-.6-.8z" fill="#a8a8a8"/><path class="st33" d="M31.3 62.8c.2.3.6.4.6.8-.2-.1-.5-.4-.6-.8z"/><path class="st37" d="M63.6 62.3c.1-.3.3-.5.5-.6-.1.3-.2.6-.5.6z"/><path d="M28.3 76c.5-.1 1 0 1.4.1-.4 0-.9 0-1.4-.1z" fill="#777"/><path d="M18 69.3h-1.3c.4-.2.9-.2 1.3 0z" fill="#686868"/><path class="st10" d="M61.5 28.6c.3 2.8.8 5.5 2.1 8 .9 1.7 2.2 3 4.1 3.7.1.1.2.2.2.4.1.9.1 1.8-.1 2.8-.1.2-.4.2-.6.1-.4 0-.8-.1-1.3-.2-3.3-.4-6.6-.8-9.9-1.1-1.9-.1-3.7-.2-5.7-.4-1.8-.1-3.7 0-5.5-.1-.4.1-.7.1-1.1 0-.3-.1-.2-.4-.2-.6-.1-3-2-5.2-5.1-5.5-1.3-.1-2.5.2-3.5.9-.1.1-.2.1-.4.2-.8.6-.9.6-1.7-.1-.9-.8-2.2-1.3-3.5-1.1-.1 0-.3 0-.4.1-.4.1-.6 0-.6-.4-.1-.6-.5-1.2-1.1-1.4-.5-.2-.5-.4-.1-.7 1.5-1.5 1.5-3.7.5-5.4-.2-.4-.5-.6-.6-1.1.1-.1.4-.3.6-.3.8-.1 1.8-.3 2.7-.4.6-.1 1.3.2 1.5.8.1.3.3.6.4.8.2.6.8 1 1.5.9h27c.3.1.5.1.8.1z"/><path d="M27 26.7c1.1 1.4 1.7 3 1.2 4.8-.2.8-.7 1.6-1.3 2 .6.1 1.1.5 1.4 1 .1.1.2.4.2.5-.1.7.4.6.8.5 1.5-.3 3 .2 4 1.3.2.2.4.3.7.1.4-.2.7-.5 1.1-.7 2-1.1 4-1.1 5.9 0 1.8 1 2.9 3 2.8 5v.3s.1.1 0 .1c-1.6-.4-3.2-.2-4.7-.1l-1.9.1c-1.9.1-3.7.4-5.7.6-1.9.2-3.6.6-5.4.8-.5 0-1 .1-1.4.1-.1 0-.2 0-.2-.1-.1-.3-.1-.6-.1-.9.3-1 .1-2 .2-3 .1-1.3.4-2.5.5-3.7 0-.1.1-.2.1-.4-.1-2 .4-4 .6-6.1.1-.5 0-1 .1-1.5s.1-.9.6-1.2c0 .3.2.5.5.5z" fill="#9f9f9f"/><path d="M60.4 24c.1.4.5.6.4 1.1-.1.3-.2.6-.6.7-.1.1-.4.1-.5.1H55c-.8 0-1.6 0-2.5.1H42c-2.3-.1-4.7 0-7-.1-.2 0-.4 0-.6-.1-.5-.3-.8-.8-.8-1.4.1-.2.3-.2.4-.3 1.3-.2 2.5-.3 3.7-.4 1.3-.1 2.6-.2 3.9-.2 1.2-.1 2.4 0 3.6-.1h.1c0-.1-.1-.1-.1-.1.6-.1 1.3-.1 2-.1.8-.1 1.6 0 2.4.1-.1.1-.3.1-.4.1h3.2c.2 0 .4 0 .6.1 2.1.1 4.2.2 6.2.4.4 0 .8 0 1.2.1z" fill="#535353"/><path class="st31" d="M34.5 25.7h7.6c.2.1.4.1.6 0h9.8c.3 0 .6 0 .8.1-.1.1-.4.1-.6.1-3.5 0-7.1.1-10.5 0-2.4-.1-4.9 0-7.3-.1-.1 0-.2.1-.4-.1z"/><path class="st27" d="M53.4 25.8h-.8s-.1-.1 0-.1h7.8c-.1.1-.2.1-.4.1h-6.6z"/><path d="M53 23.4h-4.2v-.1l.8-.1h2.9c.2.1.3.1.5.2z" fill="#515151"/><path class="st47" d="M45.2 23.3c.1.1.4-.1.6.1h-4.2c.3-.2.6-.1.9-.1h2.7z"/><path class="st48" d="M66 79.4c.2 0 .3-.1.3-.3.1-1.1.2-2.1.4-3.2.7-.2 1.5-.2 2.2 0 .1.1.1.2.1.4-.1.8 0 1.7-.1 2.5 0 .2-.1.4-.2.5-.3.6 0 1.1-.1 1.8-.1.8-.1 1.7-.4 2.5H66c-.1-1.2 0-2.3.2-3.5 0-.2-.1-.4-.2-.7z"/><path d="M76.5 38.9c-.3-.1-.6-.1-.8-.1-.6.1-1 .8-.8 1.4.1.2.1.4.3.5l1.5 1.9c.2.5.1 1.1.1 1.6.1 1 .1 2-.1 2.9 0 1.2-.1 2.5.1 3.7-.3.4-.7.8-1.1 1.1-.8.6-.8 1.3-.6 1.9.2.7.8 1 1.8 1-.1.3-.1.6 0 .8.3.9.2 1.9.4 2.9 0 .4-.1.8.3 1.1.2.4.4.9.4 1.4.1.8.2 1.6.3 2.5.1.1 0 .4-.1.5.1 1.1.1 2 .4 3.1.1.7.1.8-.6.8-.2.1-.4.1-.6.2-.7.3-1.5.2-2.1-.1-.1-1.1 0-2.1-.1-3.1-.2-2.1-.3-4.2-.4-6.4-.1-1.5-.1-2.9-.3-4.4-.1-.8-.1-1.6-.1-2.4 0-.4-.2-.6-.6-.6-1.1-.1-2.2-.1-3.3 0H69c-.1 0-.2-.1-.1-.3 0-.2 0-.4-.1-.6-.2-.5-.2-.5 0-.6.1.4.7.4 1.2.4.8-.1 1.8-.1 2.7 0 1.3.1 1.3 0 1.3-1.2 0-2.5-.1-5.2 0-7.7 0-1.1-.1-1.8-1.2-2.2-.1-.1-.1-.3 0-.4.2-.3.4-.6.6-1.1 1-.1 2 .3 2.8 1 .1.1.2.2.2.4l.1.1z" fill="#787878"/><path class="st4" d="M73.6 37.5c0 .5-.3.9-.6 1.3-.4.4-1 .3-1.3-.1-.1-.1-.1-.2-.2-.4.1-.3.3-.2.4-.2.1.1.2.1.4.1.2.1.4-.1.4-.3.1-.2-.1-.2-.3-.2-.2-.1-.4-.1-.7-.1-.2 0-.4-.1-.4-.4 0-.2-.1-.4.2-.5.1 0 .2.1.3.1.4.3.9.2 1.3-.1s.3-.8.3-1.1-.2-.2-.4-.2c-.6.1-1.1.3-1.7.1-.8-.1-1.6-.4-2.3-1-.5-.5-.9-1-1.3-1.6-.3-.8-.4-1.6-.4-2.4-.1-.2 0-.4.1-.6h5.9c.4 0 .6-.1.6-.6v-.6c0-.1-.1-.4.1-.4s.4.1.4.3c.1.3.1.6.1 1v.8c.1 0 .1.1.1 0 .5-.4 1-.6 1.6-.2s.6.9.5 1.5c0 .1 0 .2-.1.3-.7.6-.9 1.5-1.6 2-.3.3-.6.5-.8.7-.4.2-.6.6-.5 1 0 .7.1 1.3-.1 1.8z"/><path class="st10" d="M67.5 30c-.1 1 .1 2.1.4 3 .3 1.4.1 2.8.1 4.2 0 .1 0 .4-.3.4-1.3-.8-2.1-2.1-2.6-3.5-1-2.6-1.3-5.3-1.4-8.1 1.3-.1 2.5.4 3.7.4-.5.6-.8 1.3-.6 2.1v.8c-.1.6.1.8.7.7z"/><path class="st50" d="M73.6 37.5V37c-.1-1.1-.1-2 1.1-2.5.3-.1.5-.4.6-.6.4-.7.8-1.3 1.4-1.9.1.1.1.2.1.4v6.4c0 .4-.1.4-.4.1-.6-.7-1.5-1.2-2.5-1.3 0-.1-.1-.1-.3-.1z"/><path class="st48" d="M77.8 75.8c.1 1-.1 2 .2 2.9.2.6.3 1.3.3 1.9.1.8.1 1.6.2 2.3.1.2 0 .5-.1.7-.8.2-1.6.2-2.3 0-.3-.4-.2-.8-.3-1.2-.1-.5-.1-.9-.1-1.4.1-.6-.1-1.3-.4-2 0-.3 0-.5.1-.8.1-.5.1-1 .1-1.5-.1-.3-.1-.6.1-.9h2.2z"/><path class="st4" d="M77.8 75.8c-.7.2-1.5.1-2.2.1-.4-.1-.2-.4-.4-.6-.1-2-.3-4-.4-6-.1-.3 0-.5.1-.8.7-.2 1.4-.3 2.1-.3.1 0 .2.1.2.2l.1.8c.1.1.2.3.2.4.1 1.1.1 2.3.2 3.4 0 .2 0 .4-.1.6.2.9 0 1.6.2 2.2z"/><path class="st6" d="M78.3 83.6c0-1-.1-2-.2-3 .4-.1.7-.2 1.1-.4.5-.4.8-.8.8-1.5 0-.4 0-.7.1-1 0-.1.1-.1.2-.1v3.7c0 .8-.5 1.5-.8 2.1-.2.4-.7.4-1 .2-.2.1-.2.1-.2 0z"/><path class="st19" d="M78 63.8l-.6-4.4c.4-.2.8 0 1.2 0 .3 0 .4.4.4.6.1.9.1 1.8.1 2.8.1.4-.1.8-.6.9h-.1c0 .1-.3.1-.4.1z"/><path class="st24" d="M80 77.8c.4 1.4 0 2.4-1.3 3-.2.1-.4.1-.6 0l-.1-2c.8-.1 1.5-.5 2-1z"/><path d="M77.6 73.8l-.4-4.5c.4-.1.9.1 1.1.5.1.1.1.2.1.4-.1 1.2-.4 2.3-.6 3.5 0 0 0 .2-.2.1z" fill="#363636"/><path class="st2" d="M77.2 68.6c-.4-.1-.8 0-1.3 0-.3 0-.6.1-1 .1-.2-.2-.1-.5-.2-.7.1-.1.1-.2.3-.1.5.2 1 .1 1.5.1h.6l.1.6z"/><path class="st4" d="M78.3 83.6c.1.6.1 1.3.2 1.9-.6-.4-1.2-.2-1.8-.2H76c.2-.5-.1-1 0-1.4-.1-.1-.1-.1 0-.1l2.3-.2z"/><path class="st13" d="M76.8 50.8c-.3-.4-.4-.8-.4-1.1.1-.7 0-1.4 0-2 0-.1 0-.4.1-.5.1-.3.3-.5.5-.6.3-.4.6-.8.8-1.2.1-.1.1-.4.3-.4.6.2.7.8 1.1 1.2.1.1.4.4.5.6.4.5.4 1.2.1 1.7-1 .7-1.9 1.5-3 2.3z"/><path class="st3" d="M78.1 44.7c-.3.9-.8 1.7-1.6 2.3v-4.4c.4.6.8 1.1 1.3 1.6.2.3.3.4.3.5z"/><path class="st52" d="M71.5 38.2c.3.6.9.8 1.5.5.2.1.5.2.7.4.4.2.7.6.7 1.1v9.5c0 .4-.1.6-.6.6-.8-.3-1.5-.3-2.2-.3-.5 0-1.1 0-1.6.1-.6.1-1.1.1-1.5-.5h-.1c-.2-.4-.4-.8-.3-1.3v-2c.1-.1.1-.4.1-.6v-.8c-.1-1.3.1-2.6.1-4 0-.2 0-.4.1-.6.1-.8.3-1.6.8-2.2-.1-.1.1-.4.2-.4.5-.4 1.1-.6 1.8-.4.3.4.2.7.3.9z"/><path class="st50" d="M71.3 37.5c-.8-.1-1.5.2-2 .8-.1 0-.3 0-.4-.1s-.1-.3-.1-.5V35c0-.2 0-.4.3-.5.6.6 1.4.8 2.3 1 .3.3.1.7.1 1.1-.2.2-.1.6-.2.9z"/><path d="M69 34.5c-.1.1-.1.3-.1.5v3.2c-.4-.1-.8-.2-1.2-.5.2-.1.1-.4.1-.6V33c.4.6.7 1.1 1.2 1.5z" fill="#626262"/><path d="M68.5 40.5c.1 1.6-.1 3.1-.1 4.7-.4-.2-.4-.5-.4-.7 0-.4 0-.7-.1-1v-2.6c0-.2 0-.4-.1-.6l.7.2z" fill="#606060"/><path class="st0" d="M74.9 67.9c.1.2.1.5.1.7v.7c-.2.1-.4.2-.6.2-.8-.1-1.7.1-2.5.1-.8.1-1.1.3-1.3 1.1-.3 1.3-.4 2.8-.6 4.2-.1.6 0 .8.7.8 1.3.1 2.6 0 4-.2.2-.1.5-.1.7-.1.1.1 0 .4.1.5-.1.6.1 1.2.1 1.8-.1.4-.2.8-.3 1.3-.1.3-.3.4-.6.4-.3.1-.6.1-.8 0-1.3-.4-2.5-.1-3.7 0-.2.1-.5 0-.7-.1-.2-.4-.6 0-.8-.1.1-1.1 0-2.3.2-3.3 0-.9.1-1.8.2-2.8.1-1.6.3-3 .4-4.6 0-.3.1-.6.3-.8.2-.1.5-.2.8-.2h3.7c.1.1.4.2.6.4z"/><path d="M76 83.6v.2h-5c-.8.1-1.6-.6-1.6-1.4v-.3c.1-.8.1-1.8.1-2.7.4.1.3.4.3.6.1.8.4 1.1 1.3 1.1 1.4-.1 2.9-.1 4.3-.4.1 0 .4 0 .5.1 0 1.1 0 2 .1 2.8z" fill="#6d6d6d"/><path class="st24" d="M75.8 81c-1.6.1-3.3.3-4.9.4-.6.1-1.1-.3-1.3-.8v-.2c0-.3.1-.6-.1-.8l-.1-.1c1.2-.1 2.3-.2 3.5-.2.5 0 .9.3 1.4.2.4 0 .7-.1 1-.4.5.4.3.8.4 1.3.1.2.1.4.1.6z"/><path class="st13" d="M57.4 72.3v2.1c.1.4-.2.8-.6.8H37.9c-.9 0-1.1-.2-1.1-1.1v-1.8c.3-.1.6-.2.9-.1 4.7.1 9.3.1 13.9.1 1.6 0 3.3-.2 4.9-.1.4 0 .6-.1.9.1z"/><path class="st0" d="M57.4 72.3c-5.4.1-10.7.1-16 .1-1.5 0-3-.1-4.5-.1v-.6c-.1-.4.2-.8.6-.8h19c.6 0 .9.3.9.9v.5z"/><path class="st4" d="M69.5 68.6c0 1.1-.1 2.3-.3 3.4-.1 1.2-.2 2.4-.4 3.6 0 .1-.1.2-.1.3h-2.2v-.1c.2-1.9.4-3.9.6-5.8v-.4c.3-.4 0-.8.1-1.2.8-.2 1.6-.1 2.3.2z"/><path class="st0" d="M67.8 43.4c.3 0 .3.1.3.4.1.4-.1.9.2 1.3v.7c-.1.2-.4.3-.6.1-.3-.1-.6-.1-.9 0-.5 0-1-.1-1.5-.1-2.8-.4-5.7-.7-8.6-.8-.8 0-1.8-.1-2.7-.1-.2 0-.5-.1-.7-.1-.3-.1-.5-.1-.8-.1h-8.9c-.3 0-.5.1-.8-.1v-.1c.4-.8 1-1.6.9-2.5v-.1c2.6-.1 5.3-.1 7.9 0 2.2.1 4.3.3 6.5.4 1.7.1 3.5.4 5.2.6 1.1.1 2.2.3 3.3.4.4.1.8.2 1.2.1z"/><path class="st0" d="M53.4 44.7c.1.1.2.1.4.1 1.4-.1 2.8 0 4.2.1 1.9.1 3.9.3 5.8.6 1 .1 2 .3 2.9.4.1 0 .1-.1.2-.1s.1.1.1.1c.1.4.1.9 0 1.4 0 .1-.1.1-.1.1h-.2c-.8-.1-1.6-.1-2.3-.1-1.3.1-2.5-.4-3.8-.2h-1.1c-.4 0-.8 0-1.2-.1H43.6c-.2 0-.4 0-.6-.1h-1.5c.2-.4.6-.1.9-.2-.1-.3-.4-.5-.7-.6-.6-.4-.6-.4-.1-.8-.4-.1-.7.1-1-.2.4-.1.8-.1 1.2-.1.3 0 .6-.1.8-.2.1-.1.2-.1.4-.1h10c.1-.1.3-.1.4 0z"/><path class="st56" d="M27.8 50.4c-.1-.1-.4-.1-.6-.1-.3.1-.6.1-.8-.1.4-.5 1.1-.5 1.6-.6 1.8-.1 3.5-.3 5.3-.2.6 0 1.2.2 1.6.6.1.1.1.2.3.1.1-.1 0-.3-.1-.4-.7-.6-.1-.5.3-.5.2 0 .4-.1.5-.4.1-.5.6-.8 1.1-.8.1 0 .1-.1.1-.1.8-.1 1.6-.2 2.4-.2 1.1 0 2.2 0 3.3.1.2.4.1.8-.1 1.1-.3.4-.2.8.1 1.1s.6.6.9.8c.7.5 1.6.5 2.4.8 0 .4-.1.4-.2.4-1.5.1-3 0-4.5.1h-2c-.5-.2-.9-.4-1.4-.5-.6-.1-1.1-.1-1.6.1-.4.1-.6.4-.6.8 0 .2 0 .4-.1.6-.9.4-1.9.2-2.9.2-.2 0-.4 0-.6-.1-.6-.2-.5-.8-.6-1.2 0-.1 0-.2.1-.4.1-.1.2-.4.2-.5 0-.4-.1-.6-.4-.6-.6-.1-1.3-.1-2-.3-.4 0-.7 0-1.1.1-.2.2-.4.2-.6.1z"/><path d="M43.7 51c-.4-.2-.7-.5-1-.8-.3-.4-.4-.7 0-1.1.2-.3.4-.7.3-1.1l.1-.1c.4-.1.7-.1 1.1-.1h12.4c.5.1 1 .2 1.5.2.3 0 .5.2.6.4v.1c-.1.3-.2.6-.3.8-.1.5-.4.4-.7.4-.2 0-.5 0-.6.1-.8.3-1.5.8-2.3 1.1-3.3.1-6.6.1-9.8 0-.5.1-.9.1-1.3.1z" fill="#4b4b4b"/><path class="st15" d="M40.6 45h1.2v.2c-.5.4-.5.4.1.8.3.2.6.4.7.8-.4.1-.8-.1-1.1.1-2.7.1-5.4.1-8.1.3-1.7.1-3.3.1-5 .2-1.8.1-3.5.3-5.3.3h-.4c0-.2.2-.2.3-.2 1.9-.9 4-1.4 6.1-1.6 1.3-.1 2.8-.4 4.1-.6.4 0 .6-.1 1-.1 2.2 0 4.3 0 6.4-.2z"/><path class="st0" d="M58.4 47.1h1.1c.4.1.7.1 1.1 0 .6 0 1.2-.1 1.8 0 .7.2 1.4.1 2.1.1.6.1 1.1.1 1.7.1.2 0 .4-.1.6.1h.1c.2.1.3.4.2.6-.1.4-.4.2-.7.3-.9 0-1.9-.1-2.8-.3-1.2 0-2.4-.2-3.6 0-.1 0-.2-.1-.3-.1-.2 0-.4-.2-.6 0-.8.1-1.6.1-2.3-.1-.1 0-.1 0-.2-.1H45c-.6.1-1.2 0-1.8-.1-.4-.1-.6-.4-.4-.8.7-.1 1.5-.1 2.2-.1.4 0 .7 0 1.1-.1h2.3c.7.1 1.4.1 2.1.1H54c1.3.1 2.5 0 3.7.1.3.1.5.1.7.3z"/><path class="st56" d="M21.4 47.9c-.4.3-.3.7-.4 1.1-.2.6-.4 1.1-.5 1.8-.1.2-.1.4-.3.6-.1.1-.1.2-.3.2-.1 0-.1-.1-.1-.2 0-.3-.1-.3-.3-.1.6-1.2.8-2.5 1.2-3.8.3-1.3.7-2.6 1.3-3.8.2-.5.1-1.1.4-1.6.1-.1.1-.3.3-.4 0 .7.2 1.5-.1 2-.5 1.1-.7 2.2-1.1 3.3-.1.3-.1.6-.1.9z"/><path d="M43.2 47.8H45c.1 0 .2-.1.3 0h11c.1 0 .2 0 .4.1l.1.1h-13c-.2 0-.4.1-.6-.2z" fill="#454545"/><path class="st11" d="M53.4 44.7H42.7l.1-.1h10c.2 0 .4-.1.6.1z"/><path d="M46.2 46.9c-.1.2-.4.1-.6.1h-2.7v-.1h3.3z" fill="#ccc"/><path class="st60" d="M50.6 55.8c.1.8.6 1.5 1.3 1.8-.4.1-.6.4-.8.6-.2.3-.2.7 0 1 0 .2-.2.2-.4.2h-1c-.1 0-.1 0-.1-.1-.3-.4-.6-.7-1-1-1.6-1.3-3.9-1-5.1.6v.1l-.4.4c-.1 0-.1.1-.1.1-.2.1-.4.1-.6 0-.7-.2-1.5-.2-2.2 0h-4.5c-.4.1-.6-.1-.8-.4-.4-.6-1.2-1-2-.8h-.7c-.4 0-.8.1-1.1-.3-.1-.3-.2-.6-.1-.8 0-.3 0-.6-.1-.8 0-.4-.1-.7.3-1 .8.1 1.5.2 2.3.2h16.7c.2-.2.4-.1.4.2z"/><path d="M50.6 55.8c-.1-.1-.1-.2-.4-.1-1.4.1-2.8.1-4.2.1H32.3c-.4.1-.8-.1-1.2-.3-.1-.1-.1-.1-.1-.2.2-.7.6-1.3 1-2 .4-.1.7 0 1 0 .8 0 1.7 0 2.5-.1.6.9 2.5.8 3.3.5.4-.2.5-.5.3-1.1 0-.2 0-.4.1-.6h2.2c.1.4.1.7.1 1.1 0 .6.1.7.7.7h8c.3 0 .5-.1.7.1-.2.5-.3 1.2-.3 1.9z" fill="#4a4a4a"/><path class="st62" d="M51.1 53.8h-8.8c-.7 0-.8-.1-.8-.8-.1-.4 0-.7.1-1.1h4.5c-.8-.3-1.7-.4-2.4-.9.4 0 .9-.1 1.3-.1 2.8.1 5.5 0 8.3 0 .5 0 1 0 1.5.1-.1.6-.6 1.1-.8 1.6-.1.1-.2.2-.4.1-.8-.1-1.8.3-2.3.9 0 .1-.1.2-.2.2z"/><path class="st63" d="M51.2 53.8c.5-.8 1.3-1.2 2.3-1.1.4.1.6-.1.7-.5.2-.4.4-.8.7-1.2.6-.5 1.3-1 2.2-1.1h.5c-.2.4-.6.2-.8.4-.1.1-.4.1-.3.3 0 .2.2.1.4.1h.4c.4 0 .8.3.8.8.1.6.4 1.1.5 1.6.1.6-.1.7-.6.7h-4.4c-.7 0-1.6-.1-2.3.1-.1 0-.1 0-.1-.1z"/><path class="st60" d="M68.7 50.7v.3c.1.4.1.7 0 1.1 0 .1-.1.2-.1.1-.4-.3-1 0-1.3-.6-.2-.3-.6-.4-.8-.1-.3.1-.1.5 0 .7.5 1 1 2 1.6 2.9 0-.1 0-.4.1-.4.3 0 .1.3.2.4 0 .7-.1 1.3-.4 2-.4.2-.4-.2-.6-.4-.3-.4-.9-.4-1.1-.7-.1-.3.4-.7.4-1.1.2-1.1-.4-1.9-1.6-1.9-.4 0-.5-.1-.4-.5.4-1.3.1-2.5-.5-3.7 0-.3.2-.1.4-.2.8 0 1.6.1 2.3.4.4.2 1 .2 1.4.4l.2.6c0 .3-.2.3-.4.4-.2.1-.4.4-.6.6.2 0 .4-.2.5-.3.3 0 .5-.2.7 0z"/><path class="st64" d="M40.3 59.3c.7-.3 1.5-.3 2.2 0 .2.1.4.3.6 0 .1-.1.4-.1.6-.1H49c.2 0 .4 0 .6.1h.1c.1.1.2.1.2.2.1.4.4.5.8.4.5 0 1 0 1.5-.1 1.8 0 3.5-.1 5.3 0 1.1.1 2.1-.1 3.2.1.3 0 .6 0 .9-.1.2-.1.4-.1.6 0 0 .1 0 .3.1.4-.4-.1-.7 0-1.1 0H39.3c.2-.3.5-.7 1-.9z"/><path class="st64" d="M62.2 59.9c-.6.2-1.3.3-2 .1h-8.3c-.4 0-.8.2-1.3 0 .1-.4.6-.4.6-.8.5.1 1.1.1 1.6.1h6c.3 0 .6-.1.8-.4.6-.7 1.5-1.1 2.4-.8.2.1.2.2.2.4v1.4z"/><path d="M58.2 54.3c.2.1.3.3.2.5s-.3.1-.4.1h-3.5c-.5 0-.6-.2-.4-.6 1.3-.1 2.7-.1 4.1 0z" fill="#ddd"/><path d="M67 49.3c-.8-.4-1.8-.5-2.8-.4-.2-.3-.4-.6-.7-.8l2.8.1c.2.1.5 0 .8.1.1.2.2.4.2.6.1.3 0 .4-.3.4z" fill="#646464"/><path class="st67" d="M67.3 56.8l.5.4c.3.5 0 .9-.2 1.3H67c.1-.5.3-1.1.3-1.7z"/><path d="M51.2 59.2c.1.6-.4.6-.6.8-.4.1-.6.1-.6-.4-.1-.1-.1-.3-.1-.4.3 0 .8.2 1.3 0z" fill="#7e7e7e"/><path d="M56.8 47.9c.8.1 1.6-.1 2.4.1l-.5.6c-.2-.4-.6-.6-1-.4-.3 0-.6-.2-.9-.3z" fill="#717171"/><path class="st63" d="M58.2 54.3H54c.1 0 .1-.1.1-.1H58c.1 0 .1.1.2.1z"/><path class="st32" d="M31.7 51.7v.3c-.3.6-1 1.1-1.7 1h-2.1c-1.4.1-2.9 0-4.3 0-.5 0-.9 0-1.4.1-.1.1-.4 0-.4-.1-.1-.6.1-1.2.4-1.7.1-.2.4-.2.6-.2h4.8c.1-.1.4-.1.4.1.6.8 1.7 1 2.5.5.4-.2.8-.2 1.2 0z"/><path d="M31.7 51.7c-.4 0-.9.1-1.3.3-.7.4-1.5.2-2.3-.1-.1-.1-.2-.1-.2-.3 0-.3-.2-.4-.4-.4.2-.2-.1-.6.3-.7.8-.2 1.6-.4 2.5-.1.3.1.6.1.9.1s.6-.1.7.3c.1.2.2.7-.2.9z" fill="#b8b8b8"/><path d="M21 53.4h.7c.6-.1.9.1 1 .6 0 .1 0 .2-.1.3-.4.4-1.7.4-2 .1-.2-.1-.2-.4-.1-.6.2-.4.4-.4.5-.4z" fill="#8f8f8f"/><path class="st72" d="M22.7 53.9c-.1-.5-.6-.4-.9-.5V53c.6-.1 1.2-.2 1.8-.2.4.2.6.5.4 1-.4.1-.8-.1-1.1.1h-.2z"/><path class="st73" d="M21 53.4c-.1.1-.3.2-.4.2s-.1.2-.2.3l-.6.1c.1-.4.3-.7.6-1l.6.4z"/><path d="M63.4 61.4c-1 1.1-1.8 2.1-2.9 3.2-.2.2-.5.4-.8.3h-2.3c-5.5.1-11.1.1-16.7 0-2 0-4-.1-6.1-.1-.2 0-.4-.1-.5-.2-1-1.1-1.9-2.2-2.9-3.3h2l30.2.1z" fill="#969696"/><path d="M40.3 59.3l-1 1.1h-7.2c-.1-.1-.1-.1-.1-.2v-1.5c0-.2.1-.4.3-.5h.8c.7-.1 1.5.2 1.8.8.1.2.4.4.6.3h4.8z" fill="#828282"/><path class="st5" d="M32.1 60.3l-2.2.1v-.6c-.1-.3.1-.6.4-.7-.1-.1-.1-.4-.1-.6.1-.3.3-.5.6-.5s.1.4.1.6v.2c-.1.3 0 .6 0 .8-.1.6-.1.6.6.6.3-.1.5 0 .6.1z"/><path class="st76" d="M28.7 52.9h.6c.9.1 1.8 0 2.5-.8.1.4-.1.9.4 1.1-.3.8-.8 1.4-1 2.2l-.1.9c.1.4.1.8 0 1.3 0 .2-.1.3-.3.4-.2 0-.2-.1-.2-.3 0-.6-.2-1.3-.6-1.8-.1-.4-.2-.7-.1-1.1 0-.1.1-.4 0-.5-.1-.3-.4-.3-.6-.4.1-.4 0-.8-.6-.8v-.2z"/><path class="st13" d="M25.5 56.4h-1.9c-.1 0-.4.1-.4-.1s.1-.4.3-.6c.1-.1.1-.1.2-.1h4.2c.1 0 .2 0 .2.1s-.1.3-.1.4c-.1.1-.4.2-.6.2l-1.9.1z"/><path class="st40" d="M29.9 54.2c.1.1.1.3.1.4-.1.6.1 1.2.4 1.6.2.4.4.8.3 1.2 0 .1-.1.3.1.3s.2-.1.2-.3v-1.3c.1.4.1.8.1 1.1 0 .2 0 .4.1.6.1.3 0 .6-.3.7-.4-.1.1-.5-.2-.6-.4.1-.4.6-.4.9-.4.1-.4-.1-.4-.4v-3c-.3-.4-.1-.8 0-1.1v-.1z"/><path d="M29.9 54.5v1.1l-.8 1.6c-.1.4-.4.6-.7.7-.2-.4-.1-.7-.1-1.1.7-.3.8-1.1 1.2-1.6.1-.1.3-.4.4-.7z" fill="#393939"/><path class="st72" d="M28.7 52.9c.1.1.1.1.3.1.6.1.7.5.4.9h-.2c-.1-.1-.4-.3-.5 0v.1h-.1c-.4-.3-.9-.4-1.4-.4-.1.1-.4 0-.4-.1.1-.4.5-.4.8-.4.2 0 .4-.1.6-.1l.5-.1z"/><path class="st67" d="M20.4 53.9c0-.1.1-.3.2-.3-.2.5 0 .6.4.7.8.1 1.4 0 1.6-.4l.1.1c-.1.8-.3 1.1-1.3 1-.9-.1-.9-.2-1-1.1zm8 0h.1c-.1.8-.3 1.1-1.3 1-.9 0-1.1-.1-1.1-1.1v-.2h.1c.5.5 1.3.6 1.9.3.2.1.3 0 .3 0z"/><path class="st32" d="M26.2 53.8c0 .1 0 .1 0 0l-3.3.1c0-.1.1-.2.2-.1.3.1.6.1.9.1.7-.4 1.5-.4 2.2-.1z"/><path class="st76" d="M28.6 53.9c0-.1-.1-.4.1-.4.2-.1.4.1.4.4h-.5z"/><path d="M20.5 58.1c-.6 0-1.3 0-2-.1-.2 0-.4 0-.6-.1.3-.2.5.1.7 0H23c.2 0 .4-.1.6.1l-3.1.1z" fill="#4c4c4c"/><path class="st52" d="M67.6 58.6c0-.5.3-.9.2-1.3.1-.7.3-1.3.4-2.1.1-.1.1-.3 0-.4-.1-.3 0-.6.1-.8.4-.5.5-1.1.3-1.8 0-.4 0-.8.1-1.1.6-.2 1.2-.1 1.8-.1 1.1-.1 2.2 0 3.3 0 .3 0 .5.1.5.5 0 .8 0 1.7.1 2.5.1 2.1.2 4.2.4 6.3.1 1.2.1 2.4.2 3.6s.2 2.4.2 3.6c0 .2.1.4-.1.6-.1 0-.1 0-.2.1-.6-.1-1.1-.1-1.6-.1-1.2 0-2.4-.1-3.6.1-.8.2-1.6.2-2.3 0-1.1-.1-1.1-.1-1-1.1.2-.9.3-1.8.4-2.8.4-1.3.6-2.5.6-3.9.1-.7.2-1.2.2-1.8z"/><path class="st2" d="M67.3 67.9h2.3c-.1.2-.1.5-.1.7l-2.3-.2c.1-.1.1-.3.1-.5z"/><path class="st20" d="M52.5 25.7l-10.1.1c-.1 0-.2 0-.4-.1h10.5z"/><path class="st18" d="M68.7 50.7c-.4 0-.5.3-.7.5-.1.1-.3.2-.4.1s0-.3.1-.4c.3-.3.6-.5.9-.7.2.1.2.3.1.5z"/><path class="st0" d="M71.3 36.5l-.1-1.1c.6.1 1.2.1 1.8-.1.4-.1.6 0 .5.4s.1.8-.2 1.2c-.5.5-1.2.5-1.7 0l-.1-.1c-.1 0-.1-.2-.2-.3z"/><path class="st4" d="M71.3 36.5c.2 0 .2.1.2.3-.2.6-.1.6.4.6.1 0 .3.1.4.1.2 0 .6.1.6.4-.1.3-.4.4-.6.6-.1.1-.1-.1-.2-.1-.2-.1-.4-.3-.6-.1-.1-.2-.2-.4-.2-.6v-1.2z"/><path class="st39" d="M70.4 33.3c.1 0 .1 0 0 0 .4.1.8-.1.8.4 0 .4-.4.1-.6.1-.1 0-.3 0-.4.1s-.4 0-.4-.1.1-.3.3-.4c.1-.1.2-.1.3-.1z"/><path d="M75.5 75.5c-.1.4-.5.2-.8.2-1.4.2-2.8.2-4.1.2-.7 0-.8-.2-.6-.8l.6-4.5c.1-.6.6-1.1 1.1-1 1.1-.1 2.2-.1 3.3-.1l.5 6z" fill="#373737"/><path d="M66.9 47.4v-1.5c.5 0 1-.1 1.3.3v1.3c-.4.3-.9.2-1.3-.1z" fill="#747474"/><path class="st47" d="M67 49.3c.2 0 .3-.1.2-.4-.1-.2-.1-.4-.1-.6.4-.2.8-.2 1.1 0 0 .4.1.8.2 1.3-.4 0-.9-.1-1.4-.3z"/><path d="M68.2 48.3h-1.1c-.3-.1-.5.1-.8-.1.7 0 .8-.1.5-.7v-.1c.4.2.8.1 1.3.1.1.3.1.6.1.8z" fill="#858585"/><path d="M68.2 46.2c-.4-.1-.9-.2-1.3-.3l-.1-.1c.2-.1.5-.1.7 0 .3.1.5 0 .7 0 .1.1.2.3 0 .4z" fill="#505050"/><path d="M58.4 47.1h-4c-.1 0-.3 0-.4-.1.4-.1.7 0 1.1-.1h3s.2-.1.3.2z" fill="#b6b6b6"/><path class="st84" d="M55 46.9c-.4.2-.7 0-1.1.1h-5.1c-.2 0-.4.1-.6-.1H55z"/><path d="M66.8 47.5c-.8-.1-1.6.1-2.3-.2h1.9c.1 0 .4-.1.4.2z" fill="#bbb"/><path class="st84" d="M60.6 47.1c-.2.3-.6.4-.9.2l-.2-.2h1.1z"/><path class="st62" d="M39.5 51.9c0 .2 0 .4-.1.5-.1.2-.3.4-.5.4-.9.4-1.9.3-2.8-.1-.1-.1-.3-.2-.4-.3-.1-.5.2-.7.6-.8 1.1-.4 2.2-.3 3.2.3z"/><path class="st60" d="M35.7 52.4c.8.5 1.8.6 2.8.4.4-.1.6-.2.9-.4.3.3.3.8 0 1.1l-.1.1c-.9.4-2 .5-3 .1-.3-.1-.6-.4-.6-.6v-.7z"/><path class="st31" d="M56.7 47.8H45c.1-.1.4-.1.5-.1h10.7c.2 0 .4-.1.5.1z"/><path class="st22" d="M49.7 59.3h-6.5c.6-.9 1.5-1.6 2.5-1.8 1.5-.3 3.1.4 4 1.8z"/><path class="st73" d="M31 58.7c.1-.2.2-.5.4-.7.3.3.6.2.9.2-.2.7-.1 1.4-.1 2-1.4 0-1.4 0-1.3-1.3-.1-.1 0-.2.1-.2z"/><path d="M43.1 59.3c-.2.6-.4.1-.6 0h.6z" fill="#8c8c8c"/><path class="st18" d="M68.6 52.1c.3.6.4 1.1-.1 1.6-.4.4-.2 1-.4 1.4v-.4c-.1.2 0 .4-.1.6-.6-.8-1-1.6-1.4-2.5-.2-.3-.4-.6-.4-.9-.1-.3-.1-.6.2-.7.4-.1.8-.2 1 .2.1.4.3.4.6.3.2 0 .4.3.6.4z"/><path class="st76" d="M26.2 53.8H24c-.1-.4-.2-.7-.4-.9H28c0 .2-.1.3-.4.3-.4 0-.7.1-1 .4-.1 0-.3.1-.4.2z"/><path d="M26.2 53.8c0-.2.3-.2.4-.4.4.1.8-.2 1.3 0 .2.1.5.1.6.4-.4.5-1.6.6-2.1.3-.1 0-.1-.2-.2-.3z" fill="#8e8e8e"/><path d="M30.9 31.5L68.6 71m-37.5-1l37.5-39.5" fill="none" stroke="#e91630" stroke-width="4" stroke-linecap="round" stroke-miterlimit="10"/></svg>