<svg version="1.1" id="Calque_1" xmlns="http://www.w3.org/2000/svg" x="0" y="0" viewBox="0 0 105 105" xml:space="preserve"><style>.st0{fill:#404040}.st2{fill:#484848}.st7{fill:#cbcbcb}.st12{fill:#3f3f3f}.st13{fill:#acacac}</style><path class="st0" d="M55.8 30.4c.6.1 1.1.3 1.7.4v.1c-1 .7-.4 1.6-.2 2.4.2.7.4 1.5.6 2.2.1.5.2 1-.1 1.4-.9 1.2-.9 2.6-.2 4 .2.5.2 1.1-.1 1.6-.4.8-.5 1.6-.4 2.5 0 1.4 0 2.9.1 4.3 0 1.3.1 2.5 0 3.8 0 .4-.1.7.6.7.3 0 .9 0 1 .6v2.4c0 3.1-.1 6.1-.1 9.2 0 2.4.3 4.7.5 7l.3 3.9c.2 2.1.3 4.3.5 6.4.1.7.7 1.1 1.1 1.6.6.8 1.2 1.6 1.9 2.4l.3.6c.3.5.4 1-.1 1.4-.6.5-.8-.2-1-.3-2-1.3-3.9-2.7-5.9-4.1-.3-.2-.3-.3 0-.5 1.1-.6 1-1.5.7-2.6-1.1-4.2-2.1-8.4-3.1-12.6-.6-2.7-1.2-5.3-1.9-8.2-.3 1.4-.6 2.6-1 3.9-.8 2.7-.8 5.4-.9 8.2-.1 3.1-.2 6.3-.4 9.4 0 .8 0 1.5.6 2.2.7.9.6.9-.4 1.3-2.2.7-4.3 1.4-6.5 2.2-.3.1-.6.3-.8 0s-.2-.6-.1-1c.1-.3.3-.6.6-.8 1.2-.9 2.4-1.7 3.6-2.5 1-.2.9-.9.8-1.7-.5-4-.7-8-1.2-12.1v-1c0-.6.2-.8.8-.7.4.1.8.2 1.4.2-.5-.5-.9-.8-1.3-1.1-.6-.5-.8-1.1-.8-1.8v-3c.1-2.2-.2-4.5-.1-6.7 0-.5-.2-.8-.8-.8-.3 0-.6-.1-.8-.3H43c-.2-.4.1-.8 0-1.2v-2c.1-.5 0-1 .1-1.5v-1.3c.1-.6 0-1.2.1-1.7v-1.1c.1-.6 0-1.2.1-1.9v-.7c.1-.8 0-1.5.1-2.3v-.9c.2-.4-.2-.8.1-1.1.1-.2.3-.4.5-.4.3 0 .3.4.3.6 0 2 .1 4-.1 6 0 .4-.1.8 0 1.2.1 1.4 0 2.8-.2 4.1-.1.8.2 1.5.2 2.2 0 .3.2.4.4.4H46c.5 0 .5-.5.6-.8.2-.2.3-.5.3-.8 0-.5 0-1 .2-1.5.1-.3.1-.7 0-1-.1-.7-.1-1.4.1-2.1.1-.4-.2-.8 0-1.2.1-.3.2-.6.6-.3.3.3-.1.8.4 1.1 2.3.3 4.5.1 6.8.2.5 0 .6-.2.6-.7v-2.5c0-.7.1-1.3-.1-2-.1-.8 0-1.7-.1-2.5 0-.6.1-1.2-.1-1.8-.1-.9 0-1.8-.1-2.7 0-.6.1-1.1-.1-1.7-.1-.7 0-1.5 0-2.2.5-.1.5-.3.7-.4z"/><path d="M60 31.4c0-.3.2-.4.3-.6 1.3-1.7 2.4-3.6 3.7-5.3 1.7-2.2 3.9-3.7 6.5-4.7 2.8-1.1 5.8-1.5 8.8-1.3 1 .1 2.1 0 3.1.5.9.4 1 1 .3 1.7-1 .9-2.2 1.3-3.4 1.8-1.5.5-3 .9-4.5 1.2-.3.1-.7-.1-1.1.2 1.5.4 2.9.7 4.3 1.2.7.3 1.3.5 1.9.9s.7.9 0 1.4c-.5.3-1.1.4-1.7.5-1.9.1-3.7-.3-5.5-.7h-.3c.9.5 1.9 1 2.7 1.6.7.5 1.3 1 1.8 1.7.3.5.3.8-.3.9-.9.2-1.9.1-2.8.1-.8-.1-1.6-.1-2.4-.3.2.3.6.5.9.7s.7.4 1 .6c.3.3.8.6.7 1.1-.1.5-.7.4-1.1.5-1.6.3-3-.2-4.6-.5.4.6.8 1 1 1.6.3.7.1 1-.6 1.1-.8 0-1.5-.1-2.2-.4-.5-.2-1-.4-1.6-.5.2.4.5.7.7 1 .2.2.4.5.5.7.3.7.2.9-.5.9-.7.1-1.4-.4-2.1-.4-.4 0-.5-.4-.6-.6-.9-2-2-3.9-2.9-5.9v-.7zm-19.7 7.5c-.2 0-.3-.1-.5-.1-.4-.1-.5-.3-.3-.7.3-.7.9-1.2 1.4-1.8-.7 0-1.2.3-1.8.5-.7.2-1.3.4-2 .4-.8 0-1-.4-.7-1.1.1-.3.3-.5.5-.8s.3-.5.5-.8c-.9.2-1.7.5-2.6.6-.8.1-1.6.1-2.4-.1-.7-.2-.9-.7-.4-1.3.6-.7 1.5-1.1 2.4-1.7-1.6.1-3 .4-4.4.3h-.3c-.4 0-.8 0-1-.4s.2-.7.4-1c1-1.2 2.3-1.8 3.6-2.5.2-.1.4-.2.6-.4-1.1.2-2 .4-3 .6-1.3.2-2.7.5-4 0-.4-.2-.8-.4-.9-.8-.1-.5.3-.7.7-.9 1.5-.8 3.1-1.2 4.7-1.6.4-.1.8-.2 1.4-.3-1.3-.3-2.5-.4-3.6-.7-1.8-.4-3.5-1.1-5.1-2.1h-.1c-.3-.3-.9-.6-.8-1.2s.7-.7 1.2-.8c1-.3 2.1-.4 3.1-.4 1.2 0 2.3-.1 3.5 0 3.6.4 6.9 1.5 9.7 3.9 1.2 1.1 2.2 2.4 3.1 3.8.9 1.4 1.8 2.8 2.8 4.1 0 0 0 .1.1.2-.2.5-.7.5-1 .6-.6.2-1 .5-1.3 1.1-.9 1.4-1.9 3.1-2.9 4.8-.1.2-.2.6-.6.6z" fill="#bdbdbd"/><path class="st2" d="M60 31.4c1.1 2.1 2.1 4.3 3.2 6.4.1.2.3.4.4.6.8 2 2 3.7 3.1 5.5.7 1.2 1.5 2.5 2.2 3.7-.1.4-.5.6-.5 1-.1.1-.1.2-.3.2-.3-.1-.4-.4-.5-.6-.8-1.9-2-3.5-2.8-5.4-.2-.5-.6-.9-.8-1.3 0-.1-.1-.2-.2-.2-.7-.1-.9-.7-1.3-1.2l-3.9-6.3c-.2-.3-.3-.6-.7-.7-.1.3.1.5.2.7.9 1.5 1.3 3.1 1.3 4.9.1 1.5.3 3.1.4 4.6.1 1.3.1 2.6.3 3.8s0 2.3.2 3.5c.1.4.2.7.5.9 0-.1 0-.3.2-.4.2.4.1.8.1 1.2v1.3c.1 1 .1 1-.9 1-.5 0-1 .2-1.4-.1-.5-.1-.8-.8-1.4-.3-.1.1-.2 0-.3-.1-.1-.2-.2-.5-.2-.7 0-1.5 0-3-.1-4.5-.1-1.6 0-3.3-.1-4.9 0-.4.1-.7.3-1.1.4-.8.5-1.5.1-2.3-.6-1.2-.6-2.3.1-3.4.7-1.2.2-2.3-.2-3.4-.2-.7-.3-1.5-.6-2.2-.1-.3.1-.3.2-.4.2-.1.5-.2.6-.4 1.2 0 2 .4 2.8.6zM47.1 52.6c0 1 0 1-1 1H45c-.5.1-.6-.1-.6-.5-.1-1.1-.2-2.2-.1-3.4.2-3.4.3-6.7.3-10.1v-.7c-.7.3-.6 1-.8 1.5 0-.2 0-.3-.1-.6-.7 1.2-1.5 2.2-2 3.3-.2.5-.5.9-.9 1.3-1.4 1.2-2.8 2.6-4.2 3.8-.7.6-1.3 1.1-1.9 1.8-.2.2-.4.5-.7.2l-.1-.1c-.4-.4-.3-.7.1-1 1.2-1 2.4-2.1 3.7-3.1.9-.7 1.6-1.5 2.5-2.1.3-.2.3-.5 0-.7-.3-.3-.3-.6-.1-.9.4-.7.9-1.4 1.4-2.1 1-1.4 2.1-2.9 3.1-4.3.3-.5.7-.9 1-1.3.3-.5.3-.8 0-1.3-.4-.7-.3-.9.5-1.1.5-.1.9-.4 1.4-.5.7-.2.9 0 .8.7-.1.5-.2 1-.4 1.4-.4 1.1-.6 2.3-1 3.4-.2.5 0 .9.3 1.3.6.7.7 1.3.2 2.1-.2.3-.3.8-.4 1.2-.1.3-.1.6 0 .9.3.5.4 1.2.7 1.8.1.2.1.3.1.5-.2 2.2-.1 4.4-.3 6.6-.3.1 0 .6-.4 1z"/><path d="M55.1 94.8c1.3 0 2.8-.1 4.3 0 2.3.1 4.5.3 6.8.8.4.1 1 .2 1 .6s-.6.4-1 .6c-1.2.5-2.5.6-3.8.7-3.6.4-7.3.5-10.9.4-2.4-.1-4.8-.2-7.2-.6-.6-.1-1.2-.2-1.8-.4-.2-.1-.6-.2-.6-.5s.3-.4.6-.5c1.1-.3 2.3-.6 3.4-.7 3-.3 6-.4 9.2-.4z" fill="#ccc"/><path class="st0" d="M47.1 52.6c.1-.6.1-1.1.1-1.7.1-1.6.1-3.2.2-4.9.1-1.3 0-2.5-.7-3.6-.1-.2-.1-.5 0-.8.1-.5.2-1 .5-1.4.4-.7.3-1.2-.2-1.8-.5-.5-.5-1-.3-1.7.5-1.4.9-2.9 1.3-4.3.1-.3.1-.5 0-.8-.2-.3-.5 0-.7.1-.5.2-1 .4-1.5.5-.3.1-.4.3-.2.6.8 1 .2 1.7-.5 2.5-.4.5-.8 1-1.1 1.6-1.3 1.8-2.7 3.6-3.9 5.5-.2.3-.2.5.1.7.5.3.4.6 0 .9l-5.7 4.8c-.3.2-.5.5-.8.8-.4.4.4.4.2.7-.1.1-.2 0-.4 0-.5-.4-1.2-.5-1.7-1 .5-.6 1-1.1 1.5-1.7 1.6-1.7 3.2-3.5 4.9-5.1 1-1 1.5-2.2 2.3-3.4 1.1-1.9 2.3-3.8 3.3-5.8.4-.8 1-1.1 1.8-1.4.3-.1.5-.2.7-.3.7-.2 1.4-.5 2-.7.2-.1.4-.2.5.2.3.4.2.8.1 1.2-.2.6-.1 1.2-.1 1.7 0 .9.1 1.7-.1 2.6 0 .1-.1.1-.1.2-.2.1-.4.3-.2.6.2.4.2.8 0 1.3 0 .1-.1.2-.1.4.2.3 0 .5-.2.9-.4.6-.7 1.4-.9 2.1-.1.2.1.4.3.4.8.4 1.1 1 .8 1.8-.1.3-.1.6.2.8.1.2.1.4 0 .6 0 .1-.1.2-.2.2-.8 0-.5.7-.4.9.1.3.2.6-.1.9-.1.1 0 .3 0 .4.2 1.4-.1 2.8-.1 4.2-.3.1-.3.3-.6.3z"/><path class="st2" d="M44.8 54.9c.4.1.8.2 1.1.1.4 0 .6.1.5.5v.1c0 3.3.3 6.6.1 9.9 0 1 .4 1.7 1.2 2.2.3.2.6.5 1 .8.1.1.2.2.2.3-.1.1-.2.1-.3.1-.5-.1-1-.2-1.5-.4s-.6 0-.5.4l.3 3.3.3 3.3c.2 1.7.3 3.4.5 5.1.1.8.2 1.7.3 2.5 0 .5-.1.8-.7.7-.1 0-.2 0-.4.1-.2-2-.4-3.9-.6-5.9-.2-2.2-.5-4.4-.7-6.7-.2-1.7-.4-3.5-.4-5.2-.2-3.7-.3-7.4-.4-11.2z"/><path d="M48.2 45.6v-.7c-.2-.2-.2-.5-.1-.7.1-.4.1-.9 0-1.3.1-.6.1-1.3.1-1.9 0-.8.1-1.7.1-2.5.1-.4.1-.8 0-1.2 0-.2 0-.5.1-.7v-2.7c.1-.6 0-1.2.1-1.7V31c.1-.2.2-.3.4-.5.1-.1.3-.1.5-.1.2.1.3.2.5.2.7.1 1.2.3 1.6 1 .1.3.4.5.7.2.4-.4 1-.6 1.6-.9.5-.2 1-.5 1-1.2h.2c.1.4.7.2.8.6v2.9c.1.5 0 1.1.1 1.6v2.7c.1.6 0 1.2.1 1.7v2.6c.1.7 0 1.3.1 2v2.8c0 .4-.1.5-.5.5-2.5 0-5 0-7.4-.2-.1-.4-.1-.9 0-1.3z" fill="#d2d2d2"/><path d="M52.3 11.8c2-.1 3.9.2 5.8.6 1.1.2 2.2.6 3.1 1.3 1 .6 1 1.7.1 2.4-1.4 1.2-3.1 1.5-4.8 1.8s-3.3.3-5 .3c-2.1 0-4.2-.2-6.2-.9-1-.3-2.1-.8-2.6-1.9-.2-.4-.1-.8.1-1.1.5-.5 1.1-1 1.8-1.2 1-.4 2-.8 3.1-.9 1.4-.2 2.8-.4 4.2-.3.1-.1.3-.1.4-.1z" fill="#afafaf"/><path class="st0" d="M61.1 51v.6c-.9-.2-.8-1-.8-1.5 0-1.5-.1-3-.3-4.5-.2-2.2-.3-4.5-.6-6.7-.1-.6 0-1.2-.1-1.8-.1-1.1-.6-2.1-1.1-3-.1-.3-.3-.5-.4-.8-.1-.2-.2-.3 0-.5.2-.1.3 0 .5.1.3.3.5.6.7 1 1.4 2.2 2.7 4.4 4.1 6.7.2.3.4.6.8.5.2 0 .3.1.4.2.2.5.6.9.8 1.3.7 1.8 1.8 3.3 2.6 5 .2.4.4.9.7 1.2 0 0 .1.1.1.2-.1.2.2.7-.3.7-.8-1-1.6-2.1-2.5-3.1-1.9-2.2-3.7-4.5-4.8-7.2v-.2c-.2-.1-.2 0-.2.1 0 .4-.1.8 0 1.1v.8c.1.6 0 1.1.1 1.7v.7c.1.6 0 1.2.1 1.7v1c.1.4 0 .9.1 1.4-.1.8 0 1.6.1 2.4 0 .3-.4.6 0 .9z"/><path d="M55.6 21.5c.6.1.7.6.9 1 .1.5 0 1 .1 1.5v.8c0 .4-.2.6-.6.5-.3-.5 0-1 0-1.4 0-1.5-1.2-2.5-2.7-2.2-.8.2-1.7.1-2.6.3-.5.1-1 .3-1.6.1.2.2.5.1.7.1.7 0 1.3.1 1.7.8.3.5 1 .5 1.5.4.6-.1 1.2-.1 1.8-.3.6-.2 1 .1 1 .7s-.1 1.2 0 1.9c0 .1 0 .2-.1.3-.1.2-.2.5-.2.7 0 .1 0 .4-.2.4s-.2-.2-.3-.4v-2.1c0-.4-.1-.5-.6-.4-1.1.3-2.2.5-3.4.1-.5-.2-.9-.4-1.4-.7-.3-.4-1-.2-1.3-.7-.3-.2-.5-.5-.5-.9-.1-.5.1-.8.6-.6.7.1 1.5.1 2.2 0h.2c.4-.1.9-.3 1.3-.4h2c.7.1 1.2 0 1.5.5z" fill="#333"/><path class="st7" d="M31.7 49.1c.6.2 1.3.5 1.8.9-.3.5-.5 1-.8 1.4-.2.4-.4.7-.6 1.1-.2.6-.7.9-1.2 1.2-.4.2-.8 0-1.1-.2-.4-.4-.8-.8-1-1.3-.1-.4-.1-.7.3-.9.3-.2.3-.6.7-.7.1-.5.5-.6.9-.8.3-.3.6-.4 1-.5v-.2zm36.5-.2c0-.2.1-.2.1-.3.2-.4.4-.7.9-.9.6 0 1.2 0 1.8.2.5-.2.4.4.7.5l1.2.9c.6.5.7 1 .4 1.8-.2.2-.4.2-.5 0-.5-.5-1-.5-1.7-.5-1.3.1-2.2-.5-2.9-1.7z"/><path d="M68.2 48.9c.3.1.5.4.7.6.6.6 1.3.9 2.2.9.7 0 1.4-.1 1.9.7.1.1.2 0 .3 0 0 0 .1.1 0 .1-.3.9-.4 1-1.1.3-.2-.2-.5-.3-.8-.3-.6 0-1.2.2-1.7-.2-.6-.5-1.4-.6-1.7-1.4.4-.1 0-.5.2-.7z" fill="#bababa"/><path d="M55.6 25.9v-.2c.1-.1-.1-.4.3-.5.9 0 .6-.7.7-1.2 0-.1.1-.1.1 0 .2.9.4 1.7.3 2.6-.1.5-.3.9-.9 1-.7-.4-.8-.7-.5-1.7z" fill="#c6c6c6"/><path d="M29.9 53.4c.7.4.9.3 1.4-.2.9-.9 1.5-1.9 1.8-3 .1-.3.4.2.4-.2.1 0 .2.1.3.1v.1c-.2.9-.7 1.6-1.2 2.3-.2.2-.3.5-.6.6-.1 0-.1.1-.2.2-.5.7-1 1-1.8.6 0-.1-.1-.2-.1-.3-.1-.1-.1-.1 0-.2z" fill="#b4b4b4"/><path d="M48.5 23c.4.2.9.3 1.3.5.1 1.1.1 2.2 0 3.3-.1 1-.1 1.9-.1 2.9 0 .3 0 .6-.2.9H49c.5-1.8.3-3.6.4-5.3v-.2c0-.7.4-1.5-.7-1.7-.1-.2-.2-.3-.2-.4z" fill="#a4a4a4"/><path class="st12" d="M55.6 25.9c0 .6 0 1.2.4 1.7-.2.5-.4.9-.7 1.3-.1.1-.3.2-.4 0-.2-.7-.1-1.4-.1-2.1 0-.2 0-.4.3-.4 0 .2 0 .4.1.6.3-.3 0-.8.4-1.1z"/><path class="st13" d="M29.9 53.4v.3c-.8-.2-1-.9-1.2-1.6-.1-.6.4-1.4 1-1.5-.1.2-.2.4-.4.5-.7.9-.7 1 .1 1.8.2.1.4.3.5.5z"/><path d="M55.6 21.5c-.4-.3-.8-.2-1.2-.4-.6-.1-1.1-.1-1.7 0h-.4c-.2.1-.4.1-.6 0 0-.4.3-.3.5-.3h2.9c.6 0 .7.3.5.7z" fill="#c9c9c9"/><path d="M73.3 51.3c.3-.9.2-1.3-.4-1.8-.4-.3-.8-.5-1.1-1 .7 0 1.8 1.1 1.8 1.8-.1.3.2.8-.3 1z" fill="#a7a7a7"/><path class="st13" d="M30 53.9l.1-.1c.8.6 1.2-.2 1.7-.6 0 0 .1-.1.2-.1-.4.9-.9 1.1-1.7 1-.1 0-.3 0-.3-.2z"/><path d="M71 47.9c-.6 0-1.3 0-1.9-.1v-.1h1.4c.2-.1.4 0 .5.2z" fill="#9c9c9c"/><path class="st12" d="M50.8 21.4c-.7.2-1.5.2-2.2 0h2.2z"/><path class="st2" d="M43.7 41.4c0 .8.1 1.5-.1 2.3 0-.8-.1-1.6.1-2.3z"/><path class="st0" d="M69.1 47.7c-.3.4-.5.7-.8.9 0-.5.4-.7.7-1 .1 0 .1.1.1.1z"/><path d="M31.6 49.2c-.3.3-.6.4-1 .5.2-.5.6-.5 1-.5z" fill="#a0a0a0"/><path class="st2" d="M43.5 44.4c0 .6.1 1.3-.1 1.9 0-.7 0-1.3.1-1.9z"/><path class="st13" d="M55.7 29.2c.2 0 .2.1.2.3 0 .2 0 .2-.2.2s-.2-.1-.2-.2 0-.3.2-.3zm-.6-.1c.1 0 .2-.1.3-.1-.1.3.1.7-.4.8-.2-.4-.1-.6.1-.7z"/><path class="st2" d="M60.8 45.3c-.2-.6-.1-1.2-.1-1.7.2.5.1 1.1.1 1.7zm-17.4 2c0 .6.1 1.2-.1 1.7 0-.5-.1-1.1.1-1.7zm17.3-4.5c-.2-.6-.1-1.1-.1-1.7.2.6.1 1.2.1 1.7zm-.2-2.4c-.2-.4-.1-.9-.1-1.3 0-.1 0-.1.2.1-.2.3 0 .8-.1 1.2z"/><path class="st12" d="M51.7 21.1h.6c-.4.2-.9.3-1.3.2.2-.2.5-.1.7-.2z"/><path class="st2" d="M43.2 53.8c.3.4-.2.8 0 1.2-.3-.5-.2-.9 0-1.2z"/><path class="st12" d="M56.6 24c-.1-.5-.1-1-.1-1.5.3.5.2 1 .1 1.5z"/><path class="st2" d="M43.3 50.4c0 .5.1 1-.1 1.5 0-.6-.1-1.1.1-1.5zm17.6-2.8c-.2-.4-.1-.9-.1-1.4.2.5.1 1 .1 1.4zm-4.8-3.8c-.2-.7-.1-1.3-.1-2 .3.7.1 1.3.1 2zm-.1-4.5c-.2-.6-.1-1.2-.1-1.8.2.6.1 1.2.1 1.8zm-.1-4.5c-.2-.5-.1-1.1-.1-1.6.2.5.1 1.1.1 1.6zm-7.7 10.8V47c-.2-.4-.1-.9-.1-1.3l.1-.1z"/><path class="st0" d="M48.4 38.5v2.6c-.1.6 0 1.2-.1 1.9v2c-.6-.1-.4-.5-.3-.8.3-.5.1-1-.1-1.5-.1-.2-.2-.3-.4-.2-.6.1-.6-.3-.5-.7.2-.7.6-1.4.9-2.1.3-.8.5-1.7.2-2.6-.1-.3 0-.5.3-.5.1.6 0 1.2 0 1.9z"/><path class="st2" d="M48.4 38.5v-1.9h.1c0 .6 0 1.3-.1 1.9zm.2-6.3c0 .6.1 1.2-.1 1.7 0-.6-.1-1.1.1-1.7z"/><path d="M49.9 31.7l.1.1c.3.3 0 1.1.6.8.4-.1.9.3 1.1-.3.1-.2.3 0 .4.1 1.1.9.8.9 1.6-.2.2-.2.4-.5.7-.8.1.4.2.7.2 1l.3 5.4c.1 2.1.3 4.3.5 6.4 0 .6.3 1.3 0 1.8s-1.1.1-1.6 0c-1.4 0-2.9-.1-4.3.1-.6.1-.7-.2-.7-.7.2-1.6.2-3.1.4-4.7.2-1.5.2-3 .3-4.5.1-1.3.3-2.9.4-4.5z" fill="#f1f1f1"/><path d="M55.1 29.1c0 .2-.1.4-.1.7 0 1.2-.9 1.3-1.7 1.5-.4.1-.6.6-1 .8-.2.1-.3.2-.5 0-.5-.8-1.1-1.4-2.1-1.3 0 0-.1-.1-.1-.2 0-2.1.1-4.2.1-6.4 0-.2 0-.5.1-.7 1.5 1.2 3.2 1.1 4.9.5.5-.2.6-.1.5.4v2.1c-.1.8 0 1.7-.1 2.6z" fill="#bbb"/><path class="st2" d="M48.2 42.9c0-.6-.1-1.3.1-1.9 0 .6.1 1.3-.1 1.9z"/><path d="M52.8 12.3c1-.1 2.4 0 3.8.3 1 .3 2.1.3 3 1 .4.3.9.6.8 1.2-.1.6-.6.9-1.1 1.2-2.2.8-4.4 1.1-6.7 1.1-1.3 0-2.6-.1-3.8-.3-1.1-.2-2.3-.5-3.3-1.1-.4-.2-.7-.5-.7-1.1 0-.7.6-.9 1-1.1 1.1-.5 2.3-.7 3.5-.9 1-.3 2.1-.3 3.5-.3z" fill="#fefefe"/><path class="st12" d="M55.9 25.2c-.1.2-.2.3-.3.5-.2-.7 0-1.3 0-2 0-.5-.3-.7-.8-.5-1 .4-2 .5-3.1.2-.1 0-.3-.1-.4-.2-.3-1-1.1-.9-1.8-.9-.3 0-.5-.1-.7-.4 1.4.1 2.6-.5 4-.4h.3c1-.6 1.7.2 2.4.6.5.2.6.8.6 1.3 0 .6.1 1.2-.2 1.8zm-3.2-4.1c.6-.2 1.1-.2 1.7 0h-1.7z"/><path class="st7" d="M50.2 24.1c1.1.7 2.3.8 3.5.8.8 0 .8 0 .6.8l-.6 3.6c-.1.4-.3.8-.3 1.2 0 .2-.2.4-.4.3-.9-.1-1.7-.2-2.6-.4-.3 0-.3-.3-.3-.5.1-1.4-.1-2.8.1-4.1 0-.5-.2-1.1 0-1.7z"/><path d="M33.1 22.6l37.7 39.5m-37.4-1l37.4-39.5" fill="none" stroke="#e91630" stroke-width="4" stroke-linecap="round" stroke-miterlimit="10"/></svg>