<svg version="1.1" id="Calque_1" xmlns="http://www.w3.org/2000/svg" x="0" y="0" viewBox="0 0 105 105" xml:space="preserve"><style>.st1{fill:#a2a2a2}.st3{fill:#5c5c5c}.st5{fill:#d2d2d2}.st10{fill:#afafaf}.st20{fill:#5f5f5f}.st25{fill:#fbfbfb}.st26{fill:#f9f9f9}.st29{fill:#fdfdfd}</style><path d="M31.5 62.2c1-.6.9-1.8 1.4-2.7.1-.2.3-.4.4-.6 3.3-3.3 7-6.1 10.4-9.2 1-.9 1.9-1.9 3.4-2 1.6 1.7 3.3 3.3 4.7 5.1 0 .8-.2 1.6-.7 2.1-1.4 1.5-1.6 3.3-1.2 5.3-.4 3.2-1.6 6-4.9 7.2-.8.5-.9 1.1-.6 1.9.7 2 0 4 0 6 0 .2-.1.5-.2.7-1.2 2.2-1.5 4.7-2.5 7-.2.3-.6.6-.9.8-1.2.3-2.3.2-3.1-.8-.4-.6-.4-1.3-.4-2 0-3.9.4-7.7.8-11.7-.7 3.1-1.6 5.9-2.7 8.6-.5.8-.8 1.8-1.7 2.3-1.4.3-2.7.6-3.2-1.2.2-2.1.3-4.2.3-6.3 0-.3.1-.5.1-.8.4-1.1.4-2.1.2-3.2-.1-.6 0-1.2.1-1.8 0-.6 0-1.2-.1-1.8-.2-1-.5-2 .4-2.9z" fill="#1c1c1c"/><path class="st1" d="M52 52.7c-2.2-1-3.6-2.8-4.8-4.8-.3-1.9.6-3.8.3-5.7 0-.9-.4-1.6-.7-2.4-.7-1.7-.9-3.7-2.1-5.2.5-2.8 1.1-5.5 2-8.1 1.3-.3 2.5.1 3.6.5.7 1.3.5 2.9 1.1 4.5 1.4-1.8 2.5-3.6 3.4-5.5.2-.3.5-.5.9-.5.6.2 1 .6 1.2 1.3 2.2 2 3.3 4.5 3.4 7.5.3 1.9.8 3.9-1.2 5.3-1.7-.6-2.6-.2-2.8 1.8-.5 4-2.8 7.4-3.7 11.2-.1.1-.4.2-.6.1z"/><path d="M65.9 52.5c.1 1.2.2 2 1.8 1.1 1.4-.8 3.2-1.1 4.8-.6-.1 1.1-1 .9-1.7 1.1-1.6.5-3.2 1-4.3 2.4-.2.4-.4.8-.7 1.2-.7.8-1.4 1.4-2.1 2.2-1 .8-1.5 2-2.3 3l-.5.5c-2.4 3.1-2.6 6.6-2.4 10.3 0 .7.7 1.9-.7 2.1-.1 0-.3-.1-.4-.1-.7-.6-.7-1.4-1-2.2-.5-2.7-.2-5.4.7-8 .2-.9-.3-.8-.8-.5-1.5.9-3 2-4.5 2.8-.8.4-1.6 1-2.6.3-1-2.6-.6-5 .9-7.3 3.4-2.3 7-4.2 10.5-6.3 1.6-.8 2.9-2 4.7-2.5.2.2.4.3.6.5z" fill="#3c3c3c"/><path class="st3" d="M56.9 26.6c-.6-.1-1.1-.3-1.1-1-.4-2.1.2-4 1.2-5.9 0-.3-.6 0-.2-.1.1 0 .2.1.1.2-.5 1.2-.9 2.5-1.9 3.4-1.1.7-1.5-.1-2-.8-1.1-1.5-2.3-2.6-4.4-2.5-1 0-2-.4-2.4-1.6.6-3.2 3.7-5.2 7-4.5 1.2.2 2.2.5 3.5.3 2.2-.2 3.9 1.6 3.7 3.8-.3 2.7-1 5.3.5 7.9.5.8-.3 1-1 1-1 0-2-.1-3-.2z"/><path d="M59.1 39.2c1.4-1.4.2-3.5 1.2-5.1 1.8.9 3.6 1.9 5.4 2.6 2.2.8 2.9 2 1.8 4.1-.3 2.4-.9 4.7-1.5 7-.3 1-.7 1.7-1.8 1.7-1.8-.3-3.2-1.5-4.7-2.4-1-1-1.3-2.2-1.4-3.6.2-1.5-.5-3.2 1-4.3z" fill="#515151"/><path class="st5" d="M46.2 18.3c.6.3 1.2 1 1.8.9 3.3-.5 5 1.2 6.1 4l.6-.3c.7.5.6 1.1.5 1.8-1.2 0-1.8.9-2.6 1.4-.7.4-1.3 1.4-2.4 1-1.2.3-2.4 0-3.4-.6-.3-1.8-.5-3.7-.9-5.5-.3-1-.2-1.8.3-2.7z"/><path d="M49.8 68.3l7.2-4.2c.4-.2.9-.8 1.3-.3.2.2-.3.9-.4 1.4-1.4 1.8-3.6 2.4-5.4 3.6-.9.6-1.9 1.2-2 2.4-.1 1-.3 2.2 1.4 1.8.8-.2 1.5.2 2 .8 1.1 1.4 2.1 1 3-.1.6.6.4 1.3.4 2.1-1.2 1.3-2.5 1.5-3.8.1-.5-.6-.9-1.7-2.2-1.1-1.1.5-1.8 1.2-1.6 2.5-.1.5-.4.8-1 .7v-1c-.2-.8.5-2.2-.6-2.4-1.2-.2-2 .9-2.4 2.1-.9 2.8-1.3 5.7-2.6 8.3-.7-.4-.8-.9-.8-1.6.7-2.5 1.6-5 1.7-7.6 0-.2 0-.3.1-.5 1.3-1.7 2.3-3.7 3.9-5.1.4-.4.4-1 .5-1.5.4-.4.9-.2 1.3-.4z" fill="#bbb"/><path d="M31.4 72.3c-.1 2.2.5 4.6-.6 6.7-1.2 1.9-2.8 2.5-4.9 2-1.3-1-3.9-1.1-3.9-2.9-.1-1.9 2.5-2.1 3.8-3.1.1-.1.3-.1.5-.2.3-.2.6-.3.9-.3.4 0 .9.2 1.3.4s.7.4 1.1.6c.2 0 .8.8.7-.3.3-1-.6-2.5 1.1-2.9z" fill="#606060"/><path d="M63.8 49c1.1 0 1.5-.5 1.8-1.6.7-2.2.7-4.6 2-6.6.7 2.3-.6 4.4-1 6.6-.3 1.7-.7 3.4-.7 5.2h-.2l-.2-.1c-.3-.3-.6-.6-.8-1-.7-.7-1.2.1-1.8.3-3.6 1.7-6.7 4.2-10.3 5.9-1.4-1.6.2-2.4.9-3.4 2.4-1.3 4.8-2.6 7-4.1 1-.8 2-1.3 3.3-1.2z" fill="#747474"/><path d="M38.1 82.9c.9.9 2 .5 3 .5 1.6.6 1.2 1.7.3 2.4-1.1.8-2.3 1.8-3.8 1.7-.7 0-1.3 0-2 .1-1.9.2-2.9-.5-2.6-2.6 1.1-2 3-2.3 5.1-2.1z" fill="#aeaeae"/><path class="st10" d="M26 81c1.7-.4 3.5-.9 4.9-2 .6 1.7 2.1.6 3.1.9 1.2 1.1.7 2-.4 2.8-.8.6-1.8.8-2.7 1.2-.6-.2-1.1-.2-1.7-.1-2.1.4-3.5-.3-3.2-2.8z"/><path d="M47.1 39.7c.6.6 1 1.3 1 2.1-4.5 1.8-8.9 3.8-12.3 7.4-.7.6-1.3.8-1.7-.3-.5-1.6.6-2.2 1.6-2.9 2.4-1.6 5.2-2.5 7.3-4.7 1.3-1 2.4-2.2 4.1-1.6z" fill="#616161"/><path d="M57.8 75.9c.6-1.9-.2-3.7 0-5.6.4-2.8.7-5.6 3.2-7.6.2 2.7-1.5 5.1-1.7 7.8-.4 3.4.4 5 3.2 6.5 1.3.7 2.6-.3 3.9.1.4.2.6.4.6.8-4 1.8-6.6 1.3-9.2-2z" fill="#525252"/><path d="M30.9 83.9c.3-1 1.2-1.1 2-1.4 1.3-.5 1.6-1.3 1.2-2.6.2-.7.3-1.5.9-2 .9 1.1 2.2 1.8 3 2.9 0 .7.1 1.4.1 2.1-1.7.6-3.6 1-5.1 2.1-.7-.4-1.4-.7-2.1-1.1z" fill="#636363"/><path d="M66 56.7c.5-2.4 2.8-2.3 4.4-3.1.7-.3 1.5.1 2.1-.5 4.6 1.9 5.8 4.7 4.5 10.6-.5.1-.7-.2-.8-.6-.2-.6-.2-1.2-.2-1.7-.3-5.7-3-7.4-8.2-4.9-.5.2-1.1.5-1.8.2z" fill="#505050"/><path d="M50.7 86.5c-1.4 1.1-2.7 1.5-4.1 0-1.4-4 .9-8.2 5.1-9.1 2.5 1.2 2.9 2.6 1.5 6-.5.1-.6-.2-.8-.5-.4-1 .8-2.7-.9-3s-2.4 1.3-3 2.5c-.9 2-.5 2.7 1.8 3.3.3.2.6.4.4.8z" fill="#4f4f4f"/><path d="M34.1 48.9c.5.1.9.8 1.4.1.2-.3.4-.5.7-.7.7-.5 1.5-1.1 2.2-.3.8.9 0 2-.7 2.3-3.6 1.3-3.8 4.2-3.6 7.3 0 .7-.1 1.5-.8 2h-.4c-.8-3.8-1.1-7.4 1.2-10.7z" fill="#cacaca"/><path class="st5" d="M47.1 39.7c-1.5.1-2.5 1.7-4.1 1.6.6-2.2 1.1-4.4 1.7-6.6 2.5.8 1.7 3.2 2.4 5z"/><path d="M76.6 63.1c.2.2.3.4.5.6-1.4 6.1-4.4 11.1-10.1 14.1-.2-.2-.4-.3-.6-.5.2-1.3 1.5-1.5 2.2-2.2 3-2.8 5.6-5.8 6.6-9.9.2-.8.2-1.9 1.4-2.1z" fill="#626262"/><path d="M51.7 77.5c-3.8 1.8-5.5 4.9-5.1 9.1-1.8-1.1-1-2.8-.7-4.2.4-1.8 1.6-3.1 2.8-4.3.3-.2.7-.5 1-.7.7 0 1.4 0 2 .1z" fill="#363636"/><path d="M37.5 87.5c1-.5 1.9-1 2.9-1.6 1.1-.6 1.8-1.3.7-2.5.2-.1.4-.3.5-.4.6-.2.9.1.9.6.4.4.7.9.7 1.4-1.1 1.4-2.8 1.9-4.3 2.8-.5.3-1 .4-1.4-.3z" fill="#4e4e4e"/><path class="st20" d="M70.8 37.3c-.5 0-1-.2-1.1-.6-.1-.5 3-2.5 3.8-2.5.5 0 1 .4.8.7-.8 1.3-2.4 1.7-3.5 2.4z"/><path d="M31.5 62.2c-.1 1-.1 2.1.3 3-.7.6-1.5.9-2.3 1.2-.2 0-.4 0-.6-.2.3-1.7.9-3.3 2.6-4zm-4.1 12.6c-.4 0-.7-.1-1.1-.1 1.1-2.4 1.1-5.2 2.6-7.5.3.3.5.7.5 1.1-.3 2.3-.6 4.6-2 6.5z" fill="#bcbcbc"/><path d="M28.9 68.3v-2.1h.5c.9 0 1.7.3 2.4 1-.1.5-.3 1-.4 1.5l-.2.2c-.2 0-.4 0-.7-.1-.5-.1-1.1-.3-1.6-.5z" fill="#cfcfcf"/><path d="M50.7 86.5c-.2-.2-.4-.4-.6-.5.4-1.4 1-2.6 2.6-3 .1.2.3.3.4.5-.3 1.3-1.2 2.3-2.4 3z" fill="#6c6c6c"/><path d="M33.3 59.5c0-.8.1-1.7.1-2.5-.1-3-.6-6.2 3.6-7 .7-.1 1.5-.8 1.4-1.9-1.2-.4-1.9.9-3 .9 0-1.2.8-1.7 1.7-2.2 2.9-1.6 5.8-3.2 8.6-5 .9-.5 1.5-.5 2.3 0 .2 2.1 0 4.2-1 6.1-4.1 3.4-8.3 6.9-12.3 10.7-.4.4-.7 1-1.4.9z" fill="#3d3d3d"/><path class="st5" d="M54 54.5c-.7.9-1.9 1.6-1.2 3.1.2.2.3.4.4.7-.4 1.7-1.6 2.1-3.1 2.1-.1-.1-.2-.2-.3-.2-1.9-3.3 1.1-5 2.3-7.3.3-2.5 1.5-4.7 2.4-7 .7-1.7 1.2-3.5 1.4-5.3.1-.7-.3-1.7.7-1.9.9-.2 2-.5 2.6.7-.1 1.5-.2 3.1-.4 4.6-1.1 3.6-3.1 7-4.8 10.5z"/><path class="st25" d="M37.9 80.8c-1.4-.6-3.1-.8-3-2.9.6-2.9 2.4-5.5 2.5-8.6 0-.5-.3-1.8 1-1.5 1 .2.6 1 .5 1.6-.3 3.8-.7 7.6-1 11.4z"/><path class="st26" d="M48.7 70.3c-1.7 1.5-2.3 4-4.5 5.1-.5-2 .5-4.1-.1-6.1 1.5-1.7 2.7-1.4 4.6 1z"/><path class="st3" d="M49.8 68.3c-.3.2-.6.3-.9.5-1.9.9-2.9-.8-4.2-1.6 3-1.5 4.4-4.1 5-7.1.1-.1.2-.1.3 0 .2.4.7.7.8 1.1-1.8 1.5-2.2 4.4-1 7.1z"/><path class="st26" d="M42.5 83.6l-.9-.6c.5-2.5 1-5 2.5-7.2 1.1 2.9-.2 5.4-1.6 7.8z"/><path d="M44.7 67.2c1.7-.3 2.5 1.9 4.2 1.6.1.5.2 1-.2 1.5-1.5-.4-2.7-2.6-4.6-1-.6-.9-1-1.8.6-2.1z" fill="#464646"/><path d="M30.5 75.8c-.3.6-.7.1-1.1 0-1.5-3 .2-5.1 2-7.2 1 1 .7 2.1.2 3.2-2 .9-.6 2.7-1.1 4z" fill="#4c4c4c"/><path class="st29" d="M31.8 67.2c-1 .1-1.8-.2-2.4-1 .6-.8 1.4-1.1 2.4-1v2z"/><path d="M30.5 75.8c-.8-1.5-.4-3 .4-4.3.5-.8.4.2.6.4 0 .2-.1.3-.1.4-1.1 1 .2 2.6-.9 3.5z" fill="#7f7f7f"/><path d="M50.1 27.1c1.1-.8 2.2-1.6 3.3-2.5.8-.7.9.2 1.3.4.5.1.4.6.5.9-.5 2.9-2.6 4.7-4.3 7.6-.3-2.6-.5-4.5-.8-6.4z" fill="#c1c1c1"/><path d="M55.2 25.9c-.2-.3-.3-.6-.5-.9v-2.2c.8-1.3 1.6-2.5 2.3-3.8.1 0 .2.1.3.1-.5 2.1-1 4.3-1.5 6.4-.2.2-.4.3-.6.4z" fill="#f2f2f2"/><path class="st25" d="M66 56.7c.5-.2.9-.5 1.4-.7.8-.3 1.6-.6 2.4-.8 2.3-.7 4.1 0 5.2 2.1 1.4 2.8.4 8.6-1.9 10.9-.6.3-1.2.5-1.9.3-.8-.4-1.5-.8-2.1-1.4-.4-.4-.5-.9-.2-1.4.5-.7.3-1.6-.6-1.6-3.1.2-2.9-1.7-2.6-3.8.1-.4-.1-.8-.2-1.2-.3-.6.2-1.2-.1-1.7.3-.2.5-.4.6-.7z"/><path d="M66 59.1c.6.5.7 1.2.6 1.8-.4 2.2-.4 2.2 1.7 2.3.6 0 1.4.2 1.3.9-.1 1.6 1.3 1.2 2 1.9-.8.5-1.6-.3-2.4-.1-.3 1.7 2 1 1.9 2.4-2 2.5-5.2 3.3-7.6 5.1-.7.5-2.1.5-2.1 1.5-.1 1.2 1.5.7 2.1 1.4.1.1.2.3.2.4-.1.9-.5 1.1-1.3.7-2.9-1-4-3.1-3.5-6.7.8.5 1.2 2 2.6 1.1 1.3-.9 3-1.3 2.7-3.4-.1-.8-.1-1.7-.3-2.5-.3-1.2-.4-2.2.7-3.2-1.2-.7-2.2 1.1-3.2-.1.4-1.2 1-2.3 2.1-3 .9.4 1.5-1 2.5-.5z" fill="silver"/><path class="st29" d="M56.9 73.8c-.1.8-.1 1.7-1.1 2-.9.3-1.4-.4-1.8-1-.5-.6-.9-1.4-2-1.3-.7 0-1.8 1.7-2.1 0-.3-1.4-.8-3.4.9-4.4 2.3-1.4 4.5-2.9 7-3.8-.9 2.7-1.2 5.5-.9 8.5z"/><path class="st25" d="M61.3 62.6c.8.1 1.4-.2 2-.8.3-.3.9-.8 1.3-.4s.7 1.4.5 1.6c-1.6 1.5-.3 3.1-.3 4.6 0 2.6-1.7 4.9-4.4 5.3-1.8.3-1-1.4-1.6-2.1-.1-2.9 1.3-5.4 2.2-8 .1-.1.2-.1.3-.2z"/><path d="M50.8 61.2c-.8 0-1-.4-.8-1.1 1.2-.4 2.6-.5 2.9-2.1 1.9-1.7 4.3-2.6 6.4-4 .6-.4 1.2-.5 1.9 0 .2.4.2.7-.1 1.1-3.6 2-7 4-10.3 6.1z" fill="#d4d4d4"/><path d="M60.9 55.1c0-.4-.1-.8-.1-1.2.8-1.7 2.3-2.4 4.1-2.5.5.2.6.6.6 1.1-1.5.8-3.1 1.7-4.6 2.6z" fill="#f4f4f4"/><path d="M66 59.1c-.8.5-1.5 1.5-2.6.5l2.1-2.1c.7.4.5 1 .5 1.6z" fill="#696969"/><path class="st1" d="M54 54.5c.9-3.9 2.8-7.3 4.7-10.7.4 1 .8 2 1.2 2.9.8 1.1 1.8 2.1 1 3.7-2.1 1.8-4.4 3.1-6.9 4.1z"/><path d="M60.9 50.4c-.3-1.2-.7-2.5-1-3.7 1.4.6 2.7 1.3 3.9 2.2-1 .6-1.9 1.1-2.9 1.5z" fill="#f7f7f7"/><path d="M28.9 68.3c.8-.6 1.4-.2 2 .4-1.1 2.1-2 4.4-2.5 6.7-.3-.2-.7-.3-1-.5.1-2.4 1.3-4.4 1.5-6.6z" fill="#f5f5f5"/><path d="M28.4 75.4c-.2-2.6.6-4.9 2.5-6.7h.5c-.7 2.4-2.7 4.4-2 7.2-.3-.2-.7-.4-1-.5z" fill="#353535"/><path d="M64.9 51.4c-1.4.8-2.7 1.6-4.1 2.5-2.8 1.1-5.1 3.2-8 4.1 0-.1 0-.3-.1-.4 1.3-2.1 3.7-2.5 5.5-3.7 1.8-1.3 3.8-2.3 5.8-3.4.4-.2.9-.7 1.2.1.2.1-.1.5-.3.8z" fill="#414141"/><path class="st10" d="M62.4 77.4c.6-.1 1.1-.3 1.1-1 1-1.2 2.6-1.3 3.8-2.2 2.3-1.7 3.8-4.1 5.4-6.5 3-2.8 3.3-10.2.5-12-.9-.6-1.8-.8-2.8-.5-.9.3-1.9.5-2.9.7 1.9-1.5 4-2.1 6.3-.9 2.2 1.2 2.9 3.3 2.9 5.7 0 .8 0 1.5-.1 2.3-1.2 4.5-3 8.7-6.7 11.8-1.1.9-2.3 1.7-3.4 2.5-1.5 0-2.8 1.2-4.1.1z"/><path d="M52.8 83c-.9 1-1.7 2-2.6 3-2.4.4-3.2-.4-2.7-2.6.3-1.3.8-2.4 1.8-3.3.8-.8 1.7-1.6 2.9-1s1.2 1.7.8 2.9c-.2.3-.2.6-.2 1z" fill="#ababab"/><path d="M72.7 67.7c-.6 3.8-4.8 7.8-9.2 8.7-.5 0-1-.1-1.5-.1-.9 0-1.4-.5-1.7-1.3-.4-1 .7-1.1 1.1-1.4 3.2-1.9 6.5-3.7 9.7-5.5.5 0 1-.2 1.6-.4z" fill="#fcfcfc"/><path d="M67.5 67.2c-.5 0-1-.1-.9-.6s.3-1.1.9-1.3c.4-.1.8 0 .9.5.1.7-.3 1.2-.9 1.4z" fill="#787878"/><path d="M50.4 81.5c.8.1 1.2.4 1.3 1.1 0 .9-.5 1.3-1.4 1.4-.5 0-1-.2-1-.8.1-.8.4-1.4 1.1-1.7z" fill="#ccc"/><path class="st20" d="M68.3 38.7c-.5 0-1-.2-1.1-.6-.1-.5 3-2.5 3.8-2.5.5 0 1 .4.8.7-.8 1.3-2.4 1.7-3.5 2.4z"/><path d="M33.4 27.5L71.1 67m-37.4-1l37.4-39.5" fill="none" stroke="#e91630" stroke-width="4" stroke-linecap="round" stroke-miterlimit="10"/></svg>