<svg version="1.1" id="Calque_1" xmlns="http://www.w3.org/2000/svg" xmlns:xlink="http://www.w3.org/1999/xlink" x="0" y="0" viewBox="0 0 150 48" xml:space="preserve"><style>.st0{fill:#020203}</style><path class="st0" d="M126.8 18.9v1.8H123v8.1h-2.6v-8.1h-3.8v-1.8h10.2zm-9.2 8.2v1.8h-8.2v-10h2.6V27h5.6v.1zm-49.9 0v1.8H59v-10h8.5v1.8h-5.9v2.2H67v1.8h-5.4V27h6.1v.1zm-13.4-1.9c1.1-.6 1.8-1.8 1.8-3 0-1-.3-1.8-.9-2.4-.7-.6-1.7-.9-3.4-.9h-5.9l-.2.6.2.4c.1.2.2.4.2.6v8.3h2.6v-3.2H52l1.7 3.2h2.9l-2.3-3.6zM53 23.6c-.2.2-.5.3-.8.3h-3.5v-3h2.8c.8 0 1.3.1 1.6.3.3.2.4.6.4 1.1s-.2 1-.5 1.3zm25.6-4.7v6.6c-.6-.8-1.2-1.5-2.3-2.7-.9-1-2.7-2.9-3.6-3.9h-2.5l-.2.6.2.4c.1.1.2.3.2.5v8.5h2.4v-6.6c.5.6 1.3 1.6 1.8 2.2 1.1 1.2 2.8 3 4.1 4.4h2.2v-10h-2.3zm25.3 0V25c0 .7-.1 1.1-.5 1.4-.4.4-1.1.6-2.1.6s-1.7-.2-2.1-.6c-.3-.3-.5-.7-.5-1.4v-6.1h-2.9l-.1.6.2.4c.1.1.2.3.2.5v4.7c0 2.6 1.8 3.9 5.2 3.9h.1c3.4 0 5.1-1.3 5.1-3.9v-6.2h-2.6zm-13.6 0h-3.2c-1 2-2.7 5.8-4.3 10h2.6c.2-.6.4-1.1.6-1.7h5.3c.2.6.4 1.2.6 1.7h2.6c-1.4-4.2-3.2-7.9-4.2-10zm-3.5 6.4c.7-1.7 1.4-3.3 1.9-4.5.6 1.2 1.2 2.9 1.9 4.5h-3.8z"/><path d="M144.1 1.5h5.2v45h-5.2v-45z" fill="#ffce06"/><linearGradient id="SVGID_1_" gradientUnits="userSpaceOnUse" x1="364.85" y1="14.845" x2="364.85" y2="58.148" gradientTransform="matrix(1 0 0 -1 -346 60.5)"><stop offset="0" stop-color="#e5e5e4"/><stop offset=".69" stop-color="#fff"/><stop offset="1" stop-color="#919191"/></linearGradient><path d="M35.7 23.2c-.8-1.6-2.6-5.1-4.4-8.4-2.6-4.7-6.6-11.3-7-11.9l-.3-.3s-.1-.1-.2-.1H23c-.9 0-2.6-.1-4.3-.1-2.1 0-4.6.1-4.9.1h-.2l-.3.3c-.4.6-4.4 7.2-7 11.9-1.8 3.3-3.6 6.8-4.4 8.4-.1.3-.2.6-.2.8 0 .3.1.6.2.8.8 1.6 2.6 5.1 4.4 8.4 2.6 4.7 6.6 11.3 7 11.9l.2.2c.1.1.2.2.3.2h.8c1 0 2.6.1 4.3.1 2.1 0 4.5-.1 4.9-.1.1 0 .2 0 .3-.1.1 0 .2-.1.3-.3.4-.6 4.4-7.2 7-11.9 1.8-3.3 3.6-6.8 4.4-8.4.1-.3.2-.6.2-.9-.2-.1-.2-.4-.3-.6zm-11.8 1.7c-1.7 3.9-2.9 6.3-4.7 9.7-.1.2-.2.3-.3.3-.1 0-.2-.1-.3-.3-1.8-3.5-3-5.9-4.8-9.7l-.3-.9c0-.3.1-.6.3-.9 1.7-3.9 2.9-6.3 4.8-9.7.1-.2.2-.3.3-.3.1 0 .2.1.3.3 1.8 3.5 3 5.9 4.7 9.7.1.3.2.6.2.9-.1.3-.1.6-.2.9z" fill="url(#SVGID_1_)"/><radialGradient id="SVGID_2_" cx="360.066" cy="46.981" r="21.666" gradientTransform="matrix(1 0 0 -1 -343.5 60.5)" gradientUnits="userSpaceOnUse"><stop offset=".4" stop-color="#fff"/><stop offset="1" stop-color="#919191"/></radialGradient><path d="M35.7 23.2c-.8-1.6-2.6-5.1-4.4-8.4-2.6-4.7-6.6-11.3-7-11.9l-.3-.3s-.1-.1-.2-.1H23c-.9 0-2.6-.1-4.3-.1-2.1 0-4.6.1-4.9.1h-.2l-.3.3c-.4.6-4.4 7.2-7 11.9-1.8 3.3-3.6 6.8-4.4 8.4-.1.3-.2.6-.2.8 0 .3.1.6.2.8.8 1.6 2.6 5.1 4.4 8.4 2.6 4.7 6.6 11.3 7 11.9l.2.2c.1.1.2.2.3.2h.8c1 0 2.6.1 4.3.1 2.1 0 4.5-.1 4.9-.1.1 0 .2 0 .3-.1.1 0 .2-.1.3-.3.4-.6 4.4-7.2 7-11.9 1.8-3.3 3.6-6.8 4.4-8.4.1-.3.2-.6.2-.9-.2-.1-.2-.4-.3-.6zm-11.8 1.7c-1.7 3.9-2.9 6.3-4.7 9.7-.1.2-.2.3-.3.3-.1 0-.2-.1-.3-.3-1.8-3.5-3-5.9-4.8-9.7l-.3-.9c0-.3.1-.6.3-.9 1.7-3.9 2.9-6.3 4.8-9.7.1-.2.2-.3.3-.3.1 0 .2.1.3.3 1.8 3.5 3 5.9 4.7 9.7.1.3.2.6.2.9-.1.3-.1.6-.2.9z" fill="url(#SVGID_2_)"/><linearGradient id="SVGID_3_" gradientUnits="userSpaceOnUse" x1="356.1" y1="15.067" x2="356.1" y2="36.393" gradientTransform="matrix(1 0 0 -1 -346 60.5)"><stop offset=".01" stop-color="#e5e5e4"/><stop offset=".34" stop-color="#a6a6a6"/><stop offset=".69" stop-color="#343434"/><stop offset=".85" stop-color="#1b1b1b"/><stop offset=".95" stop-color="#111"/><stop offset=".96" stop-color="#141414"/><stop offset=".97" stop-color="#1e1e1e"/><stop offset=".98" stop-color="#2e2e2e"/><stop offset=".99" stop-color="#454545"/><stop offset="1" stop-color="#626262"/><stop offset="1" stop-color="#676767"/></linearGradient><path d="M12.4 25.4s-.5-1-.5-1.3V24c0-.1 0-.1-.1 0s-.4.3-1 .3H3c-.3 0-.8 0-.8.5 0 .3.3.9.8 2 3 5.9 6.4 11.9 10 17.6 0 0 .6.9.6 1 .1.1.2.1.3.1 1.5-2.9 2.9-5.8 4.1-8.8-2-3.8-3.9-7.5-5.6-11.3z" fill="url(#SVGID_3_)"/><linearGradient id="SVGID_4_" gradientUnits="userSpaceOnUse" x1="359.9" y1="15" x2="359.9" y2="15" gradientTransform="matrix(1 0 0 -1 -346 60.5)"><stop offset=".01" stop-color="#e5e5e4"/><stop offset=".34" stop-color="#a6a6a6"/><stop offset=".69" stop-color="#343434"/><stop offset=".85" stop-color="#1b1b1b"/><stop offset=".95" stop-color="#111"/><stop offset=".96" stop-color="#141414"/><stop offset=".97" stop-color="#1e1e1e"/><stop offset=".98" stop-color="#2e2e2e"/><stop offset=".99" stop-color="#454545"/><stop offset="1" stop-color="#626262"/><stop offset="1" stop-color="#676767"/></linearGradient><linearGradient id="SVGID_5_" gradientUnits="userSpaceOnUse" x1="370.909" y1="15.068" x2="370.909" y2="36.412" gradientTransform="matrix(1 0 0 -1 -346 60.5)"><stop offset=".01" stop-color="#e5e5e4"/><stop offset=".34" stop-color="#a6a6a6"/><stop offset=".69" stop-color="#343434"/><stop offset=".85" stop-color="#1b1b1b"/><stop offset=".95" stop-color="#111"/><stop offset=".97" stop-color="#141414"/><stop offset=".98" stop-color="#1e1e1e"/><stop offset=".98" stop-color="#2e2e2e"/><stop offset=".99" stop-color="#454545"/><stop offset="1" stop-color="#626262"/><stop offset="1" stop-color="#676767"/></linearGradient><path d="M35.5 24.1c-.1.1-.3.2-.8.2h-6.3c-2.9 0-2.6-.1-3.3 1.4-.3.7-.7 1.5-1 2.1-2.5 5.3-8.7 15.9-9.5 17.2-.3.5-.4.5-.1.5 0 0 2.1.1 4.4.1 3.6 0 4.9-.1 4.9-.1 2-3.2 7-11.5 10.6-18.7.7-1.7 1.1-2.4 1.1-2.7 0-.1 0-.1 0 0z" fill="url(#SVGID_5_)"/><linearGradient id="SVGID_6_" gradientUnits="userSpaceOnUse" x1="363.8" y1="36.644" x2="363.8" y2="58.124" gradientTransform="matrix(1 0 0 -1 -346 60.5)"><stop offset="0" stop-color="#343434"/><stop offset=".01" stop-color="#2a292a"/><stop offset=".02" stop-color="#1f1f1f"/><stop offset=".04" stop-color="#1b1b1b"/><stop offset=".12" stop-color="#151515"/><stop offset=".23" stop-color="#050606"/><stop offset=".25" stop-color="#020203"/></linearGradient><path d="M23.5 2.5c-.2 0-.3.1-.5.4-1.8 2.8-7.9 14.3-10.4 19.7-.3.7-.5 1-.5 1.3h1.3c0-.3.1-.6.3-.9 1.7-3.9 2.9-6.3 4.7-9.7.1-.2.2-.3.3-.3l.5-1.5c1.8-4.3 4.3-9 4.3-9z" fill="url(#SVGID_6_)"/><linearGradient id="SVGID_7_" gradientUnits="userSpaceOnUse" x1="368.1" y1="36.5" x2="368.1" y2="48.935" gradientTransform="matrix(1 0 0 -1 -346 60.5)"><stop offset="0" stop-color="#747474"/><stop offset=".15" stop-color="#6f6f6e"/><stop offset=".33" stop-color="#5f5f5f"/><stop offset=".53" stop-color="#464545"/><stop offset=".75" stop-color="#222"/><stop offset=".8" stop-color="#1b1b1b"/><stop offset=".92" stop-color="#020203"/></linearGradient><path d="M25.4 24c0-.3-.1-.6-.5-1.3-1.7-3.7-3.5-7.3-5.6-11.1l-.5 1.5c.1 0 .2.1.3.3 1.8 3.5 3 5.9 4.7 9.7.1.3.2.6.2.9h1.4z" fill="url(#SVGID_7_)"/><linearGradient id="SVGID_8_" gradientUnits="userSpaceOnUse" x1="361.5" y1="24.044" x2="361.5" y2="36.486" gradientTransform="matrix(1 0 0 -1 -346 60.5)"><stop offset=".36" stop-color="#bfbebf"/><stop offset=".47" stop-color="#bababa"/><stop offset=".61" stop-color="#acacac"/><stop offset=".75" stop-color="#969696"/><stop offset=".9" stop-color="#767676"/><stop offset=".96" stop-color="#676767"/><stop offset="1" stop-color="#343434"/></linearGradient><path d="M18.8 34.9c-.1 0-.2-.1-.3-.3-1.8-3.5-3-5.9-4.7-9.7l-.3-.9h-1.3c0 .3.1.6.5 1.3 1.7 3.7 3.5 7.3 5.6 11.1l.5-1.5z" fill="url(#SVGID_8_)"/><linearGradient id="SVGID_9_" gradientUnits="userSpaceOnUse" x1="366.338" y1="28.298" x2="355.019" y2="33.404" gradientTransform="matrix(1 0 0 -1 -346 60.5)"><stop offset=".01" stop-color="#f2f2f2" stop-opacity=".8"/><stop offset=".11" stop-color="#eeeded" stop-opacity="0"/></linearGradient><path d="M18.8 34.9c-.1 0-.2-.1-.3-.3-1.8-3.5-3-5.9-4.7-9.7l-.3-.9h-1.3c0 .3.1.6.5 1.3 1.7 3.7 3.5 7.3 5.6 11.1l.5-1.5z" fill="url(#SVGID_9_)"/><linearGradient id="SVGID_10_" gradientUnits="userSpaceOnUse" x1="365.6" y1="15.145" x2="365.6" y2="36.645" gradientTransform="matrix(1 0 0 -1 -346 60.5)"><stop offset="0" stop-color="#fff"/><stop offset=".22" stop-color="#fafafa"/><stop offset=".51" stop-color="#e8e7e7"/><stop offset=".85" stop-color="#cccccb"/><stop offset=".97" stop-color="#bfbebf"/><stop offset=".99" stop-color="#747474"/></linearGradient><path d="M13.9 45.5c.1 0 .3-.2.5-.5.1-.1.1-.2.2-.3 1.3-2.3 7.8-14.2 10.2-19.4.3-.7.5-1 .5-1.3H24c0 .3-.1.5-.3.9-1.7 3.9-2.9 6.3-4.7 9.7-.1.2-.2.3-.3.3l-.5 1.5c-1.2 3.1-2.6 6.1-4.3 9.1z" fill="url(#SVGID_10_)"/><linearGradient id="SVGID_11_" gradientUnits="userSpaceOnUse" x1="353.1" y1="14.294" x2="353.1" y2="36.494" gradientTransform="matrix(1 0 0 -1 -346 60.5)"><stop offset="0" stop-color="#676767"/><stop offset=".19" stop-color="#5f5f5f"/><stop offset=".58" stop-color="#525252"/><stop offset=".97" stop-color="#4e4d4d"/><stop offset=".99" stop-color="#767676"/><stop offset="1" stop-color="#8c8c8c"/></linearGradient><path d="M13.4 45.4l-.2-.2c-.4-.6-4.4-7.2-7-11.9-1.8-3.3-3.6-6.8-4.4-8.4-.1-.3-.2-.5-.2-.8H.8c0 .4.1.8.3 1.2.6 1.3 2.3 4.6 4.4 8.5 2.3 4.3 6.6 11.3 7.1 12 .1.2.3.4.5.5l.3-.9z" fill="url(#SVGID_11_)"/><linearGradient id="SVGID_12_" gradientUnits="userSpaceOnUse" x1="360.483" y1="16.998" x2="369.034" y2="12.061" gradientTransform="matrix(1 0 0 -1 -346 60.5)"><stop offset=".02" stop-color="#676767"/><stop offset=".04" stop-color="#4b4a4b"/><stop offset=".06" stop-color="#363636"/><stop offset=".08" stop-color="#2a292a"/><stop offset=".1" stop-color="#252525"/></linearGradient><path d="M13.1 46.2c.2.1.5.2.7.2.6.1 3.4.1 5 .1s4.6-.1 5-.1c.2 0 .4 0 .6-.1l-.4-.8h-.3c-.4 0-2.8.1-4.9.1-1.7 0-3.3 0-4.3-.1h-.8c-.1 0-.2-.1-.3-.2l-.3.9z" fill="url(#SVGID_12_)"/><linearGradient id="SVGID_13_" gradientUnits="userSpaceOnUse" x1="366.962" y1="52.703" x2="385.918" y2="42.325" gradientTransform="matrix(1 0 0 -1 -346 60.5)"><stop offset="0" stop-color="#5b5a5a"/><stop offset="1" stop-color="#747474"/></linearGradient><path d="M36.8 24c0-.4-.1-.8-.3-1.2-.7-1.3-2.7-5.4-4.4-8.5-2.3-4.2-6.6-11.3-7.1-12-.3-.3-.5-.5-.7-.6l-.3.8.3.3c.4.6 4.4 7.2 7 11.9 1.8 3.3 3.6 6.8 4.4 8.4.1.2.2.5.2.8l.9.1z" fill="url(#SVGID_13_)"/><linearGradient id="SVGID_14_" gradientUnits="userSpaceOnUse" x1="369.78" y1="56.958" x2="359.51" y2="59.903" gradientTransform="matrix(1 0 0 -1 -346 60.5)"><stop offset=".01" stop-color="#5b5a5a"/><stop offset=".03" stop-color="#767676"/><stop offset=".04" stop-color="#909090"/><stop offset=".06" stop-color="#a1a0a0"/><stop offset=".07" stop-color="#a6a6a6"/><stop offset=".5" stop-color="#bebdbe"/><stop offset="1" stop-color="#bfbebf"/></linearGradient><path d="M13.1 1.7l.4.8h.3c.3 0 2.8-.1 4.9-.1 1.7 0 3.4 0 4.3.1h.8c.1 0 .1 0 .2.1l.3-.8c-.2-.1-.4-.1-.6-.1-.7-.2-3.5-.2-5-.2-1.3 0-4.3 0-5 .1-.1 0-.3.1-.6.1z" fill="url(#SVGID_14_)"/><linearGradient id="SVGID_15_" gradientUnits="userSpaceOnUse" x1="343.867" y1="44.011" x2="362.183" y2="51.041" gradientTransform="matrix(1 0 0 -1 -346 60.5)"><stop offset="0" stop-color="#8c8c8c"/><stop offset=".99" stop-color="#747474"/><stop offset="1" stop-color="#bfbebf"/></linearGradient><path d="M13.1 1.7c-.3.1-.4.3-.7.6-.5.6-4.7 7.8-7 11.9-1.6 2.9-4.2 7.9-4.4 8.5-.2.5-.3.9-.3 1.3h.9c0-.3.1-.6.2-.8.8-1.6 2.6-5.1 4.4-8.4 2.6-4.7 6.6-11.3 7-11.9l.3-.3-.4-.9z" fill="url(#SVGID_15_)"/><linearGradient id="SVGID_16_" gradientUnits="userSpaceOnUse" x1="376.4" y1="14.233" x2="376.4" y2="36.563" gradientTransform="matrix(1 0 0 -1 -346 60.5)"><stop offset=".02" stop-color="#252525"/><stop offset=".22" stop-color="#2e2f2f"/><stop offset=".6" stop-color="#3b3b3b"/><stop offset=".97" stop-color="#3f3f3f"/><stop offset=".99" stop-color="#5d5d5d"/><stop offset="1" stop-color="#747474"/></linearGradient><path d="M24.2 46.3c.3-.1.5-.3.7-.6.5-.6 5-8.3 7.1-12s4.2-8 4.4-8.5c.3-.7.3-1 .3-1.2l-.7-.1c0 .3-.1.6-.2.9-.8 1.6-2.6 5.1-4.4 8.4-2.6 4.7-6.6 11.3-7 11.9-.2.2-.2.3-.3.3l.1.9z" fill="url(#SVGID_16_)"/><path d="M23.4 2.4s-.2.2-.7.2h-3.1c-2 0-4.4 0-5.5.1-.6 0-.6.1-1 .5l.2-.3.3-.3c.1-.1.2-.1.3-.1.3 0 2.8-.1 4.9-.1 1.7 0 3.4 0 4.3.1 0-.1.1-.1.3-.1" fill="#fff"/><defs><path id="SVGID_17_" d="M36.8 24c0-.4-.1-.8-.3-1.2-.7-1.4-2.7-5.4-4.4-8.5-.1-.2-.3-.5-.4-.8a12.1 12.1 0 00-12.7 0c.2.3 1.4 2.7 2.6 5.1 1.1 2.2 2 4.4 2.1 4.6s.2.5.2.8c0 .2-.1.4-.2.8 0 0-1 2.3-2.1 4.6-1 2.1-2.1 4.3-2.6 5.1 0 .1-.1.1-.1.1l-.1-.1-.1-.1c-1.2-2.3-2-4-2.5-5C15 27.2 14 25 14 24.8c-.3-.3-.3-.5-.4-.8 0-.3.1-.5.2-.8l.1-.1c.7-1.6 1.4-3.1 2.1-4.5 1-2 2.1-4.2 2.5-4.9-5.8 3.8-7.4 11.5-3.7 17.2 2.3 3.5 6.2 5.7 10.4 5.7 2.1 0 4.2-.5 6.1-1.6.3-.5.5-.9.7-1.3 2-3.6 4.2-7.9 4.4-8.5.4-.6.4-.9.4-1.2z"/></defs><clipPath id="SVGID_18_"><use xlink:href="#SVGID_17_" overflow="visible"/></clipPath><radialGradient id="SVGID_19_" cx="371.307" cy="36.3" r="12.422" gradientTransform="matrix(1 0 0 -1 -346 60.5)" gradientUnits="userSpaceOnUse"><stop offset="0" stop-color="#fff"/><stop offset=".19" stop-color="#fff" stop-opacity=".63"/><stop offset=".39" stop-color="#fff" stop-opacity=".29"/><stop offset=".52" stop-color="#fff" stop-opacity=".08"/><stop offset=".59" stop-color="#fff" stop-opacity="0"/></radialGradient><circle cx="25.4" cy="24.2" r="12.4" clip-path="url(#SVGID_18_)" fill="url(#SVGID_19_)"/><path class="st0" d="M23.9 23.1c-.1-.2-1-2.3-2.1-4.6-1.2-2.5-2.6-5-2.6-5.1-.1-.2-.2-.3-.3-.3s-.2.1-.3.3c-.1.1-1.4 2.7-2.6 5.1s-2.1 4.5-2.1 4.6l-.3.9c0 .3.1.6.3.9.1.2 1 2.3 2.1 4.6 1.2 2.5 2.6 5 2.6 5.1.1.2.2.3.3.3s.2-.1.3-.3c.1-.1 1.4-2.7 2.6-5.1 1.1-2.3 2.1-4.4 2.2-4.6.2-.3.3-.6.3-.9-.3-.3-.3-.6-.4-.9zm-.4 1.7s-1 2.3-2.1 4.6c-1 2.1-2.1 4.3-2.6 5.1 0 .1-.1.1-.1.1l-.1-.1-.1-.1c-1.2-2.3-2-4-2.5-5-1.1-2.2-2.1-4.4-2.1-4.6-.2-.3-.2-.5-.3-.8 0-.3.1-.5.2-.8l.1-.1c.7-1.6 1.4-3.1 2.1-4.5 1.2-2.4 2.6-5.1 2.6-5.1 0-.1.1-.1.1-.1l.1.1s1.4 2.6 2.6 5.1c1.1 2.2 2 4.4 2.1 4.6s.2.5.2.8c.2.3.1.4-.2.8z"/><path class="st0" d="M36.5 22.8c-.7-1.4-2.7-5.4-4.4-8.5C29.7 10 25.5 3 25 2.3c-.5-.6-.7-.7-1.2-.7-.7-.1-3.4-.1-5-.1-1.4 0-4.4 0-5 .1s-.8.3-1.2.7c-.5.7-4.8 7.9-7 11.9-1.6 2.9-4.2 7.9-4.4 8.5-.3.5-.4.9-.4 1.3s.1.8.3 1.2c.5 1.2 2.2 4.4 4.4 8.5 2.4 4.3 6.6 11.4 7.1 12 .5.7.8.7 1.2.7.7.1 3.5.1 5 .1 1.6 0 4.6-.1 5-.1s.8-.1 1.2-.7c.4-.6 5-8.2 7.1-12 2-3.6 4.2-7.9 4.4-8.5.3-.6.3-1 .3-1.2 0-.4-.1-.8-.3-1.2zm-.3 2.3c-.3.6-2.4 4.9-4.4 8.5-2.1 3.8-6.6 11.4-7 12s-.7.6-1 .6-3.3.1-5 .1c-1.5 0-4.3 0-5-.1-.4 0-.6-.1-1-.6-.5-.6-4.7-7.7-7-12-2.3-4.1-3.9-7.3-4.4-8.5-.2-.3-.3-.7-.3-1.1s.1-.8.3-1.1c.2-.5 2.8-5.6 4.4-8.5 2.2-4 6.5-11.3 7-11.9.4-.5.5-.6 1-.7.7-.1 3.6-.1 5-.1 1.6 0 4.3 0 4.9.1.4 0 .6.1 1 .6.5.6 4.7 7.7 7 12 1.7 3.1 3.8 7.1 4.4 8.5.2.3.3.7.3 1.1.1.2.1.5-.2 1.1zm10.6 14.3h3v.6h-3.7v-5.6c0-.1 0-.1-.1-.1l-.3-.1.1-.3h1c.1 0 .1 0 .1.1l-.1 5.4zm6.7.2c-.3.4-.8.6-1.5.6-1.2 0-1.7-.4-1.7-1.3s.5-1.3 1.8-1.3c.4 0 .9.1 1.3.2v-.6c0-.8-.4-1.1-1.3-1.1-.5 0-.9.1-1.4.2v-.6c.5-.1 1-.2 1.5-.2 1.4 0 1.9.5 1.9 1.7v2.2c0 .1 0 .1.1.1l.3.1-.1.4h-.8c-.1 0-.1 0-.1-.1v-.3zm0-1.4c-.5-.1-.8-.2-1.3-.2-.8 0-1.2.2-1.2.8 0 .5.3.8 1.1.8.9 0 1.3-.3 1.3-1l.1-.4zm5.2 1.8c-.7-1.4-1.3-2.9-1.7-4.4h.7c.4 1.3.8 2.5 1.4 3.8.5-1.2 1-2.5 1.4-3.8h.7c-.4 1.5-1 3-1.7 4.4h-.8zm3.1-4.4h.9c.1 0 .1 0 .1.1v4.4h-.7v-3.8c0-.1 0-.1-.1-.1l-.3-.3.1-.3zm.7-1.8c.3 0 .5.1.5.5 0 .3-.1.5-.5.5-.3 0-.5-.1-.5-.5s.2-.5.5-.5zm3.7 1.7c1.4 0 1.9.7 1.9 2.3v.3h-3.3c0 1.1.5 1.5 1.7 1.5.5 0 1-.1 1.4-.2v.6c-.5.1-1 .2-1.5.2-1.7 0-2.4-.7-2.4-2.3.1-1.8.7-2.4 2.2-2.4zm-1.4 2h2.6c0-1.1-.4-1.5-1.2-1.5-1 0-1.4.4-1.4 1.5zm4.4 3.8h-.6l.5-2.1h.8l-.7 2.1zm6.4-1.7c-.3.4-.8.6-1.5.6-1.2 0-1.7-.4-1.7-1.3s.5-1.3 1.8-1.3c.4 0 .9.1 1.3.2v-.6c0-.8-.4-1.1-1.3-1.1-.5 0-.9.1-1.4.2v-.6c.5-.1 1-.2 1.5-.2 1.4 0 1.9.5 1.9 1.7v2.2c0 .1 0 .1.1.1l.3.1-.1.4h-.8c-.1 0-.1 0-.1-.1v-.3zm-.2-1.4c-.4-.1-.8-.2-1.2-.2-.8 0-1.2.2-1.2.8 0 .5.3.8 1.1.8.9 0 1.3-.3 1.3-1v-.4zm3.3 1.8c-.7-1.4-1.3-2.9-1.7-4.4h.7c.4 1.3.8 2.5 1.4 3.8.5-1.2 1-2.5 1.4-3.8h.7c-.4 1.5-1 3-1.7 4.4h-.8zm5.1-4.5c1.4 0 1.9.7 1.9 2.3v.3h-3.3c0 1.1.5 1.5 1.7 1.5.5 0 1-.1 1.4-.2v.6c-.5.1-1 .2-1.5.2-1.7 0-2.4-.7-2.4-2.3.1-1.8.6-2.4 2.2-2.4zm-1.5 2h2.6c0-1.1-.4-1.5-1.2-1.5-.9 0-1.4.4-1.4 1.5zm6.5-2c.5 0 .9.1 1.3.2l-.1.6c-.4-.1-.7-.2-1.1-.2-1.1 0-1.5.5-1.5 1.7s.4 1.7 1.5 1.7c.4 0 .8-.1 1.2-.2v.6c-.4.1-.9.2-1.3.2-1.5 0-2.2-.7-2.2-2.3 0-1.7.6-2.3 2.2-2.3zm4.4.7c0-.1 0-.1 0 0l-.4-.2.1-.4h.9c.1 0 .1 0 .1.1v.4c.3-.4.7-.6 1.5-.6 1.4 0 1.9.7 1.9 2.3s-.6 2.3-1.9 2.3c-.7 0-1.2-.2-1.5-.5v2.3h-.7v-5.7zm.9 1.1v1.8c.4.3.8.4 1.3.4 1 0 1.4-.5 1.4-1.7s-.4-1.7-1.4-1.7c-1-.1-1.3.3-1.3 1.2zm7.1 2.3c-.3.4-.8.6-1.5.6-1.2 0-1.7-.4-1.7-1.3s.5-1.3 1.8-1.3c.4 0 .9.1 1.3.2v-.6c0-.8-.4-1.1-1.3-1.1-.5 0-.9.1-1.4.2v-.6c.5-.1 1-.2 1.5-.2 1.4 0 1.9.5 1.9 1.7v2.2c0 .1 0 .1.1.1l.3.1-.1.4h-.8c-.1 0-.1 0-.1-.1v-.3zm0-1.4c-.4-.1-.8-.2-1.2-.2-.8 0-1.2.2-1.2.8 0 .5.3.8 1.1.8.9 0 1.3-.3 1.3-1v-.4zm3.6-2.7c.5 0 1 .1 1.4.2l-.1.6c-.4-.1-.8-.2-1.3-.2-.8 0-1.1.2-1.1.7 0 1.1 2.7.3 2.7 2 0 .9-.6 1.3-1.8 1.3-.5 0-1.1-.1-1.6-.2v-.6c.5.2 1 .2 1.5.2.8 0 1.1-.3 1.1-.8 0-1.2-2.7-.3-2.7-2 0-.8.8-1.2 1.9-1.2zm4.1 0c.5 0 1 .1 1.4.2l-.1.6c-.4-.1-.8-.2-1.3-.2-.8 0-1.1.2-1.1.7 0 1.1 2.7.3 2.7 2 0 .9-.6 1.3-1.8 1.3-.5 0-1.1-.1-1.6-.2v-.6c.5.2 1 .2 1.5.2.8 0 1.1-.3 1.1-.8 0-1.2-2.7-.3-2.7-2 .2-.8.8-1.2 1.9-1.2zm2.5.1h.9c.1 0 .1 0 .1.1v4.4h-.7v-3.8c0-.1 0-.1-.1-.1l-.3-.1.1-.5zm.7-1.8c.3 0 .5.1.5.5 0 .3-.1.5-.5.5-.3 0-.5-.1-.5-.5s.1-.5.5-.5zm3.7 1.7c1.5 0 2.2.7 2.2 2.3s-.6 2.3-2.2 2.3c-1.5 0-2.2-.7-2.2-2.3s.6-2.3 2.2-2.3zm0 4.1c1 0 1.4-.5 1.4-1.7s-.4-1.7-1.4-1.7-1.4.5-1.4 1.7.4 1.6 1.4 1.7zm7-.2c0 .1 0 .1 0 0l.4.2-.1.4h-.9c-.1 0-.1 0-.1-.1v-2.7c0-.9-.3-1.2-1.1-1.2-.5 0-.9.1-1.3.3v3.6h-.7v-3.8c0-.1 0-.1-.1-.1l-.3-.1.1-.4h.9c.1 0 .1 0 .1.1v.3c.4-.4.9-.5 1.4-.5 1.2 0 1.7.5 1.7 1.8v2.2z"/></svg>