<svg xmlns="http://www.w3.org/2000/svg" height="60.8" width="60.8" id="svg20" version="1.1"><defs id="defs4"><style id="style2">.cls-1{fill:none}.cls-3{fill:#06df86}</style></defs><g transform="translate(10.125 15.338) scale(1.2232)" data-name="Calque 2" id="Calque_2"><g data-name="Calque 1" id="Calque_1-2"><path id="path8" d="M17 14.51a8.68 8.68 0 01-4.33-1.16L3.47 8v14.58h26.37V8.19l-8.39 5.06A8.67 8.67 0 0117 14.51z" class="cls-1"/><path id="path10" d="M19.66 10.28l10.18-6.14v-.67H3.47v.47l10.9 6.41a5.21 5.21 0 005.29-.07z" class="cls-1"/><path id="path12" d="M29.84 8.19v14.39H3.47V8L0 5.93v16.65a3.48 3.48 0 003.47 3.47h26.37a3.48 3.48 0 003.47-3.47V6.17h-.11z" fill="#191b28"/><path id="polygon14" class="cls-3" d="M33.32 6.17V6.1l-.12.07z"/><path id="path16" d="M31.16 0h-29A2.16 2.16 0 000 2.16v3.77L3.47 8l9.15 5.38a8.69 8.69 0 008.83-.1l8.39-5.06 3.36-2 .12-.07V2.16A2.16 2.16 0 0031.16 0zm-11.5 10.28a5.21 5.21 0 01-5.29.07L3.47 3.94v-.47h26.37v.66z" class="cls-3"/></g></g></svg>