<svg version="1.1" id="Calque_1" xmlns="http://www.w3.org/2000/svg" x="0" y="0" viewBox="0 0 50 50" xml:space="preserve"><style>.st0{fill:#191b28}.st1{fill:#fff}.st2{fill:#06df86}</style><path class="st0" d="M35.4 13.4H6.1c-1.7 0-3.1 1.4-3.1 3.1v23.1c0 1.7 1.4 3.1 3.1 3.1h29.3c1.7 0 3.1-1.4 3.1-3.1V16.5c0-1.7-1.4-3.1-3.1-3.1zM35 40H6.6c-.5 0-.9-.4-.9-.9V19.6c0-.5.4-.9.9-.9H35c.5 0 .9.4.9.9v19.5c-.1.5-.5.9-.9.9z"/><circle class="st1" cx="8.3" cy="16.1" r=".9"/><circle class="st1" cx="11.9" cy="16.1" r=".9"/><circle class="st2" cx="15.4" cy="16.1" r=".9"/><path class="st2" d="M11.9 27.5h3.6c1.5 0 2.7 1.2 2.7 2.7v3.6c0 1.5-1.2 2.7-2.7 2.7h-3.6c-1.5 0-2.7-1.2-2.7-2.7v-3.6c0-1.5 1.2-2.7 2.7-2.7z"/><path fill="none" stroke="#06df86" stroke-width="2.5" stroke-linecap="round" stroke-miterlimit="10" d="M9.7 23.6h21.7"/><path class="st0" d="M466.9 12708.1c-2.3 6.1-7.8 11.3-14.2 13.3-2.3.7-6.3 1.3-7.9 1.1-.5-.1-2.1-2.2-13.8-18.1-76.1-103.3-133.1-183.6-150.7-212-4.6-7.4-5.8-9.8-8.8-17.3-3.5-8.7-10.3-27.5-10-27.6.2-.2 13.6 10 20.5 15.5 7.8 6.3 10.4 8.8 15.2 14.3 14.4 16.7 38.1 47.5 82.8 107.5 11.3 15.2 20.6 27.5 20.6 27.4.1-.1-.2-.9-.5-1.8-1.2-3-1.4-5.6-.6-6.5 1.5-1.5 4.8.4 9.7 5.4 6.8 7 10.7 12.6 22.7 32.5 2.7 4.5 11.7 20 15 25.7.9 1.6 3.7 5.6 7.5 10.8 3.3 4.5 6 8.3 6 8.4 0 .1-.7.7-1.5 1.2-.8.6-1.5 1.2-1.7 1.4-.2.2.6 1.5 5.2 7.8l5.4 7.5-.2 1.2c-.2.6-.5 1.7-.7 2.3zm-25.1-42.5c-9.5-16.7-19.2-32.7-24.4-40.6-2.3-3.6-5-7.2-5.4-7.2-.2 0-.8.1-1.5.3-1.7.5-3.4.5-4.9-.1-.7-.2-1.3-.4-1.4-.3-.1 0 5.5 7.8 12.4 17.1 6.9 9.4 15.9 21.7 20.2 27.5 4.2 5.7 7.7 10.4 7.8 10.5.2 0 .6-.4.7-.6.1-.3-1.5-3.2-3.5-6.6z" transform="matrix(.1 0 0 -.1 0 1280)"/><path d="M23.3 35.5c.3-.3 4.7-4.6 7.4-2.9.6.4 1.4 1.2 1.3 2-.2 1.1-2.7 2-4.5 1.1-1.7-.9-2.7-3.4-2.6-6.3" fill="none" stroke="#000" stroke-width=".5" stroke-miterlimit="10"/></svg>