<svg xmlns="http://www.w3.org/2000/svg" viewBox="0 0 275.14 220.01"><defs><pattern id="Couleur_Vagues_lisses" data-name="Couleur Vagues lisses" width="109.13" height="103.21" patternUnits="userSpaceOnUse" viewBox="0 0 109.13 103.22"><path fill="none" d="M0 0h109.13v103.21H0z"/><path class="cls-2" d="M218.25 96.5a46.3 46.3 0 01-13.64-2.13 44.94 44.94 0 00-27.28 0 44.74 44.74 0 01-27.28 0 44.94 44.94 0 00-27.28 0 46.44 46.44 0 01-13.65 2.13"/><path class="cls-2" d="M218.25 100.8a46.71 46.71 0 01-13.64-2.12 44.74 44.74 0 00-27.28 0 44.94 44.94 0 01-27.28 0 44.74 44.74 0 00-27.28 0 46.85 46.85 0 01-13.65 2.12"/><path class="cls-2" d="M218.25 105.1a46.71 46.71 0 01-13.64-2.1 44.74 44.74 0 00-27.28 0 44.94 44.94 0 01-27.28 0 44.74 44.74 0 00-27.28 0 46.85 46.85 0 01-13.65 2.12"/><path class="cls-3" d="M0 90.31h109.13v25.8H0z"/><path class="cls-2" d="M109.12 96.5a46.36 46.36 0 01-13.64-2.13 44.94 44.94 0 00-27.28 0 44.74 44.74 0 01-27.28 0 46.77 46.77 0 00-13.64-2.12 46.77 46.77 0 00-13.64 2.12A46.36 46.36 0 010 96.5"/><path class="cls-2" d="M109.12 100.8a46.77 46.77 0 01-13.64-2.12 44.74 44.74 0 00-27.28 0 46.71 46.71 0 01-13.64 2.12 46.77 46.77 0 01-13.64-2.12 46.36 46.36 0 00-13.64-2.13 46.36 46.36 0 00-13.64 2.13A46.77 46.77 0 010 100.8"/><path class="cls-2" d="M109.12 105.1a46.77 46.77 0 01-13.64-2.1 44.74 44.74 0 00-27.28 0 46.71 46.71 0 01-13.64 2.12A46.77 46.77 0 0140.92 103a46.36 46.36 0 00-13.64-2.13A46.36 46.36 0 0013.64 103 46.77 46.77 0 010 105.1m0-8.6a46.3 46.3 0 01-13.64-2.13 46.77 46.77 0 00-13.64-2.12 46.71 46.71 0 00-13.64 2.12 46.36 46.36 0 01-13.64 2.13 46.3 46.3 0 01-13.64-2.13 46.77 46.77 0 00-13.64-2.12 46.71 46.71 0 00-13.64 2.12 46.43 46.43 0 01-13.64 2.13M0 100.8a46.71 46.71 0 01-13.64-2.12 46.36 46.36 0 00-13.64-2.13 46.3 46.3 0 00-13.64 2.13 46.77 46.77 0 01-13.64 2.12 46.71 46.71 0 01-13.64-2.12 46.36 46.36 0 00-13.64-2.13 46.3 46.3 0 00-13.64 2.13 46.83 46.83 0 01-13.64 2.12M0 105.1a46.71 46.71 0 01-13.64-2.1 46.36 46.36 0 00-13.64-2.13A46.3 46.3 0 00-40.92 103a46.77 46.77 0 01-13.64 2.12A46.71 46.71 0 01-68.2 103a46.36 46.36 0 00-13.64-2.13A46.3 46.3 0 00-95.48 103a46.83 46.83 0 01-13.64 2.12M218.25 83.6a46.3 46.3 0 01-13.64-2.13 44.74 44.74 0 00-27.28 0 44.74 44.74 0 01-27.28 0 44.74 44.74 0 00-27.28 0 46.44 46.44 0 01-13.65 2.13"/><path class="cls-2" d="M218.25 87.9a46.3 46.3 0 01-13.64-2.13 44.94 44.94 0 00-27.28 0 44.74 44.74 0 01-27.28 0 44.94 44.94 0 00-27.28 0 46.44 46.44 0 01-13.65 2.13"/><path class="cls-2" d="M218.25 92.2a46.71 46.71 0 01-13.64-2.12 44.74 44.74 0 00-27.28 0 44.94 44.94 0 01-27.28 0 44.74 44.74 0 00-27.28 0 46.85 46.85 0 01-13.65 2.12m109.13-21.5a46.64 46.64 0 01-13.64-2.13 44.74 44.74 0 00-27.28 0 44.74 44.74 0 01-27.28 0 44.74 44.74 0 00-27.28 0 46.79 46.79 0 01-13.65 2.13"/><path class="cls-2" d="M218.25 75a46.3 46.3 0 01-13.64-2.13 44.74 44.74 0 00-27.28 0 44.74 44.74 0 01-27.28 0 44.74 44.74 0 00-27.28 0A46.44 46.44 0 01109.12 75"/><path class="cls-2" d="M218.25 79.3a46.3 46.3 0 01-13.64-2.13 44.74 44.74 0 00-27.28 0 44.74 44.74 0 01-27.28 0 44.74 44.74 0 00-27.28 0 46.44 46.44 0 01-13.65 2.13"/><path class="cls-3" d="M0 64.51h109.13v25.8H0z"/><path class="cls-2" d="M109.12 83.6a46.36 46.36 0 01-13.64-2.13 44.74 44.74 0 00-27.28 0 44.74 44.74 0 01-27.28 0 46.7 46.7 0 00-13.64-2.13 46.7 46.7 0 00-13.64 2.13A46.36 46.36 0 010 83.6"/><path class="cls-2" d="M109.12 87.9a46.36 46.36 0 01-13.64-2.13 44.94 44.94 0 00-27.28 0 44.74 44.74 0 01-27.28 0 46.77 46.77 0 00-13.64-2.12 46.77 46.77 0 00-13.64 2.12A46.36 46.36 0 010 87.9"/><path class="cls-2" d="M109.12 92.2a46.77 46.77 0 01-13.64-2.12 44.74 44.74 0 00-27.28 0 46.71 46.71 0 01-13.64 2.12 46.77 46.77 0 01-13.64-2.12A46.36 46.36 0 0027.28 88a46.36 46.36 0 00-13.64 2.13A46.77 46.77 0 010 92.2m109.12-21.5a46.7 46.7 0 01-13.64-2.13 44.74 44.74 0 00-27.28 0 46.64 46.64 0 01-13.64 2.13 46.7 46.7 0 01-13.64-2.13 46.7 46.7 0 00-13.64-2.13 46.7 46.7 0 00-13.64 2.13A46.7 46.7 0 010 70.7"/><path class="cls-2" d="M109.12 75a46.36 46.36 0 01-13.64-2.13 44.74 44.74 0 00-27.28 0 44.74 44.74 0 01-27.28 0 46.7 46.7 0 00-13.64-2.13 46.7 46.7 0 00-13.64 2.13A46.36 46.36 0 010 75"/><path class="cls-2" d="M109.12 79.3a46.36 46.36 0 01-13.64-2.13 44.74 44.74 0 00-27.28 0 44.74 44.74 0 01-27.28 0A46.7 46.7 0 0027.28 75a46.7 46.7 0 00-13.64 2.13A46.36 46.36 0 010 79.3m0 4.3a46.3 46.3 0 01-13.64-2.13 46.7 46.7 0 00-13.64-2.13 46.64 46.64 0 00-13.64 2.13 46.36 46.36 0 01-13.64 2.13 46.3 46.3 0 01-13.64-2.13 46.7 46.7 0 00-13.64-2.13 46.64 46.64 0 00-13.64 2.13 46.43 46.43 0 01-13.64 2.13M0 87.9a46.3 46.3 0 01-13.64-2.13 46.77 46.77 0 00-13.64-2.12 46.71 46.71 0 00-13.64 2.12 46.36 46.36 0 01-13.64 2.13 46.3 46.3 0 01-13.64-2.13 46.77 46.77 0 00-13.64-2.12 46.71 46.71 0 00-13.64 2.12 46.43 46.43 0 01-13.64 2.13M0 92.2a46.71 46.71 0 01-13.64-2.12A46.36 46.36 0 00-27.28 88a46.3 46.3 0 00-13.64 2.13 46.77 46.77 0 01-13.64 2.07 46.71 46.71 0 01-13.64-2.12A46.36 46.36 0 00-81.84 88a46.3 46.3 0 00-13.64 2.13 46.83 46.83 0 01-13.64 2.12M0 70.7a46.64 46.64 0 01-13.64-2.13 46.7 46.7 0 00-13.64-2.13 46.64 46.64 0 00-13.64 2.13 46.7 46.7 0 01-13.64 2.13 46.64 46.64 0 01-13.64-2.13 46.7 46.7 0 00-13.64-2.13 46.64 46.64 0 00-13.64 2.13 46.77 46.77 0 01-13.64 2.13M0 75a46.3 46.3 0 01-13.64-2.13 46.7 46.7 0 00-13.64-2.13 46.64 46.64 0 00-13.64 2.13A46.36 46.36 0 01-54.56 75a46.3 46.3 0 01-13.64-2.13 46.7 46.7 0 00-13.64-2.13 46.64 46.64 0 00-13.64 2.13A46.43 46.43 0 01-109.12 75M0 79.3a46.3 46.3 0 01-13.64-2.13A46.7 46.7 0 00-27.28 75a46.64 46.64 0 00-13.64 2.13 46.36 46.36 0 01-13.64 2.17 46.3 46.3 0 01-13.64-2.13A46.7 46.7 0 00-81.84 75a46.64 46.64 0 00-13.64 2.13 46.43 46.43 0 01-13.64 2.13M218.25 57.8a46.64 46.64 0 01-13.64-2.13 44.74 44.74 0 00-27.28 0 44.74 44.74 0 01-27.28 0 44.74 44.74 0 00-27.28 0 46.79 46.79 0 01-13.65 2.13"/><path class="cls-2" d="M218.25 62.1a46.64 46.64 0 01-13.64-2.1 44.74 44.74 0 00-27.28 0 44.74 44.74 0 01-27.28 0 44.74 44.74 0 00-27.28 0 46.79 46.79 0 01-13.65 2.13"/><path class="cls-2" d="M218.25 66.4a46.64 46.64 0 01-13.64-2.13 44.74 44.74 0 00-27.28 0 44.74 44.74 0 01-27.28 0 44.74 44.74 0 00-27.28 0 46.79 46.79 0 01-13.65 2.13m109.13-21.5a46.64 46.64 0 01-13.64-2.13 44.74 44.74 0 00-27.28 0 46.7 46.7 0 01-13.64 2.13 46.64 46.64 0 01-13.64-2.13 44.74 44.74 0 00-27.28 0 46.79 46.79 0 01-13.65 2.13"/><path class="cls-2" d="M218.25 49.2a46.64 46.64 0 01-13.64-2.13 44.74 44.74 0 00-27.28 0 46.7 46.7 0 01-13.64 2.13 46.64 46.64 0 01-13.64-2.13 44.74 44.74 0 00-27.28 0 46.79 46.79 0 01-13.65 2.13"/><path class="cls-2" d="M218.25 53.5a46.64 46.64 0 01-13.64-2.13 44.74 44.74 0 00-27.28 0 44.74 44.74 0 01-27.28 0 44.74 44.74 0 00-27.28 0 46.79 46.79 0 01-13.65 2.13"/><path class="cls-3" d="M0 38.71h109.13v25.8H0z"/><path class="cls-2" d="M109.12 57.8a46.7 46.7 0 01-13.64-2.13 44.74 44.74 0 00-27.28 0 46.64 46.64 0 01-13.64 2.13 46.7 46.7 0 01-13.64-2.13 46.7 46.7 0 00-13.64-2.13 46.7 46.7 0 00-13.64 2.13A46.7 46.7 0 010 57.8"/><path class="cls-2" d="M109.12 62.1A46.7 46.7 0 0195.48 60a44.74 44.74 0 00-27.28 0 46.64 46.64 0 01-13.64 2.1A46.7 46.7 0 0140.92 60a46.7 46.7 0 00-13.64-2.13A46.7 46.7 0 0013.64 60 46.7 46.7 0 010 62.1"/><path class="cls-2" d="M109.12 66.4a46.7 46.7 0 01-13.64-2.13 44.74 44.74 0 00-27.28 0 46.64 46.64 0 01-13.64 2.13 46.7 46.7 0 01-13.64-2.13 46.7 46.7 0 00-13.64-2.13 46.7 46.7 0 00-13.64 2.13A46.7 46.7 0 010 66.4m109.12-21.5a46.7 46.7 0 01-13.64-2.13 44.74 44.74 0 00-27.28 0 46.64 46.64 0 01-13.64 2.13 46.7 46.7 0 01-13.64-2.13 46.36 46.36 0 00-13.64-2.13 46.36 46.36 0 00-13.64 2.13A46.7 46.7 0 010 44.9"/><path class="cls-2" d="M109.12 49.2a46.7 46.7 0 01-13.64-2.13 44.74 44.74 0 00-27.28 0 46.64 46.64 0 01-13.64 2.13 46.7 46.7 0 01-13.64-2.13 46.7 46.7 0 00-13.64-2.13 46.7 46.7 0 00-13.64 2.13A46.7 46.7 0 010 49.2"/><path class="cls-2" d="M109.12 53.5a46.7 46.7 0 01-13.64-2.13 44.74 44.74 0 00-27.28 0 46.64 46.64 0 01-13.64 2.13 46.7 46.7 0 01-13.64-2.13 46.7 46.7 0 00-13.64-2.13 46.7 46.7 0 00-13.64 2.13A46.7 46.7 0 010 53.5m0 4.3a46.64 46.64 0 01-13.64-2.13 46.7 46.7 0 00-13.64-2.13 46.64 46.64 0 00-13.64 2.13 46.7 46.7 0 01-13.64 2.13 46.64 46.64 0 01-13.64-2.13 46.7 46.7 0 00-13.64-2.13 46.64 46.64 0 00-13.64 2.13 46.77 46.77 0 01-13.64 2.13M0 62.1A46.64 46.64 0 01-13.64 60a46.7 46.7 0 00-13.64-2.13A46.64 46.64 0 00-40.92 60a46.7 46.7 0 01-13.64 2.1A46.64 46.64 0 01-68.2 60a46.7 46.7 0 00-13.64-2.13A46.64 46.64 0 00-95.48 60a46.77 46.77 0 01-13.64 2.13M0 66.4a46.64 46.64 0 01-13.64-2.13 46.7 46.7 0 00-13.64-2.13 46.64 46.64 0 00-13.64 2.13 46.7 46.7 0 01-13.64 2.13 46.64 46.64 0 01-13.64-2.13 46.7 46.7 0 00-13.64-2.13 46.64 46.64 0 00-13.64 2.13 46.77 46.77 0 01-13.64 2.13M0 44.9a46.64 46.64 0 01-13.64-2.13 46.36 46.36 0 00-13.64-2.13 46.3 46.3 0 00-13.64 2.13 46.7 46.7 0 01-13.64 2.13 46.64 46.64 0 01-13.64-2.13 46.36 46.36 0 00-13.64-2.13 46.3 46.3 0 00-13.64 2.13 46.77 46.77 0 01-13.64 2.13M0 49.2a46.64 46.64 0 01-13.64-2.13 46.7 46.7 0 00-13.64-2.13 46.64 46.64 0 00-13.64 2.13 46.7 46.7 0 01-13.64 2.13 46.64 46.64 0 01-13.64-2.13 46.7 46.7 0 00-13.64-2.13 46.64 46.64 0 00-13.64 2.13 46.77 46.77 0 01-13.64 2.13M0 53.5a46.64 46.64 0 01-13.64-2.13 46.7 46.7 0 00-13.64-2.13 46.64 46.64 0 00-13.64 2.13 46.7 46.7 0 01-13.64 2.13 46.64 46.64 0 01-13.64-2.13 46.7 46.7 0 00-13.64-2.13 46.64 46.64 0 00-13.64 2.13 46.77 46.77 0 01-13.64 2.13M218.25 32a46.71 46.71 0 01-13.64-2.12 44.74 44.74 0 00-27.28 0A46.77 46.77 0 01163.69 32a46.71 46.71 0 01-13.64-2.12 44.74 44.74 0 00-27.28 0A46.85 46.85 0 01109.12 32"/><path class="cls-2" d="M218.25 36.29a46.71 46.71 0 01-13.64-2.12 44.74 44.74 0 00-27.28 0 46.77 46.77 0 01-13.64 2.12 46.71 46.71 0 01-13.64-2.12 44.74 44.74 0 00-27.28 0 46.85 46.85 0 01-13.65 2.12"/><path class="cls-2" d="M218.25 40.6a46.64 46.64 0 01-13.64-2.13 44.74 44.74 0 00-27.28 0 46.7 46.7 0 01-13.64 2.13 46.64 46.64 0 01-13.64-2.13 44.74 44.74 0 00-27.28 0 46.79 46.79 0 01-13.65 2.13m109.13-21.51A46.3 46.3 0 01204.61 17a44.94 44.94 0 00-27.28 0 46.36 46.36 0 01-13.64 2.13A46.3 46.3 0 01150.05 17a44.94 44.94 0 00-27.28 0 46.44 46.44 0 01-13.65 2.13"/><path class="cls-2" d="M218.25 23.39a46.3 46.3 0 01-13.64-2.13 44.94 44.94 0 00-27.28 0 46.36 46.36 0 01-13.64 2.13 46.3 46.3 0 01-13.64-2.13 44.94 44.94 0 00-27.28 0 46.44 46.44 0 01-13.65 2.13"/><path class="cls-2" d="M218.25 27.69a46.71 46.71 0 01-13.64-2.12 44.74 44.74 0 00-27.28 0 46.77 46.77 0 01-13.64 2.12 46.71 46.71 0 01-13.64-2.12 44.74 44.74 0 00-27.28 0 46.85 46.85 0 01-13.65 2.12"/><path class="cls-3" d="M0 12.9h109.13v25.8H0z"/><path class="cls-2" d="M109.12 32a46.77 46.77 0 01-13.64-2.12 44.74 44.74 0 00-27.28 0A46.71 46.71 0 0154.56 32a46.77 46.77 0 01-13.64-2.12 46.36 46.36 0 00-13.64-2.13 46.36 46.36 0 00-13.64 2.13A46.77 46.77 0 010 32"/><path class="cls-2" d="M109.12 36.29a46.77 46.77 0 01-13.64-2.12 44.74 44.74 0 00-27.28 0 46.71 46.71 0 01-13.64 2.12 46.77 46.77 0 01-13.64-2.12A46.36 46.36 0 0027.28 32a46.36 46.36 0 00-13.64 2.13A46.77 46.77 0 010 36.29"/><path class="cls-2" d="M109.12 40.6a46.7 46.7 0 01-13.64-2.13 44.74 44.74 0 00-27.28 0 46.64 46.64 0 01-13.64 2.13 46.7 46.7 0 01-13.64-2.13 46.36 46.36 0 00-13.64-2.13 46.36 46.36 0 00-13.64 2.13A46.7 46.7 0 010 40.6m109.12-21.51A46.36 46.36 0 0195.48 17a44.94 44.94 0 00-27.28 0 46.3 46.3 0 01-13.64 2.13A46.36 46.36 0 0140.92 17a46.77 46.77 0 00-13.64-2.12A46.77 46.77 0 0013.64 17 46.36 46.36 0 010 19.09"/><path class="cls-2" d="M109.12 23.39a46.36 46.36 0 01-13.64-2.13 44.94 44.94 0 00-27.28 0 46.3 46.3 0 01-13.64 2.13 46.36 46.36 0 01-13.64-2.13 46.77 46.77 0 00-13.64-2.12 46.77 46.77 0 00-13.64 2.12A46.36 46.36 0 010 23.39"/><path class="cls-2" d="M109.12 27.69a46.77 46.77 0 01-13.64-2.12 44.74 44.74 0 00-27.28 0 46.71 46.71 0 01-13.64 2.12 46.77 46.77 0 01-13.64-2.12 46.36 46.36 0 00-13.64-2.13 46.36 46.36 0 00-13.64 2.13A46.77 46.77 0 010 27.69M0 32a46.71 46.71 0 01-13.64-2.12 46.36 46.36 0 00-13.64-2.13 46.3 46.3 0 00-13.64 2.13A46.77 46.77 0 01-54.56 32a46.71 46.71 0 01-13.64-2.13 46.36 46.36 0 00-13.64-2.13 46.3 46.3 0 00-13.64 2.13A46.83 46.83 0 01-109.12 32M0 36.29a46.71 46.71 0 01-13.64-2.12A46.36 46.36 0 00-27.28 32a46.3 46.3 0 00-13.64 2.13 46.77 46.77 0 01-13.64 2.12 46.71 46.71 0 01-13.64-2.08A46.36 46.36 0 00-81.84 32a46.3 46.3 0 00-13.64 2.13 46.83 46.83 0 01-13.64 2.12M0 40.6a46.64 46.64 0 01-13.64-2.13 46.36 46.36 0 00-13.64-2.13 46.3 46.3 0 00-13.64 2.13 46.7 46.7 0 01-13.64 2.13 46.64 46.64 0 01-13.64-2.13 46.36 46.36 0 00-13.64-2.13 46.3 46.3 0 00-13.64 2.13 46.77 46.77 0 01-13.64 2.13M0 19.09A46.3 46.3 0 01-13.64 17a46.77 46.77 0 00-13.64-2.12A46.71 46.71 0 00-40.92 17a46.36 46.36 0 01-13.64 2.13A46.3 46.3 0 01-68.2 17a46.77 46.77 0 00-13.64-2.12A46.71 46.71 0 00-95.48 17a46.43 46.43 0 01-13.64 2.13M0 23.39a46.3 46.3 0 01-13.64-2.13 46.77 46.77 0 00-13.64-2.12 46.71 46.71 0 00-13.64 2.12 46.36 46.36 0 01-13.64 2.13 46.3 46.3 0 01-13.64-2.13 46.77 46.77 0 00-13.64-2.12 46.71 46.71 0 00-13.64 2.12 46.43 46.43 0 01-13.64 2.13M0 27.69a46.71 46.71 0 01-13.64-2.12 46.36 46.36 0 00-13.64-2.13 46.3 46.3 0 00-13.64 2.13 46.77 46.77 0 01-13.64 2.12 46.71 46.71 0 01-13.64-2.12 46.36 46.36 0 00-13.64-2.13 46.3 46.3 0 00-13.64 2.13 46.83 46.83 0 01-13.64 2.12m327.37-21.5a46.64 46.64 0 01-13.64-2.13 44.74 44.74 0 00-27.28 0 46.36 46.36 0 01-13.64 2.13 46.64 46.64 0 01-13.64-2.13 44.74 44.74 0 00-27.28 0 46.79 46.79 0 01-13.65 2.13"/><path class="cls-2" d="M218.25 10.49a46.3 46.3 0 01-13.64-2.13 44.94 44.94 0 00-27.28 0 46.36 46.36 0 01-13.64 2.13 46.3 46.3 0 01-13.64-2.13 44.94 44.94 0 00-27.28 0 46.44 46.44 0 01-13.65 2.13"/><path class="cls-2" d="M218.25 14.79a46.3 46.3 0 01-13.64-2.13 44.94 44.94 0 00-27.28 0 46.36 46.36 0 01-13.64 2.13 46.3 46.3 0 01-13.64-2.13 44.94 44.94 0 00-27.28 0 46.44 46.44 0 01-13.65 2.13m109.13-12.9a46.64 46.64 0 01-13.64-2.13 44.74 44.74 0 00-27.28 0 46.7 46.7 0 01-13.64 2.13 46.64 46.64 0 01-13.64-2.13 44.74 44.74 0 00-27.28 0 46.79 46.79 0 01-13.65 2.13"/><path class="cls-3" d="M0-12.9h109.13v25.8H0z"/><path class="cls-2" d="M109.12 6.19a46.7 46.7 0 01-13.64-2.13 44.74 44.74 0 00-27.28 0 46.3 46.3 0 01-13.64 2.13 46.7 46.7 0 01-13.64-2.13 46.7 46.7 0 00-13.64-2.13 46.7 46.7 0 00-13.64 2.13A46.7 46.7 0 010 6.19"/><path class="cls-2" d="M109.12 10.49a46.36 46.36 0 01-13.64-2.13 44.94 44.94 0 00-27.28 0 46.3 46.3 0 01-13.64 2.13 46.36 46.36 0 01-13.64-2.13 46.77 46.77 0 00-13.64-2.12 46.77 46.77 0 00-13.64 2.12A46.36 46.36 0 010 10.49"/><path class="cls-2" d="M109.12 14.79a46.36 46.36 0 01-13.64-2.13 44.94 44.94 0 00-27.28 0 46.3 46.3 0 01-13.64 2.13 46.36 46.36 0 01-13.64-2.13 46.77 46.77 0 00-13.64-2.12 46.77 46.77 0 00-13.64 2.12A46.36 46.36 0 010 14.79m109.12-12.9A46.7 46.7 0 0195.48-.24a44.74 44.74 0 00-27.28 0 46.64 46.64 0 01-13.64 2.13A46.7 46.7 0 0140.92-.24a46.7 46.7 0 00-13.64-2.13A46.7 46.7 0 0013.64-.24 46.7 46.7 0 010 1.89m0 4.3a46.64 46.64 0 01-13.64-2.13 46.7 46.7 0 00-13.64-2.13 46.64 46.64 0 00-13.64 2.13 46.36 46.36 0 01-13.64 2.13A46.64 46.64 0 01-68.2 4.06a46.7 46.7 0 00-13.64-2.13 46.64 46.64 0 00-13.64 2.13 46.77 46.77 0 01-13.64 2.13M0 10.49a46.3 46.3 0 01-13.64-2.13 46.77 46.77 0 00-13.64-2.12 46.71 46.71 0 00-13.64 2.12 46.36 46.36 0 01-13.64 2.13A46.3 46.3 0 01-68.2 8.36a46.77 46.77 0 00-13.64-2.12 46.71 46.71 0 00-13.64 2.12 46.43 46.43 0 01-13.64 2.13M0 14.79a46.3 46.3 0 01-13.64-2.13 46.77 46.77 0 00-13.64-2.12 46.71 46.71 0 00-13.64 2.12 46.36 46.36 0 01-13.64 2.13 46.3 46.3 0 01-13.64-2.13 46.77 46.77 0 00-13.64-2.12 46.71 46.71 0 00-13.64 2.12 46.43 46.43 0 01-13.64 2.13M0 1.89A46.64 46.64 0 01-13.64-.24a46.7 46.7 0 00-13.64-2.13A46.64 46.64 0 00-40.92-.24a46.7 46.7 0 01-13.64 2.13A46.64 46.64 0 01-68.2-.24a46.7 46.7 0 00-13.64-2.13A46.64 46.64 0 00-95.48-.24a46.77 46.77 0 01-13.64 2.13"/></pattern><style>.cls-2{fill:none;stroke:#84ccd8;stroke-linecap:square;stroke-width:1.5px}.cls-3{fill:#24b7c7}.cls-5{fill:#8d929d}.cls-6{fill:#f7f8fa}.cls-7{fill:#c3cbce}.cls-8{fill:#babcc1}.cls-9{fill:#e56340}.cls-10{fill:#b0232a}.cls-12{fill:#a3a2c5}.cls-13{fill:#eff0f6}.cls-14{fill:#d1d2d5}.cls-15{fill:#b2b1d6}.cls-16{fill:#292962}.cls-17{fill:#4d98ad}.cls-18{fill:#55539d}.cls-21{fill:#e2b534}.cls-23{fill:#fac38e}.cls-24{fill:#191b28}.cls-25{fill:#fff}.cls-26{fill:#86ccd7}.cls-27{fill:#ffab8e}.cls-37{fill:#934c44}</style></defs><g id="Calque_2" data-name="Calque 2"><g id="Calque_1-2" data-name="Calque 1"><path d="M44.64 13.46C42.29 15 32.21 20.63 24.5 29c-11 11.94-11 15.76-16.31 26.92a86.29 86.29 0 00-8 30.46 89.3 89.3 0 003.68 32.07c4.57 16.3 11.94 27.34 19.16 38 9.15 13.47 11.8 12.53 24.84 31.28 14.51 20.87 33.33 37 82.51 30.87 26.06-3.27 47.53-6.58 75.37-19.1 19.11-8.58 35.87-16.35 50.27-34.41 5.73-7.2 16.29-20.8 18.62-41.2 2.3-20.09-4.69-35.43-8.24-43.23-3.31-7.28-10.3-22.14-26.51-33.89C234.82 43 225.42 36.21 211.83 34c-13.21-2.15-16.68 2.27-29.72-1.08-4.79-1.23-10.8-4.38-22.62-10.62-15.83-8.34-15.18-8.81-21.44-11.8-6.67-3.19-25.68-12-49.48-10.28-9.72.71-36.91 8.71-43.93 13.24z" fill="#06df86" opacity=".7"/><path class="cls-5" d="M248.78 102.67h-25.37V76.99a6.54 6.54 0 000-2.25 2.37 2.37 0 00-.27-1.36.17.17 0 010-.14.53.53 0 00.41-.75 6.06 6.06 0 01-.13-1.85V53.4l.25-.66c.55-.19.71-.71.95-1.14l8.8-15.65 6.95-12.3c.16-.29.28-.6.64-.7.13.12.3.21.38.36l12.35 21.91c1.46 2.57 3 5.13 4.44 7.69-.05.59-.16 1.17-.16 1.75v21.46a2.41 2.41 0 00.15 1.3 13.84 13.84 0 01-.17 2.4v22.34c0 .84-4.39.51-9.22.51zm-7.63-56.14h-9.57c-1 0-1.33.31-1.32 1.32q.06 6.27 0 12.54c0 1 .29 1.34 1.31 1.34q9.57-.06 19.13 0c1 0 1.37-.24 1.36-1.3-.06-4.25 0-8.5 0-12.75 0-.85-.23-1.15-1.12-1.14-3.27.02-6.53 0-9.79-.01z"/><path class="cls-6" d="M123.44 52.69a3.39 3.39 0 01-.55 0c-2-.51-2.14-.84-1.18-2.56 2.71-4.85 5.47-9.69 8.2-14.54q3.61-6.4 7.22-12.82 2.18-3.89 4.33-7.77c.2-.35.41-.61.84-.57l1.46 2.41a8.17 8.17 0 001.11 2 14.56 14.56 0 001.47 2.65 6.42 6.42 0 001 1.7 40.31 40.31 0 002.54 4.48.74.74 0 00.29.56 23 23 0 001.83 3.28 4.89 4.89 0 00.89 1.59 16.71 16.71 0 001.76 3.11 1.32 1.32 0 00.42.75 4.36 4.36 0 00.77 1.38 4.16 4.16 0 00.78 1.37 7.76 7.76 0 001.15 2 2.48 2.48 0 00.61 1.14.4.4 0 00.23.4 9 9 0 001.39 2.34 3 3 0 00.68 1.21.39.39 0 00.21.4 18.13 18.13 0 001.31 2.51 1.58 1.58 0 001.71 1h56.82c.44 0 .87 0 1.31-.08 1.25-.05 1.85.49 1.63 1.79a1.1 1.1 0 000 .31c-.08.22-.16.44-.25.66h-59.4a16.2 16.2 0 00-2 0 1.53 1.53 0 01-1.71-1c-1.62-3.47-3.71-6.69-5.56-10q-4.45-8-9.07-16c-.68-1.19-1.07-2.56-2.1-3.53a10.74 10.74 0 00-1.62-3.2z"/><path class="cls-7" d="M201 53.36h22.46V70.6a6.06 6.06 0 00.13 1.85.53.53 0 01-.41.75l-3.89-2.49a28.71 28.71 0 00-4.16-2.65 13.25 13.25 0 00-2.64-1.74 40.47 40.47 0 00-4-2.69l-1.33-.84-2.39-1.53a30.7 30.7 0 00-3.8-2.44z"/><path class="cls-8" d="M223.68 52.7a1.1 1.1 0 010-.31c.22-1.3-.38-1.84-1.63-1.79l2.72-5.18.14-.19a12.22 12.22 0 001.49-2.81 2.29 2.29 0 00.84-1.6.12.12 0 000-.15 6 6 0 001.59-2.42 7.46 7.46 0 001-1.83 22 22 0 001.84-3.24 5 5 0 00.78-1.39v-.23a.86.86 0 00.25-.61 6.27 6.27 0 001.54-2.41 6.46 6.46 0 001.1-2.21 9.68 9.68 0 001.66-2.75 3.71 3.71 0 001-1.73 14.2 14.2 0 001.88-3.33 1.67 1.67 0 00.59-1l2-3.16a.55.55 0 01.51.34c1.19 2.21 2.58 4.31 3.61 6.6.15.34.26.69.65.83 1.84 3.39 3.7 6.77 5.66 10.1 1.33 2.26 2.47 4.63 3.84 6.87 1.83 3 3.26 6.25 5.28 9.15a28.45 28.45 0 011.55 3c.21.4 0 .53-.29.7a5.93 5.93 0 01-2.21.9c.15-.46-.2-.76-.39-1.09q-7.26-13-14.54-26.1c-1.12-2-2.25-4-3.52-6.24-.48 1.37-1.51 2.16-1.55 3.46-.36.1-.48.41-.64.7l-6.95 12.3-8.8 15.65c-.29.47-.45.98-1 1.17zm-.49 20.64a2.37 2.37 0 01.27 1.36 2.06 2.06 0 01-2 .91c-2.44-.06-4.89 0-7.33 0h-31.41c-1.56 0-1.56 0-1.56 1.62v22.86c0 .72.23 1.52-.15 2.15s-1.14 0-1.61.43h-.23V73.52c.44 0 .88-.07 1.31-.07h33.63c3.01-.04 6.04-.09 9.08-.11z"/><path class="cls-7" d="M201 75.6h20.54a2.06 2.06 0 002-.91 6.54 6.54 0 010 2.25v25.68h-2.85a1.24 1.24 0 00.45-1.17V79.16c0-.83-.25-1.19-1.13-1.19h-18.89z"/><path class="cls-9" d="M223.19 73.34c-3 0-6.07.07-9.11.07h-33.63c-.43 0-.87 0-1.31.07l-2.24-1.9c.19-.87.89-.61 1.42-.61h39.59c.46 0 1 .14 1.36-.25l3.89 2.49a.17.17 0 00.03.13z"/><path class="cls-10" d="M241 22.91c0-1.3 1.07-2.09 1.55-3.46 1.27 2.25 2.4 4.24 3.52 6.24q7.28 13.05 14.54 26.1c.19.33.54.63.39 1.09h-2.83c-1.48-2.56-3-5.12-4.44-7.69L241.4 23.27c-.08-.15-.25-.27-.4-.36z"/><path class="cls-8" d="M241.15 46.54h9.78c.89 0 1.13.29 1.12 1.14 0 4.25-.05 8.5 0 12.75 0 1.06-.38 1.3-1.36 1.3h-19.13c-1 0-1.32-.34-1.31-1.34q.06-6.27 0-12.54c0-1 .31-1.34 1.32-1.32 3.2.04 6.43 0 9.58.01zm.51 14.29l8 .07c.33 0 .69 0 .62-.5v-11c.12-1.85.12-1.86-1.72-1.85h-4.15a8.81 8.81 0 00-2.76.05h-1l-.28-.1c-2.56 0-5.12 0-7.68-.08-.58 0-.75.27-.75.81V60.1c0 .57.21.78.77.76h2.64a44.29 44.29 0 005.28 0z"/><path class="cls-7" d="M143.58 22.74c1 1 1.42 2.34 2.1 3.53q4.6 8 9.07 16c1.85 3.35 3.94 6.57 5.56 10a1.53 1.53 0 001.71 1 16.2 16.2 0 012 0v5.46c-.53 0-1.06 0-1.58.06-.29 0-.77-.24-.79.37-.57 1.36-.38 2.13.69 2.93.58.44 1.15.9 1.72 1.35v39.08h-36.53c-.26-.23-.58-.17-.88-.19V77.14c.28-.69 0-1.37 0-2.06v-19c0-.75.35-1.5 0-2.27a12 12 0 00.36-1.66 4.31 4.31 0 01.22-.49q5.54-9.81 11.06-19.62c1.71-3.04 3.5-6.19 5.29-9.3zm.09 23.79h-9.78c-.94 0-1.23.35-1.14 1.26a110.86 110.86 0 01.1 12.63c0 1.22.32 1.34 1.29 1.31 2.47-.08 5-.25 7.42-.12 4.11.21 8.21 0 12.31.11.44 0 .74-.08.74-.68q-.09-6.66-.08-13.31c0-.89-.24-1.22-1.18-1.2-3.22.03-6.45 0-9.68 0zM143.5 93h9.8c1 0 1.24-.33 1.23-1.27-.05-3.92 0-7.85 0-11.78 0-2 0-2-1.94-2h-.66c-2.82 0-5.64-.14-8.45-.12s-5.72 0-8.57.12c-.65 0-1.47-.25-1.91 0-.63.44.13 1.29 0 2a2.53 2.53 0 000 .55v11.34c0 1 .46 1.25 1.25 1.19 3.2-.19 6.5.06 9.25-.03z"/><path class="cls-10" d="M242.42 14.38l-2 3.16c.16-1.14-.53-1.19-1.4-1.19h-65.53v-2.4H199c.5 0 1 0 1.52-.06h10.56a4 4 0 001.55 0h7a1.5 1.5 0 00.89 0h20.91c.39.11.93-.16.99.49z"/><path class="cls-5" d="M173.45 14v9.67a10.79 10.79 0 000 2.41c.07.91-.35 1.14-1.24 1.12-2.68-.06-5.35 0-8 0-.43 0-.91.13-1.15-.41.37-.35.25-.82.25-1.24V11.14h10.12z"/><path class="cls-10" d="M143.58 22.74c-1.79 3.11-3.59 6.21-5.35 9.32q-5.55 9.81-11.06 19.62a4.31 4.31 0 00-.22.49 1.31 1.31 0 01-1.52.7c-.66-.09-1.35.16-2-.18L142 19.54a10.74 10.74 0 011.58 3.2zm.18-5.94l-1.46-2.41c.07-.76.66-.43 1-.43h15.84v7a.82.82 0 01-.68.3c-3.37 0-6.74.05-10.1-.05a3.86 3.86 0 00-2.08.3 14.56 14.56 0 01-1.47-2.65c4.21-.12 8.42.09 12.63-.09.84 0 1.4.1 1.44-1s-.41-1.36-1.42-1.35h-11.54a4.15 4.15 0 00-2.16.38z"/><path class="cls-7" d="M163.32 11.08v14.41c0 .42.12.89-.25 1.24l-.34-.32a18 18 0 00-2-3l-1.26-2.19q0-3.11.08-6.2c0-.42.12-.88-.21-1.25a4.6 4.6 0 01-.21-2.38 20.33 20.33 0 000-2.92c1.2.76 2.16 1.87 3.51 2.43z"/><path class="cls-8" d="M163.32 11.08l-.67-.22v-.77c0-1.47 0-1.47 1.52-1.47h9.66c.87.44.41 1.22.45 1.84s-.41.62-.85.63z"/><path class="cls-6" d="M173.84 8.61h-9.66c-1.51 0-1.51 0-1.52 1.47v.77c-1.35-.56-2.31-1.67-3.51-2.43-1-.63-.65-1.63-.57-2.49.05-.53.65-.35 1-.35h8.35c.45.1.9.19.86.81a3.79 3.79 0 00-1.82-.3h-6.06l-.07.28c1.06.44 1.68 1.61 3 1.62h7.14c.25 0 .71.26.75-.31l.15-.15c.71.29 1.66.09 1.96 1.08z"/><path d="M159.36 13.73c.33.37.21.83.21 1.25q0 3.09-.08 6.2l-.29-.28v-7z" fill="#dfe1f0"/><path class="cls-6" d="M171.61 7.67c0-.13 0-.26.07-.38l.21.28-.15.15c-.06.03-.1.01-.13-.05z"/><path class="cls-12" d="M127.43 102.65h-.88v-.2c.3.03.62-.03.88.2z"/><path class="cls-10" d="M224.73 45.42L222 50.6c-.44 0-.87.08-1.31.08h-56.82a1.58 1.58 0 01-1.71-1 18.13 18.13 0 01-1.31-2.51 23.83 23.83 0 003.69.23h56a5.33 5.33 0 011.2 0c1.17.31 1.7-.47 2.16-1.26.37-.63 0-1.06-.66-.91a18.57 18.57 0 01-3.94.14h-57.2c-1.48 0-1.48 0-1.45 1.38a3 3 0 01-.68-1.21c.11-.67.28-1.13 1.13-.66.31.18.79 0 1.19 0h57.79a13.54 13.54 0 003.78-.35c1.13-.31 1.55-.79 1.55-1.85.31-.15.54-.48 1-.36a12.22 12.22 0 01-1.49 2.81c-.16.12-.26.14-.19.29z"/><path class="cls-5" d="M164 58.83v-5.46h36.98v5.46c-.4 0-.8.06-1.2.06h-33c-.91-.01-1.86-.04-2.78-.06z"/><path class="cls-10" d="M234.27 28.52a6.27 6.27 0 01-1.54 2.41h-56.24q-11.88 0-23.76-.07c-.64 0-.64.29-.7.69a23 23 0 01-1.87-3.32 34.52 34.52 0 005.66.27h75.76c.9-.03 1.79 0 2.69.02z"/><path class="cls-9" d="M234.27 28.52c-.9 0-1.79-.05-2.69-.05h-75.76a34.52 34.52 0 01-5.66-.27.74.74 0 01-.29-.56 2.42 2.42 0 000-.66c-.23-.76.08-1 .8-.93 4 .24 8.06-.46 12.06.37l.34.32c.24.54.72.41 1.15.41h8c.89 0 1.31-.21 1.24-1.12h60.29a2.83 2.83 0 011.6.26 6.46 6.46 0 01-1.08 2.23zM152 31.51c.06-.4.06-.7.7-.69q11.88.08 23.76.07h56.24a.86.86 0 01-.25.61s-.08 0-.08.06a1.22 1.22 0 000 .17 5 5 0 01-.78 1.39c-.83-.66-1.7 0-2.54 0h-52.66l-1.48.22-2.15-.2h-2.23c-5.89-.06-11.78 0-17.67 0a4.89 4.89 0 01-.86-1.63z"/><path class="cls-10" d="M228.79 38.23a6 6 0 01-1.59 2.42v-.28c0-.35.1-.76-.42-.86s-.59.13-.76.45a2.18 2.18 0 01-.35.4h-66.76l-2.26-.65a4.16 4.16 0 01-.78-1.37c.5-.15 1.25.7 1.51-.39h69.18c.74.05 1.54-.25 2.23.28zm-3.38 4.55c0 1.06-.42 1.54-1.55 1.85a13.54 13.54 0 01-3.78.35h-57.79c-.4 0-.88.13-1.19 0-.85-.47-1 0-1.13.66a9 9 0 01-1.33-2.35c.44-.08.65.4 1.09.46.1-.31.19-.61.29-.91z"/><path class="cls-9" d="M160.65 46.8c0-1.38 0-1.38 1.45-1.38h57.2a18.57 18.57 0 003.94-.14c.69-.15 1 .28.66.91-.46.79-1 1.57-2.16 1.26a5.33 5.33 0 00-1.2 0h-56a23.83 23.83 0 01-3.69-.23.39.39 0 01-.2-.42z"/><path class="cls-10" d="M152.92 33.1h17.67c.75 0 2.09 2.37 1.34 2.64h-14.36a3.89 3.89 0 01-1.19-.09 1.34 1.34 0 00-1.7.57 16.71 16.71 0 01-1.76-3.12z"/><path class="cls-9" d="M154.68 36.21a1.34 1.34 0 011.7-.57 3.89 3.89 0 001.19.09h14.36c-.14.63-1.07 2.17-1.49 2.17h-13.06a1.48 1.48 0 01-1.64-.79c-.1-.21-.28-.59-.64-.2a1.32 1.32 0 01-.42-.7zM143.76 16.8a4.15 4.15 0 012.22-.44h11.54c1 0 1.47.25 1.42 1.35s-.6 1-1.44 1c-4.21.18-8.42 0-12.63.09a8.17 8.17 0 01-1.11-2z"/><path class="cls-10" d="M162.72 26.41c-4-.83-8-.13-12.06-.37-.72 0-1 .17-.8.93a2.42 2.42 0 010 .66 40.31 40.31 0 01-2.54-4.48 4.86 4.86 0 001.75.5c2.76 0 5.53.06 8.29-.07a10.67 10.67 0 003.38-.21 18 18 0 011.98 3.04z"/><path class="cls-9" d="M160.75 23.37a10.67 10.67 0 01-3.38.21c-2.76.13-5.53 0-8.29.07a4.86 4.86 0 01-1.75-.5 6.42 6.42 0 01-1-1.7 3.86 3.86 0 012.08-.3c3.36.1 6.73.05 10.1.05a.82.82 0 00.68-.3l.29.28z"/><path class="cls-10" d="M155.1 37c.36-.39.54 0 .64.2a1.48 1.48 0 001.64.79c-.26 1.09-1 .24-1.51.39a4.36 4.36 0 01-.77-1.38zm1.55 2.71l2.26.65c-.58.25-1.36.35-1.08 1.31a7.76 7.76 0 01-1.18-1.96zm3.35 2.98l-.16.93c-.45 0-.72-.44-1.15-.3a.4.4 0 01-.27-.37l.06-.07zm-1.59.15a2.48 2.48 0 01-.61-1.14c.56.16.61.63.65 1.1zm60.86 27.87c-.4.39-.9.25-1.36.25h-39.59c-.53 0-1.23-.26-1.42.61a29.91 29.91 0 01-3.71-3 14.17 14.17 0 013.68 0h23.72a19.88 19.88 0 004.41-.27c1.24.23 2.48-.26 3.72 0 1.23.12 2.46 0 3.68.1a5.69 5.69 0 002.76-.36 28.71 28.71 0 014.11 2.67zM164 58.83c.95 0 1.9.05 2.85.05h33c.4 0 .8 0 1.2-.06a30.7 30.7 0 013.8 2.44h-37.5a1.68 1.68 0 01-.55 0c-.78-.27-1.17.1-1.36.82-.31-.23-.61-.48-.93-.69a23.11 23.11 0 00-2.83-2.11c0-.61.5-.34.79-.37.44-.07.97-.06 1.53-.08z"/><path class="cls-9" d="M165.36 62.06c.19-.72.58-1.09 1.36-.82a1.68 1.68 0 00.55 0h37.5l4.12 2.66s-4.8-.21-5.19-.21h-36.34a7.46 7.46 0 01-1.63-1.38c0-.19-.12-.32-.35-.29zm43.31 6.26c-.08-.67-.53-1.27-.37-2 1.39-.41 2.78.06 4.17 0a13.25 13.25 0 012.64 1.74 5.69 5.69 0 01-2.76.36c-1.22-.06-2.45.02-3.68-.1z"/><path class="cls-10" d="M212.47 66.32c-1.39.07-2.78-.4-4.17 0a5.07 5.07 0 01.19-2.7 37 37 0 013.98 2.7z"/><path class="cls-5" d="M201 75.6V78a6.65 6.65 0 01.19 1.73v22.88h-7.93a2.48 2.48 0 00.21-1.39V78.03a2 2 0 00-.15-1.18c-.16-.65-.69-.44-1.08-.44h-7.81c-1.09 0-1.33.34-1.32 1.37v24.84c.05 0 .05.08 0 .12-1.24-.26-2.5.07-3.75-.11.47-.43 1.29.12 1.61-.43s.15-1.43.15-2.15V77.19c0-1.62 0-1.62 1.56-1.62z"/><path class="cls-7" d="M201.18 102.46V79.77A6.65 6.65 0 00201 78h18.89c.88 0 1.14.36 1.13 1.19v22.29a1.24 1.24 0 01-.45 1.17H219a1.16 1.16 0 00-.83-.19h-9.56a1.2 1.2 0 00-.84.19h-3.74c-.91-.4-1.89-.09-2.85-.19zm18.06-16.31c0-1.83-.08-3.67 0-5.49.07-1.16-.47-1.49-1.44-1.53h-8.66c-1.76 0-3.52-.09-5.28.07-.89.08-1.2.45-1.18 1.4.06 3.59 0 7.18 0 10.77 0 1.62 0 1.62 1.67 1.62 4.55 0 9.09-.07 13.64.05 1.08 0 1.24-.26 1.22-1.17 0-1.87.03-3.81.03-5.72z"/><path class="cls-5" d="M165.73 102.71l-1.77-.09V63.54q5.84 4.73 11.66 9.46c.06 0 0 .19.06.39h-9.59c-.34 0-.82-.15-1 .27a2.57 2.57 0 000 1.73c.17.47.68.34 1.07.34h10.44c1 0 1.24.32 1.24 1.26s-.22 1.36-1.28 1.34c-3.26-.07-6.52 0-9.79 0-.76 0-1.13.19-1.12 1v11.76c0 .77.27 1 1 1h10.21c.59 0 .94.27.93 1v9.57a.11.11 0 010 .13 11 11 0 00-2.63 0h-9.49z"/><path class="cls-13" d="M177.85 102.62v-9.57c0-.7-.19-1-.93-1h-10.21c-.76 0-1-.23-1-1V79.29c0-.86.36-1.06 1.12-1h9.79c1.06 0 1.27-.38 1.28-1.34s-.24-1.27-1.24-1.26c-3.48.06-7 0-10.44 0-.39 0-.9.13-1.07-.34a2.57 2.57 0 010-1.73c.16-.42.64-.27 1-.27h9.59c0-.2 0-.34-.06-.39q-5.82-4.74-11.66-9.46c-.57-.45-1.14-.91-1.72-1.35-1.07-.8-1.26-1.57-.69-2.93a23.11 23.11 0 012.83 2.11c.32.21.62.46.93.69l.35.29a7.46 7.46 0 001.63 1.38 25.31 25.31 0 003.81 3.12 13.16 13.16 0 002 1.71 29.91 29.91 0 003.71 3l2.24 1.9v29.15l-.65.12zM177 85.76h-2.95c-.29 0-.64 0-.63.4a38.74 38.74 0 00.07 4.82c1.25.39 2.54.06 3.8.18a1.08 1.08 0 00.44 0c.26-.09.26-.31.19-.54v-.61a2 2 0 000-1.15v-1.78a.21.21 0 000-.3c-.05-.33.33-.91-.46-.81h-.19c-.09-.17-.16-.27-.27-.21zm-3.52-6.21a14.51 14.51 0 000 3.09c-.18 2-.18 2 1.68 2.06 3.13 0 2.81.2 2.8-2.83 0-2.69 0-2.69-2.72-2.46h-1.52c-.19-.06-.27-.02-.28.14zM167.93 91l4 .08c.6 0 .61-.39.6-.82v-3.51c0-.9-.29-1.2-1.14-1h-3.72c-1.1-.23-1.51.18-1.37 1.31a21 21 0 010 2.51c.08 1.54.08 1.54 1.63 1.43zm1.34-6.33h2.57c.51 0 .74-.16.74-.69v-4c0-.53-.21-.71-.72-.7h-3.18c-2.3 0-2.32 0-2.29 2.28 0 1-.42 2.24.18 2.86s1.88.21 2.7.28z"/><path class="cls-14" d="M193.32 76.91a2 2 0 01.15 1.18v23.19a2.48 2.48 0 01-.21 1.39v.07l-.89-.09V80.54a21.84 21.84 0 00-.16-2.29c-.07-.75-.36-.92-1-.91-1.87 0-3.74.07-5.61 0-1 0-1.37.26-1.37 1.34v24l-.43.1-.22-.1V78.2c0-1 .31-1.3 1.31-1.28 2.79.08 5.61-.01 8.43-.01z"/><path class="cls-13" d="M193.32 76.91h-8.45c-1 0-1.32.26-1.31 1.28v24.48h-.45V77.83c0-1 .23-1.4 1.32-1.37 2.6.08 5.21 0 7.81 0 .39.01.92-.2 1.08.45z"/><path class="cls-15" d="M207.79 102.65a1.2 1.2 0 01.84-.19h9.56a1.16 1.16 0 01.83.19q-5.61.14-11.23 0zm-6.61-.19c1 .1 1.94-.21 2.87.19a15.18 15.18 0 01-2.86 0c0-.06-.01-.13-.01-.19z"/><path class="cls-9" d="M158.48 42.77c0-.47-.09-.94-.65-1.1-.28-1 .5-1.06 1.08-1.31h66.72c.51.84 1-.08 1.53 0v.28a.12.12 0 010 .15 1.76 1.76 0 00-.84 1.6c-.41-.12-.64.21-1 .36H160zm15-23.98v-2.43h65.53c.87 0 1.56 0 1.4 1.19a1.67 1.67 0 01-.59 1 18.64 18.64 0 01-3.16.27z"/><path class="cls-10" d="M173.48 18.79h63.18a18.64 18.64 0 003.16-.27 14.2 14.2 0 01-1.88 3.33c-.54-1.17-1.57-.63-2.4-.63h-62.06z"/><path class="cls-9" d="M173.48 21.2h62.06c.83 0 1.86-.54 2.4.63a3.65 3.65 0 01-1 1.73c-.66 0-1.31.05-2 .05h-61.46z"/><path class="cls-10" d="M173.48 23.63H235c.66 0 1.31 0 2-.05a9.42 9.42 0 01-1.57 2.73 2.83 2.83 0 00-1.6-.26h-60.35a10.79 10.79 0 010-2.42zm1.52 9.69c.45-.37 1-.22 1.48-.22h52.66c.84 0 1.71-.63 2.54 0a22 22 0 01-1.84 3.24c-.28-.76-.93-.67-1.56-.67h-52.61c-.08-.79.11-1.67-.67-2.35z"/><path class="cls-9" d="M175.67 35.73h52.58c.63 0 1.28-.09 1.56.67a7.46 7.46 0 01-1 1.83c-.69-.53-1.49-.28-2.23-.28h-50.7a5.9 5.9 0 01-.21-2.22z"/><path class="cls-10" d="M226.34 42.4a1.76 1.76 0 01.84-1.6 2.29 2.29 0 01-.84 1.6z"/><path class="cls-16" d="M232.43 31.77a1.22 1.22 0 010-.17l.08-.06zm-7.7 13.65c-.07-.15 0-.17.14-.19z"/><path class="cls-17" d="M235.33 60.86h-2.64c-.56 0-.77-.19-.77-.76V48.23c0-.54.17-.81.75-.81 2.56 0 5.12.06 7.68.08l.2.3v4a.47.47 0 000 .66v1.1a4.57 4.57 0 00-1.33 1.54 43.41 43.41 0 00-3.89 5.76z"/><path class="cls-5" d="M244.39 47.58h4.15c1.84 0 1.84 0 1.72 1.85-.38.05-.42.33-.43.63-.45.09-.59.51-.82.83-.59.83-1.15 1.69-1.74 2.53-1.66 2.39-3.49 4.66-5 7.2h-.6l-.12-1.76c.1-2.13.1-4.27 0-6.4l.11-1.09a45.57 45.57 0 002.73-3.79z"/><path class="cls-17" d="M242.32 60.59c1.46-2.54 3.29-4.81 5-7.2.59-.84 1.15-1.7 1.74-2.53.23-.32.37-.74.82-.83v8.8c0 .4-.19.92.41 1.13v.44a8.12 8.12 0 01-1.18.21c-2.28.01-4.53-.01-6.79-.02z"/><path class="cls-5" d="M235.33 60.86a43.41 43.41 0 013.86-5.75 4.57 4.57 0 011.33-1.54h.1v7.28a44.29 44.29 0 01-5.29.01z"/><path class="cls-17" d="M244.39 47.58a45.57 45.57 0 01-2.69 3.79l-.07-3.74a8.81 8.81 0 012.76-.05zM250.26 60c-.6-.21-.4-.73-.41-1.13v-8.8c0-.3 0-.58.43-.63z"/><path class="cls-15" d="M241.63 47.63l.07 3.74c0 .36-.07.72-.11 1.09-.49-.24-.31-.7-.32-1.07v-3.37c-.58.45-.4 1-.44 1.41-.11 1.37.22 2.77-.2 4.12h-.1v-5.76a1.67 1.67 0 00.08-.2z"/><path class="cls-17" d="M242.32 60.59h6.76a8.12 8.12 0 001.18-.21c.07.51-.29.51-.62.5l-8-.07a.83.83 0 01.06-.21z"/><path class="cls-15" d="M241.72 60.62a.83.83 0 00-.06.21h-1v-.85c.18-.06.5 0 .47-.3 0-.07-.31-.12-.47-.19v-.63h1z"/><path class="cls-18" d="M240.63 47.65a1.67 1.67 0 01-.08.2l-.2-.3z"/><path class="cls-13" d="M143.67 46.53h9.68c.94 0 1.18.31 1.18 1.2q0 6.66.08 13.31c0 .6-.3.69-.74.68-4.1-.08-8.2.1-12.31-.11-2.46-.13-4.95 0-7.42.12-1 0-1.31-.09-1.29-1.31a110.86 110.86 0 00-.1-12.63c-.09-.91.2-1.27 1.14-1.26 3.26.02 6.52 0 9.78 0zm9.05 14V49.39c0-.25 0-.51.06-.76.14-.91-.23-1.21-1.15-1.15-1.6.09-3.2.06-4.81.08-.61 0-1.22 0-1.83-.08s-.91.17-.87.85c.06.94 0 1.88.05 2.81q0 4.59-.05 9.17c0 .21 0 .46.25.52 2.72.11 5.45.11 8.17 0 .23.03.24-.09.18-.26zm-14.94.28c1.53 0 3.06 0 4.58.08.53 0 .69-.21.69-.72 0-2.21 0-4.43-.06-6.65v-5.67c0-.16 0-.32-.2-.31-2.7-.07-5.4-.13-8.1 0a.33.33 0 00-.31.38v12.44c0 .49.28.52.64.51zM143.5 93c-2.75.11-6.05-.14-9.34.11-.79.06-1.27-.2-1.25-1.19.05-3.78 0-7.56 0-11.34a2.53 2.53 0 010-.55c.18-.67-.58-1.52 0-2 .44-.3 1.26 0 1.91 0 2.85-.08 5.71-.09 8.57-.12s5.63.07 8.45.12h.66c1.94 0 1.94 0 1.94 2v11.78c0 .94-.23 1.29-1.23 1.27-2.99-.14-6.07-.08-9.71-.08zm2.2-.69a43.59 43.59 0 004.85 0h1.53c.24 0 .53.2.65-.19V80.23c.3-1.06-.1-1.42-1.19-1.36-1.65.09-3.3 0-4.95.06h-2.19c-.15 0-.21 0-.2.17v3.29c0 3.09 0 6.18-.06 9.27 0 .52.18.75.71.61zM134.46 79.1c-.1 4.34-.09 8.68 0 13 0 .06.08.17.12.17h8c.5 0 .46-.37.46-.69V79.12c0-.14 0-.2-.16-.17h-.44c-2.35-.1-4.69-.1-7 0h-.65c-.23-.06-.32-.02-.33.15z"/><path class="cls-10" d="M171.61 7.67c0 .06.07.08.13 0 0 .57-.5.31-.75.31h-7.14c-1.32 0-1.94-1.18-3-1.62l.07-.28h6.06a3.79 3.79 0 011.82.3 12.55 12.55 0 002.81 1.29zm55.55 32.7c-.51-.09-1 .83-1.53 0A2.18 2.18 0 00226 40c.17-.32.37-.53.76-.45s.38.45.4.82z"/><path class="cls-9" d="M173.18 68.41a12.68 12.68 0 01-2-1.73 1.41 1.41 0 011.45-.72c10.62.13 21.24-.21 31.86-.11a9.71 9.71 0 00.45 2.61l-4.41.3s-15.76-.25-23.67-.32a14.16 14.16 0 00-3.68-.03z"/><path class="cls-10" d="M204.48 66.14h-31.87a1.42 1.42 0 00-1.44.73 25.31 25.31 0 01-3.81-3.12h36.34a2 2 0 01.78 2.39z"/><path class="cls-16" d="M165.73 62.34l-.35-.29c.23-.05.31.1.35.29z"/><path class="cls-13" d="M219.24 86.15v5.72c0 .91-.14 1.2-1.22 1.17-4.53-.12-9.02-.04-13.62-.04-1.66 0-1.66 0-1.67-1.62V80.61c0-.95.29-1.32 1.18-1.4 1.76-.16 3.52 0 5.28-.07h8.66c1 0 1.51.37 1.44 1.53-.13 1.81-.05 3.65-.05 5.48zm-1 .62c-.14-.2-.32-.16-.5-.09h-2.83c-1 0-1.89 0-2.83-.07-.54 0-.69.24-.68.73v3.92c0 .43 0 .86.64.68a45.32 45.32 0 005.71 0h.43c.15 0 .19-.1.14-.24v-4.6a.18.18 0 00-.11-.33zm-14.29-1.25a15.75 15.75 0 004 0 7.39 7.39 0 002.3 0c.18 0 .23-.1.2-.26v-.22c0-1.32 0-2.64.08-4 0-.72-.28-.86-.91-.84h-3.74c-2.3 0-2.34 0-2.28 2.29 0 1-.3 2 .23 3h.07zm12.22.11c.74.07 1.49.36 2.17-.19v-3.45c.14-1.73.14-1.74-1.61-1.72-1.06 0-2.12 0-3.18.07-2.13-.19-2.13-.19-2.13 1.85 0 .4 0 .79.06 1.19a3.75 3.75 0 00.12 2.2 13.75 13.75 0 004.15 0zm-12.55 5.8c-.16.47 0 .66.48.52a7.45 7.45 0 002.16 0c1.17 0 2.34 0 3.51.08.56 0 .78-.18.77-.76a24.22 24.22 0 010-3.3c.11-1.15-.31-1.54-1.41-1.3h-5.05c-.31-.07-.54 0-.47.38z"/><path class="cls-17" d="M169.27 84.7c-.82-.07-2.09.42-2.7-.2s-.17-1.88-.18-2.86c0-2.27 0-2.27 2.29-2.28h3.18c.51 0 .73.17.72.7v4c0 .53-.23.7-.74.69-.84-.07-1.61-.05-2.57-.05z"/><path class="cls-5" d="M175.19 79.41c2.72-.23 2.71-.23 2.72 2.46 0 3 .33 2.84-2.8 2.83-1.86 0-1.86 0-1.68-2.06.57-1.09 1.49-1.98 1.76-3.23z"/><path class="cls-17" d="M169.26 85.76h2.19a15.34 15.34 0 01-1.71 3.38c-.45.78-.85 1.6-1.81 1.89-1.55.08-1.55.08-1.55-1.46a21 21 0 000-2.51c-.14-1.13.27-1.54 1.37-1.31a1.57 1.57 0 001.51.01z"/><path class="cls-5" d="M167.93 91c1-.29 1.36-1.11 1.81-1.89a15.34 15.34 0 001.71-3.38c.85-.18 1.19.12 1.14 1-.07 1.17 0 2.34 0 3.51 0 .43 0 .83-.6.82zm9.95-.45c.07.23.07.45-.19.54a1.08 1.08 0 01-.44 0c-1.26-.12-2.55.21-3.8-.18a38.74 38.74 0 01-.07-4.82c0-.43.34-.4.63-.4h2.53v.38a20.52 20.52 0 00-2.41 4.19c-.12.18-.14.4.1.4a9.32 9.32 0 003.65-.11z"/><path class="cls-17" d="M174.1 90.34a20.52 20.52 0 012.41-4.19l.46-.21h.44c.35 1.37-.41 2.71-.09 4.1.08.37-.38.46-.72.49a9.1 9.1 0 01-2.5-.19zm1.09-10.93c-.27 1.25-1.2 2.14-1.76 3.23a14.51 14.51 0 010-3.09l.23-.15z"/><path class="cls-17" d="M174.1 90.34a9.1 9.1 0 002.5.22c.34 0 .8-.12.72-.49-.32-1.39.44-2.73.09-4.1.79-.1.41.48.46.81v2c-.38.39-.06.77 0 1.15v.61a9.32 9.32 0 01-3.68.19c-.19.01-.19-.21-.09-.39z"/><path class="cls-17" d="M177.88 89.94c-.06-.38-.38-.76 0-1.15a2 2 0 010 1.15zm-8.62-4.18a1.57 1.57 0 01-1.53 0zm7.74.18l-.46.21v-.38h.46a1.09 1.09 0 010 .17z"/><path class="cls-17" d="M177 85.94a1.09 1.09 0 000-.18c.15-.06.22 0 .26.16zm-3.33-6.54l-.23.15c.01-.16.09-.2.23-.15z"/><path class="cls-12" d="M184.46 102.65h-.23v-24c0-1.08.32-1.39 1.37-1.34 1.87.08 3.74 0 5.61 0 .67 0 1 .16 1 .91a21.84 21.84 0 01.16 2.29v22.11h-.46a1.49 1.49 0 000-.21V78.77c0-.76-.24-1-1-1h-5.5c-.79 0-1 .29-1 1v23.65c.06.1.06.16.05.23z"/><path d="M191.91 102.44a1.49 1.49 0 010 .21q-3.74.15-7.47 0v-.2z" fill="#c5cae5"/><path class="cls-8" d="M241.6 58.86h-1v-5.31c.42-1.35.09-2.75.2-4.12 0-.45-.14-1 .44-1.41v3.37c0 .37-.17.83.32 1.07.14 2.13.14 4.27.04 6.4zm-.97.63c.16.07.46.12.47.19 0 .34-.29.24-.47.3z"/><path class="cls-17" d="M143 51.37V53a.58.58 0 000 .16v.42a1.26 1.26 0 00-.8.68q-2.2 3.19-4.42 6.38h-1.86c-.89.06-1.23-.28-1.22-1.2V47.58c2.7-.16 5.4-.1 8.1 0l.2.31v.66a1.28 1.28 0 000 1.32v.66a.68.68 0 000 .84z"/><path class="cls-5" d="M144.38 60.83c-.3-.06-.26-.31-.25-.52q0-4.58.05-9.17a12.77 12.77 0 002.65-3.58c1.61 0 3.21 0 4.81-.08.92-.06 1.29.24 1.15 1.15 0 .25 0 .51-.06.76-.61.16-.38.67-.45 1.06-.43 0-.65.27-.86.58-1.48 2.11-3 4.21-4.43 6.35-.66 1-1.65 1.78-2 3z"/><path class="cls-17" d="M145 60.38c.32-1.22 1.31-2 2-3 1.44-2.14 2.95-4.24 4.43-6.35.21-.31.43-.6.86-.58v8.52c0 .45-.15 1 .41 1.25v.33a40.44 40.44 0 01-7.7-.17z"/><path class="cls-5" d="M137.77 60.62q2.22-3.18 4.42-6.38a1.26 1.26 0 01.8-.68c0 2.22 0 4.44.06 6.65 0 .51-.16.74-.69.72-1.52 0-3.05 0-4.58-.08z"/><path class="cls-17" d="M146.83 47.56a12.77 12.77 0 01-2.65 3.58c0-.93 0-1.87-.05-2.81 0-.68.23-.9.87-.85s1.22.06 1.83.08zm5.89 12.66c-.56-.28-.4-.8-.41-1.25v-8.52c.07-.39-.16-.9.45-1.06zm-14.95.4v.23h-2.74c-.36 0-.64 0-.64-.51V47.9a.33.33 0 01.31-.38v11.86c0 .92.33 1.26 1.22 1.2.61 0 1.23.04 1.85.04zm7.23-.24a40.44 40.44 0 007.7.17l-.16.26c-2.72.11-5.45.11-8.17 0zm-2-10.55a1.28 1.28 0 010-1.32zm0 1.54a.68.68 0 010-.88zm0-3.52l-.2-.31c.26-.01.25.15.2.31zm0 5.29a.58.58 0 010-.16v-.07z"/><path d="M152.55 60.83l.16-.26c.07.17.06.29-.16.26z" fill="#30348c"/><path class="cls-17" d="M134.71 78.93h.65a11.26 11.26 0 003.57.15 10.37 10.37 0 003.47-.16h.44l.16.17v.65a.46.46 0 000 .67V82a1.41 1.41 0 00-.16 1.06 4.18 4.18 0 01-1 3.15 24 24 0 00-2.78 3.92 3.28 3.28 0 01-4 2c-.49-.35-.45-.87-.44-1.38V79.11a1.09 1.09 0 01.09-.18z"/><path class="cls-5" d="M144.83 92.29c-.53.14-.72-.09-.71-.61 0-3.09 0-6.18.06-9.27a7.4 7.4 0 002.47-3.27s0-.14-.07-.21c1.65 0 3.3 0 4.95-.06 1.09-.06 1.49.3 1.19 1.36a2 2 0 00-.44 1.49.84.84 0 00-.72.41l-6.3 9.09a1.25 1.25 0 00-.43 1.07z"/><path class="cls-17" d="M145.26 91.22l6.3-9.09a.84.84 0 01.72-.41c-.05 3.47.26 6.94-.18 10.4a1 1 0 000 .17h-1.53l-.44-.19c-.55-.4-1.19-.21-1.78-.2a4.79 4.79 0 01-3.09-.68z"/><path class="cls-5" d="M135.14 92.09a3.28 3.28 0 004-2 24 24 0 012.78-3.92 4.18 4.18 0 001-3.15A1.41 1.41 0 01143 82v9.65c0 .32 0 .69-.46.69h-8s-.08-.11-.12-.17z"/><path class="cls-17" d="M146.58 78.93c0 .07.09.16.07.21a7.4 7.4 0 01-2.47 3.27v-3.29l.2-.17h.43c.08.1.15.1.23 0h.43a.44.44 0 00.67 0zm5.52 13.19c.44-3.46.13-6.93.18-10.4a2 2 0 01.44-1.49V92.1zm-16.96-.03h-.69c-.08-4.34-.09-8.68 0-13h.24v11.6c0 .53-.04 1.05.45 1.4zm10.12-.87a4.79 4.79 0 003.07.68c.59 0 1.23-.2 1.78.2-1.47.13-3-.22-4.41.19h-.87a1.25 1.25 0 01.43-1.07zm-2.86-12.29a10.37 10.37 0 01-3.47.16 11.26 11.26 0 01-3.57-.15c2.35-.11 4.69-.11 7.04-.01z"/><path class="cls-17" d="M145.7 92.29c1.46-.41 2.94-.06 4.41-.19l.44.19a43.59 43.59 0 01-4.85 0zm6.4-.17h.63c-.12.39-.41.2-.65.19a1 1 0 01.02-.19z"/><path class="cls-18" d="M143 80.44a.46.46 0 010-.67z"/><path class="cls-17" d="M146.15 78.93a.44.44 0 01-.67 0z"/><path class="cls-18" d="M145.05 78.93c-.08.1-.15.1-.23 0zm-.66.07l-.2.17c-.01-.17.05-.26.2-.17zm-1.39.12l-.16-.17c.16-.03.16.05.16.17zm-8.3-.01h-.24c0-.17.1-.21.25-.17a1.09 1.09 0 00-.01.17z"/><path class="cls-17" d="M203.8 85.53c-.53-1-.2-2-.23-3-.06-2.29 0-2.29 2.28-2.29h3.74c.63 0 .94.12.91.84-.07 1.31-.06 2.63-.08 4-1.74.45-3.52.11-5.28.22-.46.01-.96-.16-1.34.23z"/><path class="cls-5" d="M211.55 85.58a3.67 3.67 0 01-.11-2.2c1.11-.72 1.38-2 2.06-3 1.06 0 2.12-.06 3.18-.07 1.75 0 1.75 0 1.61 1.72-.42.09-.49.53-.76.75-.83.7-.89 1.94-1.81 2.57a23.12 23.12 0 00-4.16.11.29.29 0 00-.01.12z"/><path class="cls-17" d="M217.71 91.91A45.32 45.32 0 01212 92c-.14-.63.34-1 .61-1.46.73-1.27 1.79-2.36 2.25-3.8h2.83a.74.74 0 000 .21 12.58 12.58 0 01.02 4.96zm-11.48.02a7.45 7.45 0 01-2.16 0l-.48-.52V87a.54.54 0 00.47-.38h5.05c.26.59-.19 1-.44 1.38-.8 1.34-1.67 2.63-2.44 3.93z"/><path class="cls-5" d="M206.23 91.93c.81-1.3 1.64-2.59 2.44-3.9.25-.42.7-.79.44-1.38 1.1-.24 1.52.15 1.41 1.3a24.22 24.22 0 000 3.3c0 .58-.21.78-.77.76-1.18-.01-2.35-.01-3.52-.08zm8.63-5.24c-.46 1.44-1.52 2.53-2.25 3.8-.27.46-.75.83-.61 1.46-.64.18-.64-.25-.64-.68v-3.92c0-.49.14-.75.68-.73.96.04 1.87.05 2.82.07z"/><path class="cls-17" d="M215.72 85.31c.92-.63 1-1.87 1.81-2.57.27-.22.34-.66.76-.75v3.45l-2.17.19h-.44a.11.11 0 000-.13s.04-.14.04-.19zm-2.22-4.97c-.68 1-.95 2.32-2.06 3 0-.4-.07-.79-.07-1.19 0-2 0-2 2.13-1.81zm4.21 11.57a12.63 12.63 0 000-5l.49-.11v.1l.1.18v4.6l-.14.24zm-13.91-6.38c.38-.39.88-.22 1.34-.25 1.76-.11 3.54.23 5.28-.22v.22l-.2.26a7.39 7.39 0 01-2.3 0h-4z"/><path class="cls-12" d="M215.7 85.59a13.75 13.75 0 01-4.15 0 .29.29 0 010-.16h4.17a.11.11 0 01-.02.16z"/><path class="cls-17" d="M203.92 85.52h4a15.75 15.75 0 01-4 0z"/><path class="cls-12" d="M216.14 85.63l2.17-.19c-.68.56-1.43.26-2.17.19z"/><path class="cls-17" d="M203.59 91.43l.48.52c-.49.14-.64-.05-.48-.52zm.47-4.77a.54.54 0 01-.47.38c-.07-.42.16-.45.47-.38zm14.13.09l-.49.11a.66.66 0 010-.2c.17-.07.35-.11.49.09z"/><path class="cls-18" d="M218.14 91.89l.14-.24c.05.14.01.22-.14.24z"/><path class="cls-17" d="M218.28 87.05l-.1-.18v-.1a.18.18 0 01.1.28zm-8.06-1.51l.2-.26c.03.16-.02.26-.2.26z"/><path class="cls-14" d="M191.91 102.44h-7.43V78.79c0-.74.21-1 1-1h5.5c.77 0 1 .27 1 1-.06 7.89-.06 15.77-.07 23.65zM191 91.61a.53.53 0 00.51-.58.4.4 0 00-.48-.44.5.5 0 00-.52.55c-.03.3.17.43.49.47z"/><path class="cls-5" d="M215.73 85.46h-4.17a23.12 23.12 0 014.16-.11s.01.06.01.11z"/><path class="cls-13" d="M191 91.61c-.28 0-.48-.17-.49-.47a.5.5 0 01.52-.55.4.4 0 01.48.44.53.53 0 01-.51.58z"/><path class="cls-10" d="M171.91 35.74l3.84-.01-.06-2.66-5.55.02 1.77 2.65z"/><path class="cls-9" d="M171.91 35.74h3.96l.22 2.22-5.95-.02"/><path class="cls-10" d="M208.29 66.16l-3.99-.02-.8-2.43h5.27l-.48 2.45z"/><path class="cls-9" d="M208.45 66.12l-4.37.04.22 2.34 5.53-.12-1.38-2.26z"/><path class="cls-21" d="M191.42 205.56l1.58-11.72 2.11-20.61 6.53-.41 9.81-1s4.61 11.45.1 22.19c-.19.46-.38 1-.57 1.51l-.55 2c-6.01 3.04-12.01 5.04-19.01 8.04z"/><path d="M185.91 179l14.51 3.61s1.25 13.86-.72 19.62a118.52 118.52 0 01-17.28 6.38z" fill="#f5cd46"/><path class="cls-23" d="M220.37 159.36c-.06 2.26 2.32 4.68 2.32 4.68s3.69 2.2 4.77 3.07c2.13 1.71 5.25 4.86 6.72 4.78s3.27-1.27 4-1.66c1.94-1.08 2.11-.63 2.67-.12s-1.81 1.44-2.3 2c-.62.76 2.22 1.58 2.76 2.07 1.92 1.73-1.48 5.79-3.51 5.26-2.18-.56-2.13-1.26-4.34-2.4-1.1-.57-1.62-1.53-2.71-2.12-4.83-2.68-10.19-4.17-13.05-6.21-1.53-1.09-3.19-5.42-3.41-8m-36.4-8.8c-.31 2.24-3 4.24-3 4.24s-4 1.56-5.22 2.24c-2.38 1.33-6 3.92-7.41 3.61s-3-1.79-3.65-2.29c-1.72-1.39-2-1-2.61-.56s1.55 1.72 1.93 2.39c.49.86-2.44 1.2-3 1.59-2.18 1.39.5 6 2.59 5.77 2.24-.2 2.31-.9 4.68-1.66 1.17-.38 1.85-1.24 3-1.65 5.21-1.84 10.74-2.43 13.9-4 1.69-.82 4-4.83 4.68-7.36"/><path class="cls-24" d="M217.29 147.34c1.33 2 5.82 8 6 10.86.12 2.71-9.25 5.47-9.92 4.37-3.92-6.51-4.78-2.5-2.15-17.75.07-.41-.91-1.47-.37-1.51 1.28-.09 4.97 1.8 6.44 4.03zm-36.12-4.48c-1.63 1.78-7 6.95-7.6 9.77-.55 2.65 8.26 6.88 9.1 5.89 4.91-5.8 5.11-1.7 5-17.18-.06-1.45-3.96-1.26-6.5 1.52z"/><path class="cls-23" d="M193.83 117.62c-2.27 1.12-2.26 5.23-2.25 10.26 0 5.2 1 6.41 1.4 6.87a7.19 7.19 0 005.22 1.95c-.28.36.1.09-.68 2.18-.58 1.55-2.86 6.29 3.54 7.09 7.08.88 6.66-2.69 6.2-4.43-.42-1.59-1.63-3.15-1-4.2.48-.78 1-.77 1.47-1.83s.24-1.8.82-3.26c.35-.88.5-.74 1.13-2s1.54-3 .95-3.61c-.35-.38.09-1.55-.75-2-.42-.21-1.38-.38-1.25-1.16.25-1.56-2.54-3.21-3-3.51-1.15-.69-2.08-1-7.22-1.9-3.91-.65-4.19-.64-4.58-.45z"/><path class="cls-25" d="M193.21 131.22v.07a1.54 1.54 0 01.15.34 3.31 3.31 0 001.19 1.32 3.18 3.18 0 002.45.05 2.54 2.54 0 001.25-1h-.45c-1.14-.14-3.9-.56-4.41-.72.01-.05-.15-.1-.18-.06z"/><path d="M193.16 118.55c-.89-.91-2.23-4-1.84-5.35a5.54 5.54 0 014.42-3.54 48.12 48.12 0 017.26.34c2.12.37 6.41 1.83 7.93 3.35 1.28 1.3 2.7 4.85 3 6.64.26 1.43.22 5.09-.32 5.78a6.69 6.69 0 00-1 2.77c.2.65-1.55 3.65-1.55 4.14 0 1.91-3.45 4.18-4.58 3.41-.58-.4-.47-1.55-.45-1.74a4.61 4.61 0 011.23-2.3c1.33-1.8 3.24-5 2.71-5.58s-.88-2.65-3.55.94c-.26.36-.09-.9 0-2a9.15 9.15 0 00-.25-3.24c-.82-2.29-5.22-2.61-7.41-2.77-3.06-.18-4.44.34-5.6-.85z"/><path class="cls-24" d="M213.46 180.51c-.85 3.23-9.3 3.84-12.4 3.54-5.85-.56-15.84-2.08-15.84-2.08s-4.15-32.47 1-41.09c.14-.24-1.33 0-1.08-.23 2.67-2 12.4-1.77 12.4-1.77s-.59 2.88 0 3.54c1.54 1.76 7 2.21 7.78 1.84a3.23 3.23 0 002-2.72s7.74 1.49 7.11 8.09c-.43 3.95-.97 30.88-.97 30.88z"/><path class="cls-26" d="M52.83 122.82l.45.44a5.83 5.83 0 00-.63-.22z"/><path class="cls-27" d="M135.6 40.25a43.9 43.9 0 015.69-.64c3.13-.14 4.71-.21 5.78.18 2.86 1 5 3.69 4.61 4.43-.19.35-1 .4-1.62.18a2.44 2.44 0 01-.91-.73 11.29 11.29 0 00-1.8-1.44c-1.78-1.14-4.93.24-4.88.55a.83.83 0 00.9.72c1.45-.06 4.11-.06 4.16.36.09.81-.47.87-1.54 1a26.7 26.7 0 00-3.25.36c-2.25.49-4.25-.76-7.45-.69-1.4 0-5.63 2-11.39 4.47l-9.11 3.93s-2.87-2.94-3.64-4c-.16-.23-2.41-.94-.94-1.64 5.64-2.73 23.17-6.73 25.39-7.04z"/><path class="cls-21" d="M90.89 99.31s-1.11-8.85 7.74-8.85c5.53 0 10.74 11 10.74 11s1.11-4.43 4.43-6.64a7.93 7.93 0 015.53-1.11l-5.91-12.11S99.74 84.93 95.31 86c-5.48 1.37-19.91 1.1-19.91 1.1s-.15 10.44 0 11.07A9.67 9.67 0 0182 96c4.46 0 8.89 3.31 8.89 3.31z"/><path class="cls-25" d="M101.84 48.43c2.53-.88 7.91-4.12 11-3.48 2.94.59 3.4 11.39 2 11.81-8 2.47-1.74 4.46-17.41-2.43-1.43-.65.48-4.53 4.41-5.9z"/><path class="cls-27" d="M102.93 26.82c2.39 1.46 1.95 6 1.41 11.53-.55 5.72-1.73 6.95-2.25 7.42a7.89 7.89 0 01-5.94 1.6c.27.44-.12.1.53 2.48.47 1.76 2.49 7.22-4.64 7.44-7.89.25-7.05-3.64-6.37-5.51.62-1.71 2.12-3.3 1.51-4.53-.46-.91-1-1-1.44-2.17s-.08-2-.57-3.67a24.23 24.23 0 00-1-2.28c-.53-1.31-1.38-3.43-.68-4.07.43-.38.07-1.71 1-2.09.49-.19 1.56-.28 1.5-1.15-.11-1.74 3.13-3.27 3.72-3.56 1.34-.63 2.39-.83 8.15-1.35 4.35-.39 4.65-.35 5.07-.09z"/><path class="cls-25" d="M101.41 41.9v.09a1.87 1.87 0 00-.23.39 3.94 3.94 0 01-1.6 1.47 3.89 3.89 0 01-3-.16 3.13 3.13 0 01-1.4-1.4h.55c1.41-.05 4.81-.24 5.44-.37.01-.02.21-.07.24-.02zM75.4 87.14s15.49 0 19.91-1.1c7.2-1.8 11.06-4.43 11.06-5.53 0-5.64 2.22-21 .36-27.29-.91-3-10-3.37-10-3.37s.35 3.23-.37 3.9c-1.88 1.78-8 1.7-8.76 1.22a3.56 3.56 0 01-1.88-3.19S77 52.62 77 60c0 4.34-1.6 27.14-1.6 27.14z"/><path class="cls-27" d="M67.66 69.44c-6.64 11.07-.87 13 .89 14.12 3.28 2.08 9.29 3.39 14.8 6 1.23.6 1.87 1.62 3.12 2.18 2.5 1.13 2.49 1.9 4.93 2.39 2.28.46 5.78-4.23 3.55-6-.62-.5-3.8-1.23-3.16-2.11.5-.69 3-1.9 2.41-2.39s-.87-1-2.94.29c-.75.48-2.68 1.91-4.29 2.08s-5.25-3.12-7.71-4.87c-1.25-.89-5.67-2.58-7.18-4-.79-.73 1.11-2.21 2.22-4.43z"/><path class="cls-25" d="M74 57.13c-1.67 2.1-7.23 8.2-7.67 11.35-.41 3 9.63 7 10.48 5.83 5-6.77 5.52-2.25 4.2-19.32 0-.47 1.15-1.53.56-1.63-1.43-.24-5.7 1.46-7.57 3.77z"/><path d="M107.48 58.38c3.63-.25 2.21-5.53-1.11-14.38-.68-1.83.72-5.82 1.11-7.74.3-1.46 1.35-4.06 1.11-5.53-1.11-6.64-5.64-7.57-10-8.85-3.22-1-10.45.38-13.27 2.21a10.39 10.39 0 00-4.43 6.64c-.63 2.71-.56 9.44-1.1 12.17-2.18 11.1 1.93 20.86 3.36 16.59 2.21-6.64.89-7 2.21-7.74a7.65 7.65 0 002.21-2.22c.52-.7 1.45-2.63 0-5.53-1.11-2.21 0-3.32 0-3.32a4.55 4.55 0 01-3.27-5.76c.24-1 1.25-2.83 3.81 1.39.26.43 2.11-3.34 2.78-4.48.5-.85 2.21-3.31 2.21-3.31S98 32 99.74 32.94s4.42 0 4.42 0-.55 11.89-3.32 13.28a11.05 11.05 0 01-4.42 1.1v3.32s5.5-1.12 7.74 1.11 2.32 6.7 3.32 6.63z" fill="#ee7119"/><path d="M94.42 218.56l-2.77-23.42-9.5.72-8.7-1.27s-.33 2-.75 5c0 .07-3.27 9.92-3.28 10 2.9 1.63 7.62 4.49 12 6a66.48 66.48 0 0013 2.97z" fill="#947558"/><path d="M121.42 219.56c-.18-3.08-.72-13.18-.81-15.23a32.64 32.64 0 00-2-9.54l-2.82-.92-24.19-.45s1.4 18.37 2.86 25.14c9.96 2 17.63 1.51 26.96 1z" fill="#c4a580"/><path class="cls-23" d="M115.42 69.9c-.16-1.11-1.11-5.5-9.65-4.32C85.48 65.47 85.45 73 85.48 74c.14 5.45-3.39 1.7-2.13 6.39.23.86 3.17 11.84 3.07 12.56-.22 1.64 1.12 5.3.12 6.61-.66.88-4.46.9-4.26 1.07.85.69 9.18 9 12.78 9.58 1.48.23 8.59-1.74 10.65-2.13 2.23-.41 8.88-4.53 8.88-4.53s-4.14-3.82-4.62-4c-2.37-.8-5-.16-5.3-1l-.3-2.22s4.59.5 6.66-.92c2.33-1.6 2.92-3.41 2.41-7.13-.16-1.11 1.98-18.38 1.98-18.38z"/><path d="M115.51 70.66c1.71-1.12 4.46-5.48 4.78-6.32.41-1.08-1.34-4.42-2.63-6.28-1.1-1.6-3-.76-4.86-2.91-1-1.19-.59-1.55-1.42-2.2-1.84-1.44-4 .49-7.35-.77-1-.39-.69-.51-1.8-1-2.72-1.06-6.51-1-8.2 1.14-.52.65-.4 1-.93 1.32-1.33.94-2.62-.59-4.45 0a4.55 4.55 0 00-2.88 3.39c-.1.77.12 1.42-.3 1.83s-.94 0-1.64.23c-1.27.33-3.44 2.24-3.33 3.9s.82 2.22.46 3.33c-.21.67-3.32 3.62-2.71 4.9.46 1 1.27.78 1.42 2.07s-1 1.26-.65 3.49c.46 3.33 2 2 1.72 4.28-.12 1 .69 2.08 1 2.82.93 2.58 2.52 8.26 3.79 9.21s1-.75 3.19-1.06c1.58-.22.44-2.94 1.07-4.26 1-2-4-5.24-4.26-7.46-.16-1.11-1-3.28 0-4.26 2.13-2.13 3.41-1.34 4.26 0 7.45 11.72 1.84-8 5.32-7.45 1.9.28 8.33-.53 11.72 0 5.09.87 7.33 2.94 8.68 2.06z" fill="#855445"/><path d="M86.28 99.55c-2 1.53-24.35 7.18-26.62 12.78-2.18 5.36 8.89-.49 9.58 9.59.52 7.63-3.69 23.89-2.85 33.17.93 10.37 4.56 17.32 5 25.41.36 6.88-.81 9.32 0 14.91.35 2.43 20.29 3.52 27.69 4.26 10.65 1.06 23.06.34 22.37-4.26-1.29-8.63 8.52-21.3 8.52-21.3s2.37-24.58 3.19-25.56c1.57-1.88-1.57-17.07-.9-21.08.86-5.17-1.32-20.2-1.23-20.46.68-1.87-20.59-7.45-20.59-7.45s1.9 6.19-1 7-8.23 2.58-12.49 1.51c-1.95-.48-10.67-8.52-10.67-8.52z" fill="url(#Couleur_Vagues_lisses)"/><path class="cls-26" d="M133.14 110.2c-.85-1.31-4.13-6.38-6.63-6.51-4.37-.24.54 34.5.54 34.5s6.09-8.55 8.22-7.75c0 0-.69-18.01-2.13-20.24z"/><path class="cls-25" d="M103.25 87.05s0 .11.06.14a3.89 3.89 0 01.33.63 5.83 5.83 0 002.36 2.31 4.75 4.75 0 006.16-2.69h-.77c-2 0-6.81-.19-7.7-.39-.12-.05-.4-.05-.44 0z"/><path class="cls-27" d="M75.42 97.56c-.42 4.64.73 7.07 1 9.71a18.23 18.23 0 001.11 5.53 15.86 15.86 0 005.47 6.63c4.54 3.48 10.88 8.43 18.8 14.39a5.3 5.3 0 002.22-3.32 5 5 0 000-1.11c-.37-2.73-15.19-13.43-16.38-14.7l-1.22-18.13s.42-1-4-1c-5.53 0-7 2-7 2zm43.91-3.89c2.42 3.07 2.91 3.28 3.94 5.25a15 15 0 011.73 4.38 13.31 13.31 0 01-.84 7.19c-1.59 4.53-3.77 10.9-6.6 18.71a4.47 4.47 0 01-3.07-1.31 3.8 3.8 0 01-.51-.78c-1-2.08 2.72-18.57 3-20l-6.57-8.54s0-1.89 3.11-3.91c2.34-1.53 5.81-.99 5.81-.99z"/><path d="M103.79 128.28c-.49 1-.2 2-.38 2.4-.3.57-2.75 1.65-2.79 2l.15 2.63c.08 1.31-.23 5-.23 5s.73 1.12 1.39 1.24 1.49-.92 1.78-1.16 2.75-6.73 3-7a12.2 12.2 0 001.16-2.71c.46-1.08-.25-1.41-.62-1.54-.59-.22-.55-.24-1.08-.47-1.06-.46-2.11-.93-2.38-.39zm10.69-3.17c.82.76.92 1.83 1.22 2.1.48.43 3.16.56 3.32.88l.79 2.51c.4 1.26 2 4.61 2 4.61s-.28 1.31-.85 1.65-1.73-.32-2.08-.44-5-5.31-5.34-5.49a12.17 12.17 0 01-2-2.11 1 1 0 010-1.67c.47-.41.43-.42.84-.82.84-.82 1.62-1.62 2.1-1.22z" fill="#5a2c4f"/><path class="cls-23" d="M46.87 142.16c2.05-.63 13.43-1.63 14.92-3.2 1.8 0 3.19 9.59 3.19 9.59a24.61 24.61 0 01-2.13 9.58 59.51 59.51 0 01-3.19 5.33s10.64 2.67 12.78 3.19c4 1 15.23 2.6 17.32 1.34a37.94 37.94 0 007.17-6.66c2.13-3.2 4.17-4.63 5.33-4.26s-.74 4-1.07 5.32c-.42 1.67.28 1.89 1.07 3.2 1.25 2.09 5.29.72 6.39 1.06 3.91 1.22 1.55 10.21-1.75 11-5.32 1.22-11.51-1.1-17.42-1.38-8.78-.43-24.6-.24-27.69 0a56.76 56.76 0 01-17-1.07c-2.89-.72-5.32.29-5.32-4.26-.05-3.22 7.4-28.78 7.4-28.78z"/><path class="cls-26" d="M54.16 118.12c1.18-1 4.06-6.81 6.52-7.24 4.31-.75 8.65 6.09 9 6.43 1.68 1.76 1.27 24.09-.37 25.9-1.89 2.11-3.23 9.6-4.3 10.66-1.79 1.79-1.33-6.78-3.19-9.58-2.13-3.2-5.33-3.2-8.53-2.13-1 .33-1.06 0-6.39 3.19-6.42 3.84 3.57-23.98 7.26-27.23z"/><path d="M156.42 214.56l-.69-9.47-2.86-25.2-8-.42-12-1s-5.49 14.09.18 27.18c.24.55.48 1.17.73 1.84l5.67 10.11c7.97-1.04 9.67-1.68 16.97-3.04z" fill="#4f555b"/><path d="M165.78 187.06l-23.2 2.33s5.54 19.08 7.84 26.17a111.67 111.67 0 0020-4z" fill="#595e68"/><path class="cls-27" d="M158.42 92.56c-.08-1-7.13-2.87-15-2.27-.1.54-10 6.33-10 7.27-.17 5 3 11.55 3 16a4.89 4.89 0 01-2.51 4.25s-.94 5.71 3.1 6.56c1.34.29 6.62 8.76 8.52 8.52 2.06-.25 11.18-12.16 11.18-12.16s-9-1.77-10.29-3.17c-.77-.85 0-4 0-4s6.37 1.63 8 0c2-2 3.24-5.92 3-9-.33-4.3 1-12 1-12z"/><path d="M157.42 93.56c2 0 6 2 6 2l-4-7h3a14.93 14.93 0 00-6-6c-.21-.11 3-3 3-3s-3-1-5 0c-2.72 1.36-9.73-1.15-12-1a2 2 0 00-2 2s-1.39-1.11-4 0a14.27 14.27 0 00-7 7c-1 3-5 6-5 6s4-.24 4 0a49.22 49.22 0 01-1 5 18.52 18.52 0 01-2 5s5-1.24 5-1a35.19 35.19 0 010 7l2-1v3l2-1 1 2a27.69 27.69 0 002-9c0-2-1.8-2-2-3-1-5 2.5-3.44 3-2 1.55 4.51 4 .59 4-1a22.84 22.84 0 00-1-5 15.39 15.39 0 008 2c4 0 4.74-1 8-1z" fill="#194866"/><path class="cls-37" d="M133.91 117.81s-10.54 1.82-12.07 5.56c-4.65 11.36 8.22 53.54 5.59 67-.54 2.77 15.18 1.44 22.36 1.06 3.82-.2 18.8 1.28 18.11-5.32-.38-9.37-1.47-60.29-.42-60.52-1.18-1.52-11.43-5.46-13.43-6.58-.71.47-2.13 7.45-5.32 8.52-1 .32-7.54 1.48-10.65-3.2-.61-.86-4.17-6.52-4.17-6.52z"/><path class="cls-27" d="M125 127.7c1.84.89 9.77 5.46 11.72 5.32-1.07 2.14-8 18.62-9.59 20.24-2.47 2.47-7.45 11.72-7.45 11.72a46.22 46.22 0 003.19 6.39c2.39 3.27 4.18 9.1 6.39 9.58s5.4-.59 6.61-.89c3.33-.85 3.4-.1 4 .89s-3.28 1.43-4.26 2.13c-1.23.89 2.68 3.25 3.29 4.19 2.18 3.36-4.53 8.07-7.35 6.47-3-1.72-2.68-2.74-5.52-5.33-1.42-1.29-1.82-2.93-3.2-4.26-6.15-5.94-7.2-7.76-9.58-9.59-4.19-3.21-4.41-4.3-7.46-8.52-1.7-2.36 2.81-12.82 5.33-16C112.9 147.85 125 127.7 125 127.7z"/><path class="cls-37" d="M122.84 122.37s15.3 5.52 14.91 10.65c-.32 4.26-1.08 13.07-8.52 18.11-1.85 1.26-3.32 7-6.39 8.52-2.13 1.07-13.84-1.06-14.91-2.13-3.19-3.19 8.09-21.22 10.78-28a29.47 29.47 0 014.13-7.15z"/><path class="cls-27" d="M194.36 169.46a55.76 55.76 0 013 6.54c1.4 3.67 2.1 5.54 2.06 7-.11 3.81-2.42 7.43-3.46 7.24-.5-.09-.89-1.07-.86-1.87a3 3 0 01.51-1.36 14 14 0 001-2.73c.66-2.57-2.23-5.78-2.57-5.6a1 1 0 00-.51 1.36c.64 1.7 1.69 4.88 1.21 5.1-.93.43-1.23-.21-1.79-1.44a32.4 32.4 0 00-1.71-3.74c-1.47-2.49-.72-3.17-2.07-7-.59-1.66-3.75-5.49-9-11.38l-8.28-9.32s2.38-4.58 3.38-5.92c.21-.28.17-3.26 1.59-1.78 5.46 5.68 16.25 22.37 17.5 24.9z"/><path class="cls-37" d="M167.74 125.83c7.63 9.07 14.55 25.16 14.55 25.16-3.77 4.94-2.45 11.89-5 7.7-1.74-2.89-6.13-3.12-8.81-7.08-4.74-7-8.38-18.93-12.83-30.17-.35-.99 9.92 1.81 12.09 4.39z"/><path class="cls-25" d="M147.53 107.61s0 .11.06.14a3.74 3.74 0 01.32.63 5.83 5.83 0 002.31 2.31 4.76 4.76 0 006.17-2.69h-.77c-2 0-6.81-.19-7.71-.39-.06-.01-.34-.08-.38 0z"/></g></g></svg>