<svg xmlns="http://www.w3.org/2000/svg" viewBox="0 0 275.14 219.34"><defs><style>.cls-16{fill:#06df86}.cls-2{fill:#855445}.cls-3{fill:#303030}.cls-4{fill:#bcbcbc}.cls-5{fill:#d3caca}.cls-6{fill:#948d8d}.cls-7{fill:#b0a9a9}.cls-8{fill:#bc8973}.cls-9{fill:#d7c369}.cls-11{fill:#373737}.cls-12{fill:#565656}.cls-14{fill:#09bd77}.cls-17{fill:#191b28}.cls-18{fill:#fac38e}</style></defs><g id="Calque_2" data-name="Calque 2"><g id="Calque_1-2" data-name="Calque 1"><path d="M44.64 13.46C42.29 15 32.21 20.63 24.5 29c-11 11.94-11 15.76-16.31 26.92a86.29 86.29 0 00-8 30.46 89.3 89.3 0 003.68 32.07c4.57 16.3 11.94 27.34 19.16 38 9.15 13.47 11.28 12.9 24.84 31.28 14.38 19.51 32.47 36.53 81.65 30.36 26.06-3.27 48.39-6.07 76.23-18.59 19.11-8.58 35.87-16.35 50.27-34.41 5.73-7.2 16.29-20.8 18.62-41.2 2.3-20.09-4.69-35.43-8.24-43.23-3.31-7.28-10.3-22.14-26.51-33.89C234.82 43 225.42 36.21 211.83 34c-13.21-2.15-16.68 2.27-29.72-1.08-4.79-1.23-10.8-4.38-22.62-10.62-15.83-8.34-15.18-8.81-21.44-11.8-6.67-3.19-25.68-12-49.48-10.28-9.72.71-36.91 8.71-43.93 13.24z" opacity=".7" fill="#06df86"/><path class="cls-2" d="M202.44 132.55a5.5 5.5 0 00-.33-2.75l-18.86.14c-.47 0-1 0-1-.65a.42.42 0 010-.22l-5-.09c-.3 1-1 1.25-2 1.25-7.77 0-15.54 0-23.31.08-1.12 0-3.87-.24-4-.53a13.09 13.09 0 01-3.41-.62h-13.16l-8.08.05h-3.44c-.29 1.35-1.44 1.13-2.34 1.2-1.05.08-2.18.15-2.66-1.16h-5.76c-2.16 0-2.63.47-2.65 2.64 0 3.27.16 41.75.18 46.51 0 2.32 0 2.32 2.32 2.31h1.09c1-1.13.13-2.53.57-3.74-.28-8.58-.22-38.3-.28-42.76 0-.75.28-1 1-1 2.34 0 54.84-.18 58.05-.25.83 0 1.05.27 1.05 1.07 0 4.45.07 34.06.11 42.68 0 .54.09 1.07.13 1.6h31.83c.02-6.08 0-40.83-.05-45.76z"/><path class="cls-3" d="M158.61 180.49a2.76 2.76 0 001.09-3.69 4.42 4.42 0 00-1.94-1.23 7.85 7.85 0 00-2.85.33l-.88 1.25a3 3 0 001.36 3.37 12 12 0 003.22-.03zM117.46 177a2.76 2.76 0 001.12 3.68 7.19 7.19 0 003.65-.25 2.9 2.9 0 00.67-3.46l-1-.93a7.77 7.77 0 00-3-.27zm17.29-.06a3.06 3.06 0 00.6 3.29 5.12 5.12 0 004.33 0 2.93 2.93 0 00.6-3.37l-.89-1a7.11 7.11 0 00-2.75-.27 4.84 4.84 0 00-1.89 1.35zm43.3 3.53c.58-.65.23-1.43.31-2.15h-7.69a3.14 3.14 0 00.25 2.13zm16.85-2.2l.16 2c1.87 0 3.74.05 5.61.06 2 0 2 0 1.83-2.14zm-72.31-51.86c-.26 0-.64-.3-.37-.43 1.23-.59.57-1.31.24-2v-1.38a94.85 94.85 0 01.37-21.89 1.64 1.64 0 011.44-1.71 80.11 80.11 0 0129.73-.13 1.75 1.75 0 011.63 1.85c.43 4.24.47 8.49.49 12.74-.3 2.07 6.77 12.35.34 14.1-11 3-31.53 1.65-33.13 1.66-.19-.96-.05-1.99-.74-2.81z"/><path class="cls-4" d="M156.9 113.19c.52.52 1.18.27 1.77.27 6.87 0 13.74 0 20.62-.08a3.45 3.45 0 012 .33c.08.19.17.38.26.58a2.07 2.07 0 010 .61q-2.13 6.91-4.28 13.84c-7.84 0-15.67.05-23.51.05-.59 0-1.25.25-1.76-.31a.71.71 0 000-.29c1.46-4.88 3.43-9.62 4.17-14.71z"/><path class="cls-5" d="M181 122.45v2.82l19.32-.09c.62 0 1.38.09 1.24-.89-.1-.72.61-1.93-1-1.94l-18.36.1zm1.2 6.62a.42.42 0 000 .22c5.67 0 11.33 0 17-.1.48 0 1.17.36 1.41-.51.43-1.52-.07-2.19-1.63-2.19h-16.81z"/><path class="cls-6" d="M177.2 128.72c-7.84 0-15.67.05-23.51.05-.59 0-1.25.25-1.76-.31-.6.42-4.13 0-5.26-.09-.45 0-.9-.05-1.35-.11-.72-.1-.87.31-.82.9 1 .76 6.3 1.15 7.42 1.15 7.77 0 15.54-.08 23.31-.08 1 0 1.71-.24 2-1.25a.57.57 0 00-.03-.26z"/><path class="cls-7" d="M114.3 122h6c0 .6.09 1.21.13 1.81a20.77 20.77 0 00-.59 5.44c-.29 1.35-1.44 1.13-2.34 1.2-1.05.08-2.18.15-2.66-1.16.16-2.47-.74-4.84-.54-7.29zm3 5.34a1.52 1.52 0 001.48-1.67c0-.88-.88-1-1.61-1.08-.9 0-1.17.5-1.13 1 .04 1.12.39 1.75 1.27 1.75z"/><path class="cls-8" d="M182.21 122.45l18.36-.1c.13-.3-.34-.65.07-.94 0-3.79.36-3.14-3-3.16-4.55 0-9.1 0-13.65.06-.5 0-1.35-.44-1.4.65h15.23c.73 0 1.55-.27 1.6 1s-.83 1.15-1.63 1.15l-15.22.08c-.13.77-.83.44-1.25.64z"/><path class="cls-5" d="M182.52 121.17l15.22-.08c.8 0 1.68.25 1.63-1.15s-.87-1-1.6-1h-15.23c0 .76-.01 1.49-.02 2.23z"/><path class="cls-9" d="M200.64 121.41c-.41.29.06.64-.07.94 1.58 0 .87 1.22 1 1.94.14 1-.62.88-1.24.89l-19.32.09c-.07.9.57.89 1.17.94q8.44-.09 16.88-.16a8.68 8.68 0 012.92.16c1.13 0 1.58-.61 1.47-1.71a13.52 13.52 0 010-1.56c0-1.14-.42-1.69-1.63-1.3-.26.52-.53.54-.8 0z"/><path d="M202 126.21a8.68 8.68 0 00-2.92-.16q-8.44.06-16.88.16a2.83 2.83 0 010 .29H199c1.56 0 2.06.67 1.63 2.19-.24.87-.93.5-1.41.51-5.66.06-11.32.07-17 .1 0 .69.55.65 1 .65l18.86-.14a14.87 14.87 0 00-.08-3.6z" fill="#5e7487"/><path class="cls-11" d="M120.44 123.78a20.77 20.77 0 00-.59 5.44h2c.24-.94.47-1.88.7-2.82-.26 0-.64-.3-.37-.43 1.23-.59.57-1.31.24-2a3.49 3.49 0 00-1.98-.19z"/><path class="cls-12" d="M114.3 122h6c.71-.94.06-1.56-.69-1.63a22.75 22.75 0 00-4.81 0c-.67.1-1.35.76-.5 1.63z"/><path class="cls-9" d="M182.21 122.45l-.94-.64c-.33.1-.35.35-.31.64z"/><path class="cls-8" d="M201 121.64c.27.54.54.52.8 0z"/><path d="M221.11 136.45l.29.33.25-.24-.27-.34z" fill="#769361"/><path class="cls-11" d="M119 140.8a1.8 1.8 0 002.13 1.75 21.49 21.49 0 00.27-2.76c0-1 .42-1.2 1.3-1.22 3.26-.08 6.51-.08 9.77-.25 4.54-.24 21.64.76 24.22.75 1.28-1 1-2.11.23-3.26-1.29-.42-1.39-1.77-2.06-2.67l-31.68.13-1.57 3.11-.29-.07-.12-2.43c-.95.09-.76.82-.73 1.4.07 1.21.15 2.42.33 3.62.2 1.46-.3 2.1-1.8 1.9z"/><path class="cls-12" d="M156.93 135.81c.81 1.15 1 2.26-.23 3.26-.13 1.14.55 2.21.29 3.36 1.51.26 2.08-.65 2.2-1.92.23-2.46.38-4.92.56-7.39l-2.95.08c.04.87.09 1.74.13 2.61zM119 140.8c1.49.21 2-.44 1.8-1.9-.18-1.2-.26-2.41-.33-3.62 0-.58-.22-1.31.73-1.4 0-.17.07-.34.11-.51l-3-.08c.27 2.5.21 5.03.69 7.51zm2.9 35.2a15.42 15.42 0 016-5.47 42.83 42.83 0 017.54-3.29c.81-.29 1.17-.24 1.15.79-.06 2.54 0 5.09 0 7.63a7.11 7.11 0 012.75.27v-8.08c0-.65 0-1.16.92-.87 4.35 1.42 8.61 3 12.09 6.14a32.41 32.41 0 012.47 2.76 7.85 7.85 0 012.85-.33c-1-2.55-3.07-4.26-5.23-5.79a43.84 43.84 0 00-9.93-5.06c-.48-.18-.94-.42-1.4-.63-1.44-.05-2.13-.67-1.92-2.23a25.31 25.31 0 000-3.26q0-7.32-.08-14.63c0-.51.26-1.3-.61-1.35-1.35-.07-2.71 0-4.07 0a13.16 13.16 0 01-6.23 4.77l.1.94 2-.74a27.53 27.53 0 005.09-4.19v7.66c0 .66.42 1.47-.73 1.7-.12 0-.15.75-.15 1.16 0 3.06 0 6.12.06 9.18a1.67 1.67 0 01-1.27 1.92 39.05 39.05 0 00-10.09 5.44 12.79 12.79 0 00-4.43 5.29 7.77 7.77 0 013.12.27z"/><path class="cls-6" d="M221.78 112.85h.31c-.09-.13-.21-.14-.31 0zm-105.73 12.72c0 1.14.38 1.77 1.26 1.77a1.52 1.52 0 001.48-1.67c0-.88-.88-1-1.61-1.08-.9-.05-1.18.5-1.13.98z"/><path class="cls-3" d="M121.14 142.55a21.49 21.49 0 00.27-2.76c0-1 .42-1.2 1.3-1.22 3.26-.08 6.51-.08 9.77-.25a103.93 103.93 0 0113.67 0 20.42 20.42 0 002.94.15c2-.09 4 0 6-.05 0 .12-1 .63 1.59.62-.13 1.14.55 2.21.29 3.36l-16.51.15c-.24 0-.31.1-.25.32v8.16c0 .51-.4 1.27.31 1.46s.57.75.57 1.19v10.38c-1.44-.05-2.13-.67-1.92-2.23a25.31 25.31 0 000-3.26q0-7.32-.08-14.63c0-.51.26-1.3-.61-1.35-1.35-.07-2.71 0-4.07 0z"/><path class="cls-3" d="M128.41 148.33l-.1-.94c-1.06-.11-2.19-1.27-3.13.23 0 .49.08 1 .13 1.47.58.31 1.2.1 1.81.13.43-.28 1.03-.34 1.29-.89z"/><path class="cls-8" d="M223.08 155.77c-.15-2.51.7-3.32 3-3.11a20 20 0 002.89-.13c.65.49 1.25 0 1.88-.1 5.71 0 5.68 0 5.35 5.78-.12 2.25-2 16.92-2.23 17-2.46 1.19-4.43.61-7 .72-1.43.07-3.68-16.57-3.89-20.16z"/><path class="cls-14" d="M230.9 152.43c-.63.07-1.23.59-1.88.1 1.51-7.07-2.36-12.37-5.83-17.81a1.39 1.39 0 00-2.17-.55 20.6 20.6 0 00-4.7 3c-.87.8-1.42.89-2-.2-.9-1.74-3.9-1.73-3.69-4.41l2.79-3.05a3.31 3.31 0 00-3.18 2.76c-.35.3-.22 1.59-1.12.72-1.41-1.34-2.74-2.83-1.15-4.92l.5-.56.91-.69c.23-.13.7-.06.5-.52 0-.08-.57.08-.87.12l-.91.75-.54.52a3 3 0 010-4.78c.89-.68 1.88-1.22 2.82-1.82l1.13-.61c-.57-.57-1.06-.18-1.55.14l-3.36 1.34c.26-3.71 3.21-7.9 6.26-8.67 1.14-.29 1.29-.8 1.38-1.79a29.66 29.66 0 01.77-3.58c.43-.18 1.09-.41.8-.92s-.64.08-.9.35a1.73 1.73 0 01-.21-2.58c2.14-2.43 4-5.33 7.69-5.68 1.93-.19 3.1.92 4.07 2.37-.39 1.33-1.76 1-2.85 1.72 2.55-.87 2.8.92 2.89 2.32.15 2.18 1.12 1.66 2.48.92-2-1.22-1.28-3.21-1.54-4.92.2-1.41.37-2.9 2.09-3.31s2.58.8 3.85 1.63c2 1.29 3.62 2.35 3.24 5-.49 0-1.2-.76-1.36-.15-.21.8.9.85 1.41 1.25.27 1-.22 1.9-.41 2.84a1.36 1.36 0 00.83 1.75c.73.22 1.07-.38 1.33-1a15.11 15.11 0 01.79-1.68 5.72 5.72 0 016-3c2.07.37 4.6 1.62 5.07 4 .64 3.19 2.08 6.44.48 9.83-1.06 2.23-.59 4.85-1.77 7.13-.54 1.07.58 2.36 1.2 3.22 3 4.19 2.48 7.74-1.9 10.79 1.64 1 3.31 2 4.81 3.15.36.27 3 .56.48 1.9-.54.29.22.92.64 1.14.78.39 1.61.67 2.66 1.1-4.06 3.66-8.38 4.46-13.49 1.89.16 1.09 1 1.48.75 2.25a1.84 1.84 0 01-.7.07l-10.74-3.44-.48-.4c.39-.87.42-2.12 1.36-2.47 2.4-.89 1.62-2.08.53-3.38-1.24.67-1 2.77-2.86 2.89.76-2.95 2.66-5.26 4.33-7.69a2.86 2.86 0 00.59-2.79c-1-3.9 1.51-6.94 5.55-7l.25.21-.2-.26c0-.88-.57-.89-1.22-1-3.92-.54-3.92-.55-4.15-4.36-.11 2.49-2.29 1.13-3.27 2-.15-.4-.18-1-.46-1.16-.73-.41-.81.4-1 .79-.49 1.17-1.33 2.39 0 3.57-1.21 5.84-.89 11.71-.43 17.59.61 1.16-.76 2-.46 3.2.21.81.44.79 1 .38l.43.38c-.92 1.2-1.67 2.46-1.31 4.07zm-11-39l-.38.57.29.17c.05-.23.09-.47.13-.7l.59-.48 3.55-4.61c-2.93.45-3.36 2.42-3.84 4.33zm18.28 18.93a1.12 1.12 0 00-.43 1.14l-.26.29h.17a.7.7 0 00.09-.24 1.09 1.09 0 00.64-.95l.48-.58c.36-.15 1-.36.62-.77s-.62.26-.82.59zm-19.72-22.84c-.3.19-.93.33-.52.78s.66-.12.9-.42l.52-.54 1.13-1a2.15 2.15 0 001.38-1.27l.17-.35-.38.16c-.75.06-1.14.61-1.54 1.14a1.58 1.58 0 00-1.14 1zm10.8-1.89c0 1.53 1.25 1.93 2.23 2.58.08.06.56-.21.56-.32 0-1.47-1.35-1.66-2.25-2.28-.19-.23-.37-.21-.54.02zm15.05 29.86l.19.13-.22-.1-.18-4.76c-1.37 1.74-1.22 3.31.21 4.73zM225.79 110c-2.54.22-3.78 2.18-3.27 5.46.92-1.46 1.75-2.78 2.57-4.1 1.8-.36 2.54.56 2.75 2.2l-.21-5.45c-.58.89-.49 2.19-1.84 1.89zm3.41 31.92c.23-4.72.66-8.92-2.56-12.42-.82.84-1.67 1.71-2.51 2.59-.35.37-.86.75-.35 1.32 2.14 2.42 3.22 5.5 5.42 8.52zm.13-10.81l-.33-8.81c-.4 2.89-2.74 5.85.33 8.82zM210 116.48c1.73.57 2.66 1.37 3.83.67a.83.83 0 00-.1-.66c-.93-.94-1.94-.72-3.73-.01zm6.61-10.1a10.77 10.77 0 005.1-2.1 6.84 6.84 0 00-5.09 2.1zm14.26-3.24c1.36.91 2.28 1.36 4 .89a5 5 0 00-3.99-.89zm-13.26 7.41c-1 .6-1.62 1-1.22 2.21a2.49 2.49 0 001.23-2.21zm35.29 34.05l.18-.17c-.06-.06-.12-.16-.18-.17s-.11.11-.17.16z"/><path class="cls-7" d="M203.51 90.92q-28.57.06-57.16.19c-4.62 0-9.25 0-13.87.08-.67 0-1.61-.41-1.86.68-1 0-2.07.11-3.11.1-2.7 0-4-1.15-4-3.69q-.14-22.83-.21-45.64v-.39c.17-2.37 1.26-3.35 3.8-3.37l15.34-.07 66.17-.25c2.89 0 3.91.75 3.92 3.09q.13 23.42.21 46.81c0 2-1.2 3.09-3.33 3.18-1.24.06-2.49 0-3.73 0-.28-1.26-1.4-.73-2.17-.72zm4.87-1.2c2 0 2.75-.39 2.73-2.47q-.26-22.34-.21-44.68c0-1.84-.49-2.45-2.54-2.43q-40.37.24-80.72.31c-1.82 0-2.33.42-2.31 2.16q.21 22.64.2 45.28c0 1.76.54 2.15 2.34 2.13 13.41-.12 26.83-.14 40.25-.19s26.88-.14 40.26-.11z"/><path class="cls-6" d="M205.71 91.69c-.31-1.31-1.43-.78-2.2-.77q-28.57.06-57.16.19c-4.62 0-9.25 0-13.87.08-.67 0-1.61-.41-1.86.68a4.65 4.65 0 004.11 1.69q33.54-.21 67.07-.28c1.58 0 3.06-.07 3.91-1.59z"/><path d="M127.87 90c-1.8 0-2.34-.37-2.34-2.13q0-22.65-.2-45.28c0-1.74.49-2.16 2.31-2.16q40.35-.08 80.72-.31c2 0 2.54.59 2.54 2.43q0 22.34.21 44.68c0 2.08-.72 2.47-2.73 2.47-13.42 0-26.84.06-40.26.11s-26.84.09-40.25.19zM166 48.9c-4.92 0-4.92 0-4.9 4.68v6.79c0 .62-.23 1.32.43 1.81 1 .89 1.42 2.3 2.9 2.71a50.17 50.17 0 007.84.38c1.39 0 1.78-.46 1.75-1.71C174 59.27 174 55 174 50.68c0-1.49-.51-2-2-1.83-1 .1-1.94 0-2.91 0-1.03-1.17-2.09-1.18-3.09.05zm33.66 16.16c.75 0 .91-.68.9-1.31V50.16c0-1-.49-1.43-1.52-1.4s-2.34.06-3.51.08c-1.08-1.28-2.17-1.39-3.29 0-4.95 0-4.95 0-4.93 4.61v7c0 .66-.29 1.48.75 1.78a6 6 0 002.12 2.33c3.09 1 6.31.52 9.49.5z" fill="#f6f4f5"/><path class="cls-5" d="M193.82 50.77c1.38 0 1.66-.87 1.67-1.93 1.17 0 2.34 0 3.51-.08s1.52.43 1.52 1.4v13.59c0 .63-.15 1.3-.9 1.31-3.18 0-6.4.5-9.49-.59a1.82 1.82 0 00.19-2.44 1.61 1.61 0 00-2.31.11c-1-.3-.73-1.12-.75-1.78v-7c0-4.63 0-4.63 4.93-4.61.01 1.1.22 2.01 1.63 2.02zm-2.45 6.1h-.11l.18.15.41.4c.46.89 1.06.74 2.14 0h-2.13l-.42-.38a.76.76 0 00-.07-.17zm7.14-.19c-1.29-.47-2.58-1-3.76.3l-.17.17h.11a.46.46 0 00.07-.14c1.24-.15 2.47-.67 3.75-.33zm-1.06 3.68a9.77 9.77 0 01-4.89.43c1.74 1.03 3.44 1.07 4.89-.43zm-5.24-8c1.51.6 2.91 1.88 4.66.54-1.76.9-3.05-.98-4.66-.59zm-3.6.59a1.85 1.85 0 002.58.1c-.81.3-1.59-.43-2.58-.15zm9.27-.5l1.33 1.39c.16-1.39-.29-1.66-1.33-1.44zm-8.23 4.17c.26 0 .64-.08.72-.23s-.16-.47-.44-.44a2.13 2.13 0 00-.63.25c-.05.33.16.4.35.37zm-28.07 5.56c-.66-.49-.42-1.19-.43-1.81v-6.79c0-4.68 0-4.68 4.9-4.68 0 1 .11 2 1.54 2s1.49-1 1.54-2c1 0 1.95.07 2.91 0 1.52-.16 2.05.34 2 1.83-.08 4.29 0 8.59 0 12.88 0 1.25-.36 1.75-1.75 1.71a50.17 50.17 0 01-7.84-.38c.03-3.29-.33-3.62-2.87-2.76zM172 52.2c-1.84-.39-2.88.25-4 .5l.12.47zm-4.95 8.65c-.43-.76-.93-1.3-2.23-.45zm2.74-3.78c-1-.62-1.86.44-2.62-.08a2.28 2.28 0 002.65.08zm-3.22-.58c-.69-.68-1.15-1.13-2.21-.6a3.12 3.12 0 002.24.6zm-1.86-3.25c.76.9 1.46.76 2.61 0zm5.82 3.1c.47.58 1 .36 1.53.13-.48-.69-.96-.67-1.5-.13zm-1.39 4.32c.67.36 1.11-.08 1.72-.3-.67-.19-1.22-.36-1.69.3zm-1.07.59a.19.19 0 00.16 0c.18-.07.17-.16 0-.21s-.1 0-.16.06 0 .13.03.15zm4.65.2v.2a.27.27 0 00.16 0v-.12zm-.08-8.78a.64.64 0 00.17-.05s0-.14-.05-.14a.61.61 0 00-.18.05s.06.14.09.14z"/><path class="cls-14" d="M192.2 48.8c0 1.05.21 2 1.62 2s1.66-.87 1.67-1.93c-1.08-1.31-2.17-1.42-3.29-.07z"/><path class="cls-16" d="M166 48.9c0 1 .11 2 1.54 2s1.49-1 1.54-2c-1.02-1.22-2.08-1.23-3.08 0z"/><path class="cls-4" d="M164.48 64.89c0-3.24-.36-3.57-2.9-2.71.98.89 1.42 2.3 2.9 2.71zm25.7-.42a1.82 1.82 0 00.19-2.44 1.61 1.61 0 00-2.31.11 6 6 0 002.12 2.33zm2.38-3.68c1.74 1 3.4 1.07 4.89-.43a9.77 9.77 0 01-4.89.43z"/><path class="cls-7" d="M196.87 52.85c-1.76.95-3.05-.93-4.66-.54 1.51.6 2.91 1.88 4.66.54zM194.76 57c1.25-.13 2.47-.65 3.75-.31-1.29-.47-2.58-1-3.76.3zm-3.57-4c-.81.35-1.59-.38-2.58-.1a1.85 1.85 0 002.58.1zm8.02.79c.16-1.34-.29-1.61-1.33-1.39zm-9.91 2.36c-.05.38.16.45.35.42s.64-.08.72-.23-.16-.47-.44-.44a2.13 2.13 0 00-.63.25zm2.55 1.24c.46.89 1.06.74 2.14 0h-2.14zm2.9-.39l-.17.17h.11a.46.46 0 00.07-.14zm-3.31 0l.41.4-.42-.38z"/><path class="cls-7" d="M191.44 57a.76.76 0 00-.07-.13h-.11l.18.15zm-23.32-3.83l3.91-1c-1.84-.39-2.88.25-4 .5zm-3.27 7.23l2.23.45c-.43-.76-.93-1.3-2.23-.45zm2.35-3.4a2.28 2.28 0 002.62.08c-1.05-.63-1.82.43-2.62-.08zm-2.81-1.11a3.12 3.12 0 002.21.6c-.69-.68-1.15-1.13-2.21-.6zm2.96-2.66h-2.61c.76.91 1.46.77 2.61 0zm4.74 3.24c-.51-.69-1-.67-1.53-.13.44.58.96.36 1.53.13zm-1.2 3.89c-.7-.19-1.25-.35-1.72.3.67.34 1.11-.08 1.72-.3zm-2.81.77v.12a.19.19 0 00.16 0c.18-.07.17-.16 0-.21s-.1.07-.16.09zm4.82.37h-.15v.2a.27.27 0 00.16 0s-.02-.15-.01-.2zm-.29-8.97s0 .14.06.14a.64.64 0 00.17-.05s0-.14-.05-.14a.61.61 0 00-.18.05z"/><path class="cls-17" d="M75.15 88.71L66.09 88s-2.62 14.36-3.48 19.5c-1.39 8.35-1.39 22.28-2.09 26.46-.31 1.89-2.77 19.49-2.78 22.29-.05 12.68 3.48 28.56 3.48 28.56a14.67 14.67 0 003.48 1.39c1.41.22 3.48-1.39 3.48-1.39S71.09 161.29 72 153c.81-7.57 2-17.86 3.18-23.19.77-3.37 5-17.52 6.27-21.59 2.09-7 2.78-19.5 2.78-19.5z"/><path class="cls-17" d="M84.2 88.71a42.47 42.47 0 007.66-2.09 68.47 68.47 0 006.27-3.48s4.42 14.82 4.18 17.41c-.16 1.76-3.93 25.77-4.18 27.86-.5 4.2-2.71 23.71-2.78 27.86-.12 6.38-4.88 25.77-4.88 25.77a17 17 0 01-4.88.7 17.2 17.2 0 01-4.28-.48s.88-18.77.6-24.92c-.15-3.11 1.24-7.53 1.07-12-.18-5-.68-14.75-.87-19.72-.44-11.94 0-19.71 0-20.9 0-4.86 2.09-16.01 2.09-16.01zm-22.29 96.12c1.81.16 2.14 1.34 2.79 1.39 1 .08 2.16-2.64 2.79-1.39s.69 9.75.69 12.53c0 2.09-7 2.79-7.66 0a9.67 9.67 0 010-4.18c.2-1 .56-2.56.7-3.48.28-1.89-.28-4.96.69-4.87z"/><path class="cls-17" d="M82.84 181.14a35.66 35.66 0 014.15.2c1-.1 1.53-.85 2.09-.69a12.29 12.29 0 00.69 3.48 10.92 10.92 0 002.79 2.79c1.28.8 3.83 2.08 4.18 2.78a1.38 1.38 0 01-.7 2.09 9.4 9.4 0 01-3.48.7c-3.12 0-8.24-3.21-9.75-4.18s-1.41-1.48-1.4-2.11c0-1 0-1-.08-1.91-.07-1.9.54-3.06 1.51-3.15zM78.63 33c-1.13.83-13.32 1.1-14.63 4.18s2.49 12.53 2.79 18.11c.23 4.23-3.48 3.9-3.48 9.06 0 9-1.56 33.13-1.4 37.61.15 3.81 19.57-1.94 23.68-2.09 2.19-.09 16.37-1.63 16-4.18s-3.49-21.53-2.76-27.87-2.09-7.66 1.39-11.82c.86-1 .7-6.11.7-8.36 0-3.48.4-3.86-.7-4.88a24.25 24.25 0 00-5.57-3.48c-.49 0-7.53 22.62-9.77 29.85a.52.52 0 01-1-.08z"/><path class="cls-17" d="M61.22 35.78c.66-.56 16-2.57 17.41-2.79 2.39-.38-10 7.76-9.84 7.95.92 1 .5 13.34-.42 14.33a4 4 0 01-2.82 1.06s1.31-5.22-.25-6.67c-1-.92-1.94-.88-4-.88-2.59 0-4.53 4.54-5.66 5.11.01 0 3.51-16.35 5.58-18.11z"/><path class="cls-18" d="M109.4 99.27c.82 2.8.57 4.07.42 7a40.7 40.7 0 01-1.53 8.22c-.74 1.55-1.3 2.52-1.67 2.13-.11-.13-.06-1.56-.45-3.79-.12-.63.48-3.9-.58-4.74-.66-.51-.78 2.74-1.73 2.85-.74.09-.28-3.9-.39-4.51s-.13-1.41-.23-1.89 1.18-2.79 1.71-5c2.79.84 1.92.19 4.45-.27z"/><path class="cls-17" d="M94.65 39.26c2.39-.38 11.66 6.08 11.84 6.27.92 1-.7 16.72-.7 18.11 0 2.09 1.54 7.11 2.09 13.23 1 10.67 3.08 23.11 2.09 23.68-.28.16-5.72.84-6.27-.69-1.08-3.06-3.7-10.86-4.18-16.72-.69-8.36-2.32-16.46-2.78-16.71-1.29-.71 0-7.67 0-7.67s-3.46-19.28-2.09-19.5z"/><path class="cls-2" d="M59.52 122.66a2.6 2.6 0 00-2.43-2.74h-.19a2.59 2.59 0 00-2.42 2.73h-6c-5.43.66-7-.1-10.08-3.2-.29-.2-.67-.58-.68-.88v-6.91a2.69 2.69 0 012.51-2.82h8.4v-3.39a2.67 2.67 0 012.51-2.82H62.8a2.68 2.68 0 012.51 2.83v3.35h8.42a2.69 2.69 0 012.51 2.89 34.44 34.44 0 00.06 3.67 5.9 5.9 0 01-2.57 5.44 10.64 10.64 0 01-6.59 1.89c-2.5-.17-5.01-.04-7.62-.04zm-8.38-13.93h11.67v-.63a2.68 2.68 0 00-2.5-2.83h-6.66a2.67 2.67 0 00-2.51 2.82z"/><path d="M54.37 122.67a2.46 2.46 0 002.32 2.46h.56a2.48 2.48 0 002.33-2.46h5.73c3.35 0 8-.91 10.8-4.43l.4 15.91a1.34 1.34 0 01-1.25 1.41h-36.6a1.34 1.34 0 01-1.25-1.41l.24-15.89c1 .65 2.88 3 3.85 3.47a6 6 0 002.3.86c3 .08 6.29.09 9.3.09z" fill="#9c6445"/><path class="cls-18" d="M53.23 94.29a73.39 73.39 0 00-.37 9c0 1.39 0 2.1 1.07 2.81s3 .53 5.2 0c.62-.15-.29-2.94.63-3.93.57-.62 1.2 2.58 2.15 2.54.76 0-.33-3.9-.32-4.52s-.09-1.41-.07-1.9-1.6-2.56-2.48-4.68c-2.62 1.29-3.24.73-5.81.68z"/><path class="cls-17" d="M60.52 76.87c.06-1.4 1.11-4.68 1.39-6.27.25-1.38 1-4.94 1.4-6.26 1.39-4.18 3.75-6.56 3.34-8.88-.22-1.29.09-5.45-.56-6.45L61 47.23c-.12 0-.92-1.49-1-1.52-2 2.21-2.45 5-3.57 6.8a28.61 28.61 0 00-2.61 6.78 77.46 77.46 0 00-2.28 12.21c.11 2.94-.07 7.93-.07 10.94a75.51 75.51 0 01-.32 11.72s1.39.09 1.38.13c2.58 0 4.59.61 7.21-.66a34.51 34.51 0 01-1.31-3.52c-.56-2 .41-5.68.7-7a48.8 48.8 0 001.39-6.24z"/><path class="cls-18" d="M99 19c0-.64-.12-3.2-5-3.31-11.43-1.88-12.12 2.31-12.2 2.9-.41 3.07-2.06.65-1.78 3.4.06.5 1.63 6.42 1.63 6.83 0 .74.68 2.32 0 3-.46.43-3.07 2.12-3 2.23.41.46 6.19 5.31 8.16 5.94.81.25 2-.37 3.23-.4s3.45-.35 3.45-.35a14.3 14.3 0 00-.74-3c-1.26-.66-.63-1.72-.74-2.22v-.75a3.24 3.24 0 002.17-.34c1.45-.68 2-1.65 2-3.78C96.22 28.51 99 19 99 19z"/><path class="cls-2" d="M99 19.44a12.58 12.58 0 003.26-3.12c.32-.56-.36-2.6-.91-3.76-.48-1-1.59-.69-2.47-2.08-.48-.75-.19-.92-.6-1.36-.9-1-2.27-.08-4-1.1-.55-.31-.35-.35-.93-.69-1.43-.85-3.57-1.15-4.71-.11-.35.32-.31.5-.64.66-.83.41-1.42-.57-2.5-.39a2.56 2.56 0 00-2 1.64c-.13.43-.06.81-.34 1s-.53-.06-.94 0c-.74.07-2.13 1-2.22 1.89s.26 1.32 0 1.91c-.18.36-2.19 1.73-2 2.51.17.59.65.55.61 1.29s-.65.62-.68 1.9c0 1.91 1 1.29.58 2.56-.16.55.2 1.23.28 1.67.29 1.53.67 4.86 1.29 5.52s.62-.34 1.89-.31c.91 0 .52-1.61 1-2.3.72-1-1.75-3.3-1.72-4.57 0-.64-.25-1.94.39-2.39 1.39-1 2-.45 2.39.38 3.12 7.26 1.76-4.31 3.66-3.7 1 .33 4.73.46 6.58 1.06 2.79.9 3.86 2.26 4.73 1.89z"/><path d="M90.6 27.53v.09a1.48 1.48 0 01.12.38 3.31 3.31 0 001.09 1.51 2.7 2.7 0 003.71-1l-.44-.07c-1.11-.19-3.8-.72-4.29-.91-.01.03-.16-.04-.19 0zM78.63 33l2.91-1.16a.82.82 0 01.95.25L87 37.87l4.82-2.41a.72.72 0 011 .42l.44 1.29 1.39 2.09-9.74 29.86a.54.54 0 01-1-.09z" fill="#fff"/><path class="cls-16" d="M87.21 37.76l.93 1.2a.56.56 0 010 .63l-1.09 1.63a.5.5 0 00-.09.29v21.16a.51.51 0 010 .17l-2 6.27a.54.54 0 01-1-.09L83 62.91a.33.33 0 010-.14l2.58-21.13a1.33 1.33 0 00-.06-.56l-.23-.69a1.8 1.8 0 01.52-1.91l1-.87.21.26z"/></g></g></svg>